SplineFontDB: 3.0
FontName: ArchivoBlack-Normal
FullName: Archivo Black-Normal
FamilyName: Archivo Black
Weight: Regular
Copyright: Copyright (c) 2012-2013, Omnibus-Type (www.omnibus-type.com omnibus.type@gmail.com) with Reserved Font Name 'Archivo'
Version: 001.004
ItalicAngle: 0
UnderlinePosition: -104.98
UnderlineWidth: 49.8047
Ascent: 800
Descent: 200
sfntRevision: 0x00010106
LayerCount: 2
Layer: 0 1 "Back"  1
Layer: 1 1 "Fore"  0
XUID: [1021 809 -2065993493 7942728]
FSType: 8
OS2Version: 3
OS2_WeightWidthSlopeOnly: 0
OS2_UseTypoMetrics: 1
CreationTime: 1388141386
ModificationTime: 1388263833
PfmFamily: 81
TTFWeight: 400
TTFWidth: 5
LineGap: 0
VLineGap: 0
Panose: 0 0 5 0 0 0 0 0 0 0
OS2TypoAscent: 716
OS2TypoAOffset: 0
OS2TypoDescent: -212
OS2TypoDOffset: 0
OS2TypoLinegap: 272
OS2WinAscent: 988
OS2WinAOffset: 0
OS2WinDescent: 212
OS2WinDOffset: 0
HheadAscent: 988
HheadAOffset: 0
HheadDescent: -212
HheadDOffset: 0
OS2SubXSize: 650
OS2SubYSize: 600
OS2SubXOff: 0
OS2SubYOff: 75
OS2SupXSize: 650
OS2SupYSize: 600
OS2SupXOff: 0
OS2SupYOff: 350
OS2StrikeYSize: 50
OS2StrikeYPos: 316
OS2Vendor: 'UKWN'
OS2CodePages: 20000093.00000000
OS2UnicodeRanges: 00000007.00000000.00000000.00000000
Lookup: 1 0 0 ""  {} []
Lookup: 258 0 0 "'kern' Horizontal Kerning lookup 0"  {"'kern' Horizontal Kerning lookup 0 subtable"  } ['kern' ('DFLT' <'dflt' > 'grek' <'dflt' > 'latn' <'dflt' > ) ]
MarkAttachClasses: 1
DEI: 91125

StartChar: .notdef
Encoding: 65536 -1 0
Width: 750
Flags: MW
LayerCount: 2
UndoRedoHistory
Layer: 0
Undoes
EndUndoes
Redoes
EndRedoes
EndUndoRedoHistory
UndoRedoHistory
Layer: 1
Undoes
EndUndoes
Redoes
EndRedoes
EndUndoRedoHistory
Fore
SplineSet
80 50 m 1,0,-1
 420 50 l 1,1,-1
 250 305 l 1,2,-1
 80 50 l 1,0,-1
280 350 m 1,3,-1
 450 95 l 1,4,-1
 450 605 l 1,5,-1
 280 350 l 1,3,-1
50 605 m 1,6,-1
 50 95 l 1,7,-1
 220 350 l 1,8,-1
 50 605 l 1,6,-1
250 395 m 1,9,-1
 420 650 l 1,10,-1
 80 650 l 1,11,-1
 250 395 l 1,9,-1
500 0 m 1,12,-1
 0 0 l 1,13,-1
 0 700 l 1,14,-1
 500 700 l 1,15,-1
 500 0 l 1,12,-1
EndSplineSet
EndChar

StartChar: A
Encoding: 65 65 1
Width: 777
Flags: MW
LayerCount: 2
UndoRedoHistory
Layer: 0
Undoes
EndUndoes
Redoes
EndRedoes
EndUndoRedoHistory
UndoRedoHistory
Layer: 1
Undoes
EndUndoes
Redoes
EndRedoes
EndUndoRedoHistory
Fore
SplineSet
311 251 m 1,0,-1
 460 251 l 1,1,-1
 388 496 l 1,2,-1
 384 496 l 1,3,-1
 311 251 l 1,0,-1
535 0 m 1,4,-1
 506 97 l 1,5,-1
 265 97 l 1,6,-1
 236 0 l 1,7,-1
 10 0 l 1,8,-1
 261 688 l 1,9,-1
 518 688 l 1,10,-1
 769 0 l 1,11,-1
 535 0 l 1,4,-1
EndSplineSet
EndChar

StartChar: Aacute
Encoding: 193 193 2
Width: 777
Flags: MW
LayerCount: 2
UndoRedoHistory
Layer: 0
Undoes
EndUndoes
Redoes
EndRedoes
EndUndoRedoHistory
UndoRedoHistory
Layer: 1
Undoes
EndUndoes
Redoes
EndRedoes
EndUndoRedoHistory
Fore
SplineSet
460 251 m 1,0,-1
 388 496 l 1,1,-1
 384 496 l 1,2,-1
 311 251 l 1,3,-1
 460 251 l 1,0,-1
506 97 m 1,4,-1
 265 97 l 1,5,-1
 236 0 l 1,6,-1
 10 0 l 1,7,-1
 261 688 l 1,8,-1
 518 688 l 1,9,-1
 769 0 l 1,10,-1
 535 0 l 1,11,-1
 506 97 l 1,4,-1
293 752 m 1,12,-1
 385 885 l 1,13,-1
 578 885 l 1,14,-1
 580 881 l 1,15,-1
 420 752 l 1,16,-1
 293 752 l 1,12,-1
EndSplineSet
EndChar

StartChar: Abreve
Encoding: 258 258 3
Width: 777
Flags: MW
LayerCount: 2
UndoRedoHistory
Layer: 0
Undoes
EndUndoes
Redoes
EndRedoes
EndUndoRedoHistory
UndoRedoHistory
Layer: 1
Undoes
EndUndoes
Redoes
EndRedoes
EndUndoRedoHistory
Fore
SplineSet
311 251 m 1,0,-1
 460 251 l 1,1,-1
 388 496 l 1,2,-1
 384 496 l 1,3,-1
 311 251 l 1,0,-1
535 0 m 1,4,-1
 506 97 l 1,5,-1
 265 97 l 1,6,-1
 236 0 l 1,7,-1
 10 0 l 1,8,-1
 261 688 l 1,9,-1
 518 688 l 1,10,-1
 769 0 l 1,11,-1
 535 0 l 1,4,-1
574 885 m 1,12,13
 574 831 574 831 521.5 786 c 128,-1,14
 469 741 469 741 389 741 c 0,15,16
 347 741 347 741 311.5 754 c 128,-1,17
 276 767 276 767 253 788 c 128,-1,18
 230 809 230 809 217.5 834 c 128,-1,19
 205 859 205 859 205 885 c 1,20,-1
 301 885 l 1,21,22
 304 867 304 867 329.5 851 c 128,-1,23
 355 835 355 835 389 835 c 128,-1,24
 423 835 423 835 449.5 851 c 128,-1,25
 476 867 476 867 479 885 c 1,26,-1
 574 885 l 1,12,13
EndSplineSet
EndChar

StartChar: Acircumflex
Encoding: 194 194 4
Width: 777
Flags: MW
LayerCount: 2
UndoRedoHistory
Layer: 0
Undoes
EndUndoes
Redoes
EndRedoes
EndUndoRedoHistory
UndoRedoHistory
Layer: 1
Undoes
EndUndoes
Redoes
EndRedoes
EndUndoRedoHistory
Fore
SplineSet
311 251 m 1,0,-1
 460 251 l 1,1,-1
 388 496 l 1,2,-1
 384 496 l 1,3,-1
 311 251 l 1,0,-1
535 0 m 1,4,-1
 506 97 l 1,5,-1
 265 97 l 1,6,-1
 236 0 l 1,7,-1
 10 0 l 1,8,-1
 261 688 l 1,9,-1
 518 688 l 1,10,-1
 769 0 l 1,11,-1
 535 0 l 1,4,-1
462 740 m 1,12,-1
 388 817 l 1,13,-1
 314 740 l 1,14,-1
 186 740 l 1,15,-1
 325 885 l 1,16,-1
 453 885 l 1,17,-1
 592 740 l 1,18,-1
 462 740 l 1,12,-1
EndSplineSet
EndChar

StartChar: Adieresis
Encoding: 196 196 5
Width: 777
Flags: MW
LayerCount: 2
UndoRedoHistory
Layer: 0
Undoes
EndUndoes
Redoes
EndRedoes
EndUndoRedoHistory
UndoRedoHistory
Layer: 1
Undoes
EndUndoes
Redoes
EndRedoes
EndUndoRedoHistory
Fore
SplineSet
311 251 m 1,0,-1
 460 251 l 1,1,-1
 388 496 l 1,2,-1
 384 496 l 1,3,-1
 311 251 l 1,0,-1
535 0 m 1,4,-1
 506 97 l 1,5,-1
 265 97 l 1,6,-1
 236 0 l 1,7,-1
 10 0 l 1,8,-1
 261 688 l 1,9,-1
 518 688 l 1,10,-1
 769 0 l 1,11,-1
 535 0 l 1,4,-1
423 746 m 1,12,-1
 423 885 l 1,13,-1
 575 885 l 1,14,-1
 575 746 l 1,15,-1
 423 746 l 1,12,-1
203 746 m 1,16,-1
 203 885 l 1,17,-1
 355 885 l 1,18,-1
 355 746 l 1,19,-1
 203 746 l 1,16,-1
EndSplineSet
EndChar

StartChar: Agrave
Encoding: 192 192 6
Width: 777
Flags: MW
LayerCount: 2
UndoRedoHistory
Layer: 0
Undoes
EndUndoes
Redoes
EndRedoes
EndUndoRedoHistory
UndoRedoHistory
Layer: 1
Undoes
EndUndoes
Redoes
EndRedoes
EndUndoRedoHistory
Fore
SplineSet
460 251 m 1,0,-1
 388 496 l 1,1,-1
 384 496 l 1,2,-1
 311 251 l 1,3,-1
 460 251 l 1,0,-1
506 97 m 1,4,-1
 265 97 l 1,5,-1
 236 0 l 1,6,-1
 10 0 l 1,7,-1
 261 688 l 1,8,-1
 518 688 l 1,9,-1
 769 0 l 1,10,-1
 535 0 l 1,11,-1
 506 97 l 1,4,-1
198 881 m 1,12,-1
 200 885 l 1,13,-1
 393 885 l 1,14,-1
 485 752 l 1,15,-1
 358 752 l 1,16,-1
 198 881 l 1,12,-1
EndSplineSet
EndChar

StartChar: Amacron
Encoding: 256 256 7
Width: 777
Flags: MW
LayerCount: 2
UndoRedoHistory
Layer: 0
Undoes
EndUndoes
Redoes
EndRedoes
EndUndoRedoHistory
UndoRedoHistory
Layer: 1
Undoes
EndUndoes
Redoes
EndRedoes
EndUndoRedoHistory
Fore
SplineSet
311 251 m 1,0,-1
 460 251 l 1,1,-1
 388 496 l 1,2,-1
 384 496 l 1,3,-1
 311 251 l 1,0,-1
535 0 m 1,4,-1
 506 97 l 1,5,-1
 265 97 l 1,6,-1
 236 0 l 1,7,-1
 10 0 l 1,8,-1
 261 688 l 1,9,-1
 518 688 l 1,10,-1
 769 0 l 1,11,-1
 535 0 l 1,4,-1
231 765 m 1,12,-1
 231 865 l 1,13,-1
 547 865 l 1,14,-1
 547 765 l 1,15,-1
 231 765 l 1,12,-1
EndSplineSet
EndChar

StartChar: Aogonek
Encoding: 260 260 8
Width: 777
Flags: MW
LayerCount: 2
UndoRedoHistory
Layer: 0
Undoes
EndUndoes
Redoes
EndRedoes
EndUndoRedoHistory
UndoRedoHistory
Layer: 1
Undoes
EndUndoes
Redoes
EndRedoes
EndUndoRedoHistory
Fore
SplineSet
311 251 m 1,0,-1
 460 251 l 1,1,-1
 388 496 l 1,2,-1
 384 496 l 1,3,-1
 311 251 l 1,0,-1
639 0 m 1,4,5
 623 -33 623 -33 623 -69 c 0,6,7
 623 -91 623 -91 637.5 -105.5 c 128,-1,8
 652 -120 652 -120 683 -120 c 2,9,-1
 725 -120 l 1,10,-1
 725 -196 l 1,11,12
 677 -211 677 -211 629 -211 c 0,13,14
 575 -211 575 -211 538.5 -183 c 128,-1,15
 502 -155 502 -155 502 -97 c 0,16,17
 502 -50 502 -50 542 0 c 1,18,-1
 535 0 l 1,19,-1
 506 97 l 1,20,-1
 265 97 l 1,21,-1
 236 0 l 1,22,-1
 10 0 l 1,23,-1
 261 688 l 1,24,-1
 518 688 l 1,25,-1
 769 0 l 1,26,-1
 639 0 l 1,4,5
EndSplineSet
EndChar

StartChar: Aring
Encoding: 197 197 9
Width: 777
Flags: MW
LayerCount: 2
UndoRedoHistory
Layer: 0
Undoes
EndUndoes
Redoes
EndRedoes
EndUndoRedoHistory
UndoRedoHistory
Layer: 1
Undoes
EndUndoes
Redoes
EndRedoes
EndUndoRedoHistory
Fore
SplineSet
311 251 m 1,0,-1
 460 251 l 1,1,-1
 388 496 l 1,2,-1
 384 496 l 1,3,-1
 311 251 l 1,0,-1
535 0 m 1,4,-1
 506 97 l 1,5,-1
 265 97 l 1,6,-1
 236 0 l 1,7,-1
 10 0 l 1,8,-1
 261 688 l 1,9,-1
 518 688 l 1,10,-1
 769 0 l 1,11,-1
 535 0 l 1,4,-1
389 885 m 0,12,13
 371 885 371 885 360 873.5 c 128,-1,14
 349 862 349 862 349 844 c 0,15,16
 349 827 349 827 360.5 816 c 128,-1,17
 372 805 372 805 389 805 c 0,18,19
 407 805 407 805 418 816.5 c 128,-1,20
 429 828 429 828 429 846 c 0,21,22
 429 863 429 863 418 874 c 128,-1,23
 407 885 407 885 389 885 c 0,12,13
389 954 m 0,24,25
 433 954 433 954 465.5 922.5 c 128,-1,26
 498 891 498 891 498 845 c 0,27,28
 498 801 498 801 466 769 c 128,-1,29
 434 737 434 737 389 737 c 0,30,31
 345 737 345 737 312.5 768.5 c 128,-1,32
 280 800 280 800 280 845 c 128,-1,33
 280 890 280 890 312 922 c 128,-1,34
 344 954 344 954 389 954 c 0,24,25
EndSplineSet
EndChar

StartChar: Aringacute
Encoding: 506 506 10
Width: 777
Flags: MW
LayerCount: 2
UndoRedoHistory
Layer: 0
Undoes
EndUndoes
Redoes
EndRedoes
EndUndoRedoHistory
UndoRedoHistory
Layer: 1
Undoes
EndUndoes
Redoes
EndRedoes
EndUndoRedoHistory
Fore
SplineSet
311 251 m 1,0,-1
 460 251 l 1,1,-1
 388 496 l 1,2,-1
 384 496 l 1,3,-1
 311 251 l 1,0,-1
390 768 m 0,4,5
 372 768 372 768 361 756.5 c 128,-1,6
 350 745 350 745 350 727 c 0,7,8
 350 710 350 710 361.5 699 c 128,-1,9
 373 688 373 688 390 688 c 0,10,11
 408 688 408 688 419 699.5 c 128,-1,12
 430 711 430 711 430 729 c 0,13,14
 430 746 430 746 418.5 757 c 128,-1,15
 407 768 407 768 390 768 c 0,4,5
535 0 m 1,16,-1
 506 97 l 1,17,-1
 265 97 l 1,18,-1
 236 0 l 1,19,-1
 10 0 l 1,20,-1
 261 688 l 1,21,-1
 288 688 l 1,22,23
 281 706 281 706 281 728 c 0,24,25
 281 775 281 775 312 801 c 128,-1,26
 343 827 343 827 390 827 c 0,27,28
 437 827 437 827 468 801 c 128,-1,29
 499 775 499 775 499 728 c 0,30,31
 499 707 499 707 491 688 c 1,32,-1
 518 688 l 1,33,-1
 769 0 l 1,34,-1
 535 0 l 1,16,-1
448 852 m 1,35,-1
 321 852 l 1,36,-1
 398 957 l 1,37,-1
 580 957 l 1,38,-1
 582 953 l 1,39,-1
 448 852 l 1,35,-1
EndSplineSet
EndChar

StartChar: Atilde
Encoding: 195 195 11
Width: 777
Flags: MW
LayerCount: 2
UndoRedoHistory
Layer: 0
Undoes
EndUndoes
Redoes
EndRedoes
EndUndoRedoHistory
UndoRedoHistory
Layer: 1
Undoes
EndUndoes
Redoes
EndRedoes
EndUndoRedoHistory
Fore
SplineSet
311 251 m 1,0,-1
 460 251 l 1,1,-1
 388 496 l 1,2,-1
 384 496 l 1,3,-1
 311 251 l 1,0,-1
535 0 m 1,4,-1
 506 97 l 1,5,-1
 265 97 l 1,6,-1
 236 0 l 1,7,-1
 10 0 l 1,8,-1
 261 688 l 1,9,-1
 518 688 l 1,10,-1
 769 0 l 1,11,-1
 535 0 l 1,4,-1
611 885 m 1,12,13
 611 829 611 829 571.5 785.5 c 128,-1,14
 532 742 532 742 471 742 c 0,15,16
 438 742 438 742 381 762 c 128,-1,17
 324 782 324 782 298 782 c 0,18,19
 280 782 280 782 266.5 771 c 128,-1,20
 253 760 253 760 248 742 c 1,21,-1
 167 742 l 1,22,23
 167 798 167 798 207 841.5 c 128,-1,24
 247 885 247 885 307 885 c 0,25,26
 340 885 340 885 397 865 c 128,-1,27
 454 845 454 845 480 845 c 0,28,29
 498 845 498 845 511 856 c 128,-1,30
 524 867 524 867 530 885 c 1,31,-1
 611 885 l 1,12,13
EndSplineSet
EndChar

StartChar: AE
Encoding: 198 198 12
Width: 1000
Flags: MW
LayerCount: 2
UndoRedoHistory
Layer: 0
Undoes
EndUndoes
Redoes
EndRedoes
EndUndoRedoHistory
UndoRedoHistory
Layer: 1
Undoes
EndUndoes
Redoes
EndRedoes
EndUndoRedoHistory
Fore
SplineSet
445 251 m 1,0,-1
 391 496 l 1,1,-1
 387 496 l 1,2,-1
 300 251 l 1,3,-1
 445 251 l 1,0,-1
245 97 m 1,4,-1
 211 0 l 1,5,-1
 -15 0 l 1,6,-1
 276 688 l 1,7,-1
 955 688 l 1,8,-1
 955 523 l 1,9,-1
 590 523 l 1,10,-1
 612 428 l 1,11,-1
 899 428 l 1,12,-1
 899 270 l 1,13,-1
 649 270 l 1,14,-1
 673 165 l 1,15,-1
 962 165 l 1,16,-1
 962 0 l 1,17,-1
 501 0 l 1,18,-1
 479 97 l 1,19,-1
 245 97 l 1,4,-1
EndSplineSet
EndChar

StartChar: AEacute
Encoding: 508 508 13
Width: 1000
Flags: MW
LayerCount: 2
UndoRedoHistory
Layer: 0
Undoes
EndUndoes
Redoes
EndRedoes
EndUndoRedoHistory
UndoRedoHistory
Layer: 1
Undoes
EndUndoes
Redoes
EndRedoes
EndUndoRedoHistory
Fore
SplineSet
445 251 m 1,0,-1
 391 496 l 1,1,-1
 387 496 l 1,2,-1
 300 251 l 1,3,-1
 445 251 l 1,0,-1
245 97 m 1,4,-1
 211 0 l 1,5,-1
 -15 0 l 1,6,-1
 276 688 l 1,7,-1
 955 688 l 1,8,-1
 955 523 l 1,9,-1
 590 523 l 1,10,-1
 612 428 l 1,11,-1
 899 428 l 1,12,-1
 899 270 l 1,13,-1
 649 270 l 1,14,-1
 673 165 l 1,15,-1
 962 165 l 1,16,-1
 962 0 l 1,17,-1
 501 0 l 1,18,-1
 479 97 l 1,19,-1
 245 97 l 1,4,-1
471 752 m 1,20,-1
 563 885 l 1,21,-1
 756 885 l 1,22,-1
 758 881 l 1,23,-1
 598 752 l 1,24,-1
 471 752 l 1,20,-1
EndSplineSet
EndChar

StartChar: B
Encoding: 66 66 14
Width: 777
Flags: MW
LayerCount: 2
UndoRedoHistory
Layer: 0
Undoes
EndUndoes
Redoes
EndRedoes
EndUndoRedoHistory
UndoRedoHistory
Layer: 1
Undoes
EndUndoes
Redoes
EndRedoes
EndUndoRedoHistory
Fore
SplineSet
295 160 m 1,0,-1
 463 160 l 2,1,2
 484 160 484 160 499 175.5 c 128,-1,3
 514 191 514 191 514 214 c 2,4,-1
 514 224 l 2,5,6
 514 246 514 246 499 262 c 128,-1,7
 484 278 484 278 463 278 c 2,8,-1
 295 278 l 1,9,-1
 295 160 l 1,0,-1
295 420 m 1,10,-1
 447 420 l 2,11,12
 468 420 468 420 483 436 c 128,-1,13
 498 452 498 452 498 474 c 2,14,-1
 498 484 l 2,15,16
 498 505 498 505 483 521 c 128,-1,17
 468 537 468 537 447 537 c 2,18,-1
 295 537 l 1,19,-1
 295 420 l 1,10,-1
532 688 m 2,20,21
 611 688 611 688 666.5 640 c 128,-1,22
 722 592 722 592 722 519 c 0,23,24
 722 393 722 393 607 359 c 1,25,-1
 607 355 l 1,26,27
 738 325 738 325 738 183 c 0,28,29
 738 102 738 102 680.5 51 c 128,-1,30
 623 0 623 0 538 0 c 2,31,-1
 74 0 l 1,32,-1
 74 688 l 1,33,-1
 532 688 l 2,20,21
EndSplineSet
EndChar

StartChar: C
Encoding: 67 67 15
Width: 777
Flags: MW
LayerCount: 2
UndoRedoHistory
Layer: 0
Undoes
EndUndoes
Redoes
EndRedoes
EndUndoRedoHistory
UndoRedoHistory
Layer: 1
Undoes
EndUndoes
Redoes
EndRedoes
EndUndoRedoHistory
Fore
SplineSet
733 279 m 1,0,1
 733 138 733 138 646.5 63 c 128,-1,2
 560 -12 560 -12 402 -12 c 0,3,4
 226 -12 226 -12 135.5 78 c 128,-1,5
 45 168 45 168 45 344.5 c 128,-1,6
 45 521 45 521 135.5 610.5 c 128,-1,7
 226 700 226 700 402 700 c 0,8,9
 555 700 555 700 644 623 c 128,-1,10
 733 546 733 546 733 405 c 1,11,-1
 522 405 l 1,12,13
 522 466 522 466 490.5 500.5 c 128,-1,14
 459 535 459 535 401 535 c 0,15,16
 271 535 271 535 271 376 c 2,17,-1
 271 312 l 2,18,19
 271 238 271 238 302.5 195.5 c 128,-1,20
 334 153 334 153 399 153 c 0,21,22
 463 153 463 153 496 186 c 128,-1,23
 529 219 529 219 529 279 c 1,24,-1
 733 279 l 1,0,1
EndSplineSet
EndChar

StartChar: Cacute
Encoding: 262 262 16
Width: 777
Flags: MW
LayerCount: 2
UndoRedoHistory
Layer: 0
Undoes
EndUndoes
Redoes
EndRedoes
EndUndoRedoHistory
UndoRedoHistory
Layer: 1
Undoes
EndUndoes
Redoes
EndRedoes
EndUndoRedoHistory
Fore
SplineSet
733 279 m 1,0,1
 733 138 733 138 646.5 63 c 128,-1,2
 560 -12 560 -12 402 -12 c 0,3,4
 226 -12 226 -12 135.5 78 c 128,-1,5
 45 168 45 168 45 344.5 c 128,-1,6
 45 521 45 521 135.5 610.5 c 128,-1,7
 226 700 226 700 402 700 c 0,8,9
 555 700 555 700 644 623 c 128,-1,10
 733 546 733 546 733 405 c 1,11,-1
 522 405 l 1,12,13
 522 466 522 466 490.5 500.5 c 128,-1,14
 459 535 459 535 401 535 c 0,15,16
 271 535 271 535 271 376 c 2,17,-1
 271 312 l 2,18,19
 271 238 271 238 302.5 195.5 c 128,-1,20
 334 153 334 153 399 153 c 0,21,22
 463 153 463 153 496 186 c 128,-1,23
 529 219 529 219 529 279 c 1,24,-1
 733 279 l 1,0,1
303 752 m 1,25,-1
 396 885 l 1,26,-1
 588 885 l 1,27,-1
 590 881 l 1,28,-1
 431 752 l 1,29,-1
 303 752 l 1,25,-1
EndSplineSet
EndChar

StartChar: Ccaron
Encoding: 268 268 17
Width: 777
Flags: MW
LayerCount: 2
UndoRedoHistory
Layer: 0
Undoes
EndUndoes
Redoes
EndRedoes
EndUndoRedoHistory
UndoRedoHistory
Layer: 1
Undoes
EndUndoes
Redoes
EndRedoes
EndUndoRedoHistory
Fore
SplineSet
733 279 m 1,0,1
 733 138 733 138 646.5 63 c 128,-1,2
 560 -12 560 -12 402 -12 c 0,3,4
 226 -12 226 -12 135.5 78 c 128,-1,5
 45 168 45 168 45 344.5 c 128,-1,6
 45 521 45 521 135.5 610.5 c 128,-1,7
 226 700 226 700 402 700 c 0,8,9
 555 700 555 700 644 623 c 128,-1,10
 733 546 733 546 733 405 c 1,11,-1
 522 405 l 1,12,13
 522 466 522 466 490.5 500.5 c 128,-1,14
 459 535 459 535 401 535 c 0,15,16
 271 535 271 535 271 376 c 2,17,-1
 271 312 l 2,18,19
 271 238 271 238 302.5 195.5 c 128,-1,20
 334 153 334 153 399 153 c 0,21,22
 463 153 463 153 496 186 c 128,-1,23
 529 219 529 219 529 279 c 1,24,-1
 733 279 l 1,0,1
325 740 m 1,25,-1
 186 885 l 1,26,-1
 314 885 l 1,27,-1
 388 808 l 1,28,-1
 462 885 l 1,29,-1
 592 885 l 1,30,-1
 453 740 l 1,31,-1
 325 740 l 1,25,-1
EndSplineSet
EndChar

StartChar: Ccedilla
Encoding: 199 199 18
Width: 777
Flags: MW
LayerCount: 2
UndoRedoHistory
Layer: 0
Undoes
EndUndoes
Redoes
EndRedoes
EndUndoRedoHistory
UndoRedoHistory
Layer: 1
Undoes
EndUndoes
Redoes
EndRedoes
EndUndoRedoHistory
Fore
SplineSet
359 -11 m 1,0,1
 204 0 204 0 124.5 89.5 c 128,-1,2
 45 179 45 179 45 344 c 0,3,4
 45 520 45 520 135.5 610 c 128,-1,5
 226 700 226 700 402 700 c 0,6,7
 555 700 555 700 644 623 c 128,-1,8
 733 546 733 546 733 405 c 1,9,-1
 522 405 l 1,10,11
 522 466 522 466 490.5 500.5 c 128,-1,12
 459 535 459 535 401 535 c 0,13,14
 271 535 271 535 271 376 c 2,15,-1
 271 312 l 2,16,17
 271 238 271 238 302.5 195.5 c 128,-1,18
 334 153 334 153 399 153 c 0,19,20
 463 153 463 153 496 186 c 128,-1,21
 529 219 529 219 529 279 c 1,22,-1
 733 279 l 1,23,24
 733 142 733 142 651.5 67 c 128,-1,25
 570 -8 570 -8 421 -12 c 1,26,-1
 418 -29 l 1,27,28
 460 -33 460 -33 485.5 -54 c 128,-1,29
 511 -75 511 -75 511 -118 c 0,30,31
 511 -145 511 -145 499.5 -164.5 c 128,-1,32
 488 -184 488 -184 469 -193.5 c 128,-1,33
 450 -203 450 -203 431.5 -207 c 128,-1,34
 413 -211 413 -211 393 -211 c 0,35,36
 314 -211 314 -211 267 -195 c 1,37,-1
 267 -141 l 1,38,39
 332 -149 332 -149 384 -149 c 0,40,41
 424 -149 424 -149 424 -118 c 0,42,43
 424 -102 424 -102 415.5 -94 c 128,-1,44
 407 -86 407 -86 386 -86 c 2,45,-1
 348 -86 l 1,46,-1
 359 -11 l 1,0,1
EndSplineSet
EndChar

StartChar: Ccircumflex
Encoding: 264 264 19
Width: 777
Flags: MW
LayerCount: 2
UndoRedoHistory
Layer: 0
Undoes
EndUndoes
Redoes
EndRedoes
EndUndoRedoHistory
UndoRedoHistory
Layer: 1
Undoes
EndUndoes
Redoes
EndRedoes
EndUndoRedoHistory
Fore
SplineSet
733 279 m 1,0,1
 733 138 733 138 646.5 63 c 128,-1,2
 560 -12 560 -12 402 -12 c 0,3,4
 226 -12 226 -12 135.5 78 c 128,-1,5
 45 168 45 168 45 344.5 c 128,-1,6
 45 521 45 521 135.5 610.5 c 128,-1,7
 226 700 226 700 402 700 c 0,8,9
 555 700 555 700 644 623 c 128,-1,10
 733 546 733 546 733 405 c 1,11,-1
 522 405 l 1,12,13
 522 466 522 466 490.5 500.5 c 128,-1,14
 459 535 459 535 401 535 c 0,15,16
 271 535 271 535 271 376 c 2,17,-1
 271 312 l 2,18,19
 271 238 271 238 302.5 195.5 c 128,-1,20
 334 153 334 153 399 153 c 0,21,22
 463 153 463 153 496 186 c 128,-1,23
 529 219 529 219 529 279 c 1,24,-1
 733 279 l 1,0,1
462 740 m 1,25,-1
 388 817 l 1,26,-1
 314 740 l 1,27,-1
 186 740 l 1,28,-1
 325 885 l 1,29,-1
 453 885 l 1,30,-1
 592 740 l 1,31,-1
 462 740 l 1,25,-1
EndSplineSet
EndChar

StartChar: Cdotaccent
Encoding: 266 266 20
Width: 777
Flags: MW
LayerCount: 2
UndoRedoHistory
Layer: 0
Undoes
EndUndoes
Redoes
EndRedoes
EndUndoRedoHistory
UndoRedoHistory
Layer: 1
Undoes
EndUndoes
Redoes
EndRedoes
EndUndoRedoHistory
Fore
SplineSet
733 279 m 1,0,1
 733 138 733 138 646.5 63 c 128,-1,2
 560 -12 560 -12 402 -12 c 0,3,4
 226 -12 226 -12 135.5 78 c 128,-1,5
 45 168 45 168 45 344.5 c 128,-1,6
 45 521 45 521 135.5 610.5 c 128,-1,7
 226 700 226 700 402 700 c 0,8,9
 555 700 555 700 644 623 c 128,-1,10
 733 546 733 546 733 405 c 1,11,-1
 522 405 l 1,12,13
 522 466 522 466 490.5 500.5 c 128,-1,14
 459 535 459 535 401 535 c 0,15,16
 271 535 271 535 271 376 c 2,17,-1
 271 312 l 2,18,19
 271 238 271 238 302.5 195.5 c 128,-1,20
 334 153 334 153 399 153 c 0,21,22
 463 153 463 153 496 186 c 128,-1,23
 529 219 529 219 529 279 c 1,24,-1
 733 279 l 1,0,1
313 746 m 1,25,-1
 313 885 l 1,26,-1
 465 885 l 1,27,-1
 465 746 l 1,28,-1
 313 746 l 1,25,-1
EndSplineSet
EndChar

StartChar: D
Encoding: 68 68 21
Width: 777
Flags: MW
LayerCount: 2
UndoRedoHistory
Layer: 0
Undoes
EndUndoes
Redoes
EndRedoes
EndUndoRedoHistory
UndoRedoHistory
Layer: 1
Undoes
EndUndoes
Redoes
EndRedoes
EndUndoRedoHistory
Fore
SplineSet
295 165 m 1,0,-1
 368 165 l 2,1,2
 507 165 507 165 507 314 c 2,3,-1
 507 374 l 2,4,5
 507 523 507 523 368 523 c 2,6,-1
 295 523 l 1,7,-1
 295 165 l 1,0,-1
372 688 m 2,8,9
 733 688 733 688 733 344 c 0,10,11
 733 0 733 0 372 0 c 2,12,-1
 74 0 l 1,13,-1
 74 688 l 1,14,-1
 372 688 l 2,8,9
EndSplineSet
EndChar

StartChar: Eth
Encoding: 208 208 22
Width: 777
Flags: MW
LayerCount: 2
UndoRedoHistory
Layer: 0
Undoes
EndUndoes
Redoes
EndRedoes
EndUndoRedoHistory
UndoRedoHistory
Layer: 1
Undoes
EndUndoes
Redoes
EndRedoes
EndUndoRedoHistory
Fore
SplineSet
295 165 m 1,0,-1
 368 165 l 2,1,2
 507 165 507 165 507 314 c 2,3,-1
 507 374 l 2,4,5
 507 523 507 523 368 523 c 2,6,-1
 295 523 l 1,7,-1
 295 402 l 1,8,-1
 392 402 l 1,9,-1
 392 304 l 1,10,-1
 295 304 l 1,11,-1
 295 165 l 1,0,-1
74 402 m 1,12,-1
 74 688 l 1,13,-1
 372 688 l 2,14,15
 733 688 733 688 733 344 c 0,16,17
 733 0 733 0 372 0 c 2,18,-1
 74 0 l 1,19,-1
 74 304 l 1,20,-1
 1 304 l 1,21,-1
 1 402 l 1,22,-1
 74 402 l 1,12,-1
EndSplineSet
EndChar

StartChar: Dcaron
Encoding: 270 270 23
Width: 777
Flags: MW
LayerCount: 2
UndoRedoHistory
Layer: 0
Undoes
EndUndoes
Redoes
EndRedoes
EndUndoRedoHistory
UndoRedoHistory
Layer: 1
Undoes
EndUndoes
Redoes
EndRedoes
EndUndoRedoHistory
Fore
SplineSet
295 165 m 1,0,-1
 368 165 l 2,1,2
 507 165 507 165 507 314 c 2,3,-1
 507 374 l 2,4,5
 507 523 507 523 368 523 c 2,6,-1
 295 523 l 1,7,-1
 295 165 l 1,0,-1
372 688 m 2,8,9
 733 688 733 688 733 344 c 0,10,11
 733 0 733 0 372 0 c 2,12,-1
 74 0 l 1,13,-1
 74 688 l 1,14,-1
 372 688 l 2,8,9
289 740 m 1,15,-1
 149 885 l 1,16,-1
 277 885 l 1,17,-1
 352 808 l 1,18,-1
 426 885 l 1,19,-1
 556 885 l 1,20,-1
 417 740 l 1,21,-1
 289 740 l 1,15,-1
EndSplineSet
EndChar

StartChar: Dcroat
Encoding: 272 272 24
Width: 777
Flags: MW
LayerCount: 2
UndoRedoHistory
Layer: 0
Undoes
EndUndoes
Redoes
EndRedoes
EndUndoRedoHistory
UndoRedoHistory
Layer: 1
Undoes
EndUndoes
Redoes
EndRedoes
EndUndoRedoHistory
Fore
SplineSet
295 165 m 1,0,-1
 368 165 l 2,1,2
 507 165 507 165 507 314 c 2,3,-1
 507 374 l 2,4,5
 507 523 507 523 368 523 c 2,6,-1
 295 523 l 1,7,-1
 295 402 l 1,8,-1
 392 402 l 1,9,-1
 392 304 l 1,10,-1
 295 304 l 1,11,-1
 295 165 l 1,0,-1
74 402 m 1,12,-1
 74 688 l 1,13,-1
 372 688 l 2,14,15
 733 688 733 688 733 344 c 0,16,17
 733 0 733 0 372 0 c 2,18,-1
 74 0 l 1,19,-1
 74 304 l 1,20,-1
 1 304 l 1,21,-1
 1 402 l 1,22,-1
 74 402 l 1,12,-1
EndSplineSet
EndChar

StartChar: E
Encoding: 69 69 25
Width: 721
Flags: MW
LayerCount: 2
UndoRedoHistory
Layer: 0
Undoes
EndUndoes
Redoes
EndRedoes
EndUndoRedoHistory
UndoRedoHistory
Layer: 1
Undoes
EndUndoes
Redoes
EndRedoes
EndUndoRedoHistory
Fore
SplineSet
74 688 m 1,0,-1
 669 688 l 1,1,-1
 669 523 l 1,2,-1
 295 523 l 1,3,-1
 295 428 l 1,4,-1
 615 428 l 1,5,-1
 615 270 l 1,6,-1
 295 270 l 1,7,-1
 295 165 l 1,8,-1
 676 165 l 1,9,-1
 676 0 l 1,10,-1
 74 0 l 1,11,-1
 74 688 l 1,0,-1
EndSplineSet
EndChar

StartChar: Eacute
Encoding: 201 201 26
Width: 721
Flags: MW
LayerCount: 2
UndoRedoHistory
Layer: 0
Undoes
EndUndoes
Redoes
EndRedoes
EndUndoRedoHistory
UndoRedoHistory
Layer: 1
Undoes
EndUndoes
Redoes
EndRedoes
EndUndoRedoHistory
Fore
SplineSet
74 688 m 1,0,-1
 669 688 l 1,1,-1
 669 523 l 1,2,-1
 295 523 l 1,3,-1
 295 428 l 1,4,-1
 615 428 l 1,5,-1
 615 270 l 1,6,-1
 295 270 l 1,7,-1
 295 165 l 1,8,-1
 676 165 l 1,9,-1
 676 0 l 1,10,-1
 74 0 l 1,11,-1
 74 688 l 1,0,-1
290 752 m 1,12,-1
 382 885 l 1,13,-1
 575 885 l 1,14,-1
 577 881 l 1,15,-1
 417 752 l 1,16,-1
 290 752 l 1,12,-1
EndSplineSet
EndChar

StartChar: Ebreve
Encoding: 276 276 27
Width: 721
Flags: MW
LayerCount: 2
UndoRedoHistory
Layer: 0
Undoes
EndUndoes
Redoes
EndRedoes
EndUndoRedoHistory
UndoRedoHistory
Layer: 1
Undoes
EndUndoes
Redoes
EndRedoes
EndUndoRedoHistory
Fore
SplineSet
74 688 m 1,0,-1
 669 688 l 1,1,-1
 669 523 l 1,2,-1
 295 523 l 1,3,-1
 295 428 l 1,4,-1
 615 428 l 1,5,-1
 615 270 l 1,6,-1
 295 270 l 1,7,-1
 295 165 l 1,8,-1
 676 165 l 1,9,-1
 676 0 l 1,10,-1
 74 0 l 1,11,-1
 74 688 l 1,0,-1
570 885 m 1,12,13
 570 860 570 860 556.5 834.5 c 128,-1,14
 543 809 543 809 520 788 c 128,-1,15
 497 767 497 767 461.5 754 c 128,-1,16
 426 741 426 741 385 741 c 0,17,18
 303 741 303 741 252 786 c 128,-1,19
 201 831 201 831 201 885 c 1,20,-1
 297 885 l 1,21,22
 300 867 300 867 325.5 851 c 128,-1,23
 351 835 351 835 385 835 c 0,24,25
 420 835 420 835 446 851 c 128,-1,26
 472 867 472 867 475 885 c 1,27,-1
 570 885 l 1,12,13
EndSplineSet
EndChar

StartChar: Ecaron
Encoding: 282 282 28
Width: 721
Flags: MW
LayerCount: 2
UndoRedoHistory
Layer: 0
Undoes
EndUndoes
Redoes
EndRedoes
EndUndoRedoHistory
UndoRedoHistory
Layer: 1
Undoes
EndUndoes
Redoes
EndRedoes
EndUndoRedoHistory
Fore
SplineSet
74 688 m 1,0,-1
 669 688 l 1,1,-1
 669 523 l 1,2,-1
 295 523 l 1,3,-1
 295 428 l 1,4,-1
 615 428 l 1,5,-1
 615 270 l 1,6,-1
 295 270 l 1,7,-1
 295 165 l 1,8,-1
 676 165 l 1,9,-1
 676 0 l 1,10,-1
 74 0 l 1,11,-1
 74 688 l 1,0,-1
322 740 m 1,12,-1
 183 885 l 1,13,-1
 311 885 l 1,14,-1
 385 808 l 1,15,-1
 459 885 l 1,16,-1
 589 885 l 1,17,-1
 450 740 l 1,18,-1
 322 740 l 1,12,-1
EndSplineSet
EndChar

StartChar: Ecircumflex
Encoding: 202 202 29
Width: 721
Flags: MW
LayerCount: 2
UndoRedoHistory
Layer: 0
Undoes
EndUndoes
Redoes
EndRedoes
EndUndoRedoHistory
UndoRedoHistory
Layer: 1
Undoes
EndUndoes
Redoes
EndRedoes
EndUndoRedoHistory
Fore
SplineSet
74 688 m 1,0,-1
 669 688 l 1,1,-1
 669 523 l 1,2,-1
 295 523 l 1,3,-1
 295 428 l 1,4,-1
 615 428 l 1,5,-1
 615 270 l 1,6,-1
 295 270 l 1,7,-1
 295 165 l 1,8,-1
 676 165 l 1,9,-1
 676 0 l 1,10,-1
 74 0 l 1,11,-1
 74 688 l 1,0,-1
459 740 m 1,12,-1
 385 817 l 1,13,-1
 311 740 l 1,14,-1
 183 740 l 1,15,-1
 322 885 l 1,16,-1
 450 885 l 1,17,-1
 589 740 l 1,18,-1
 459 740 l 1,12,-1
EndSplineSet
EndChar

StartChar: Edieresis
Encoding: 203 203 30
Width: 721
Flags: MW
LayerCount: 2
UndoRedoHistory
Layer: 0
Undoes
EndUndoes
Redoes
EndRedoes
EndUndoRedoHistory
UndoRedoHistory
Layer: 1
Undoes
EndUndoes
Redoes
EndRedoes
EndUndoRedoHistory
Fore
SplineSet
74 688 m 1,0,-1
 669 688 l 1,1,-1
 669 523 l 1,2,-1
 295 523 l 1,3,-1
 295 428 l 1,4,-1
 615 428 l 1,5,-1
 615 270 l 1,6,-1
 295 270 l 1,7,-1
 295 165 l 1,8,-1
 676 165 l 1,9,-1
 676 0 l 1,10,-1
 74 0 l 1,11,-1
 74 688 l 1,0,-1
420 746 m 1,12,-1
 420 885 l 1,13,-1
 572 885 l 1,14,-1
 572 746 l 1,15,-1
 420 746 l 1,12,-1
200 746 m 1,16,-1
 200 885 l 1,17,-1
 352 885 l 1,18,-1
 352 746 l 1,19,-1
 200 746 l 1,16,-1
EndSplineSet
EndChar

StartChar: Edotaccent
Encoding: 278 278 31
Width: 721
Flags: MW
LayerCount: 2
UndoRedoHistory
Layer: 0
Undoes
EndUndoes
Redoes
EndRedoes
EndUndoRedoHistory
UndoRedoHistory
Layer: 1
Undoes
EndUndoes
Redoes
EndRedoes
EndUndoRedoHistory
Fore
SplineSet
74 688 m 1,0,-1
 669 688 l 1,1,-1
 669 523 l 1,2,-1
 295 523 l 1,3,-1
 295 428 l 1,4,-1
 615 428 l 1,5,-1
 615 270 l 1,6,-1
 295 270 l 1,7,-1
 295 165 l 1,8,-1
 676 165 l 1,9,-1
 676 0 l 1,10,-1
 74 0 l 1,11,-1
 74 688 l 1,0,-1
310 746 m 1,12,-1
 310 885 l 1,13,-1
 462 885 l 1,14,-1
 462 746 l 1,15,-1
 310 746 l 1,12,-1
EndSplineSet
EndChar

StartChar: Egrave
Encoding: 200 200 32
Width: 721
Flags: MW
LayerCount: 2
UndoRedoHistory
Layer: 0
Undoes
EndUndoes
Redoes
EndRedoes
EndUndoRedoHistory
UndoRedoHistory
Layer: 1
Undoes
EndUndoes
Redoes
EndRedoes
EndUndoRedoHistory
Fore
SplineSet
74 688 m 1,0,-1
 669 688 l 1,1,-1
 669 523 l 1,2,-1
 295 523 l 1,3,-1
 295 428 l 1,4,-1
 615 428 l 1,5,-1
 615 270 l 1,6,-1
 295 270 l 1,7,-1
 295 165 l 1,8,-1
 676 165 l 1,9,-1
 676 0 l 1,10,-1
 74 0 l 1,11,-1
 74 688 l 1,0,-1
195 881 m 1,12,-1
 197 885 l 1,13,-1
 390 885 l 1,14,-1
 482 752 l 1,15,-1
 355 752 l 1,16,-1
 195 881 l 1,12,-1
EndSplineSet
EndChar

StartChar: Emacron
Encoding: 274 274 33
Width: 721
Flags: MW
LayerCount: 2
UndoRedoHistory
Layer: 0
Undoes
EndUndoes
Redoes
EndRedoes
EndUndoRedoHistory
UndoRedoHistory
Layer: 1
Undoes
EndUndoes
Redoes
EndRedoes
EndUndoRedoHistory
Fore
SplineSet
74 688 m 1,0,-1
 669 688 l 1,1,-1
 669 523 l 1,2,-1
 295 523 l 1,3,-1
 295 428 l 1,4,-1
 615 428 l 1,5,-1
 615 270 l 1,6,-1
 295 270 l 1,7,-1
 295 165 l 1,8,-1
 676 165 l 1,9,-1
 676 0 l 1,10,-1
 74 0 l 1,11,-1
 74 688 l 1,0,-1
228 765 m 1,12,-1
 228 865 l 1,13,-1
 544 865 l 1,14,-1
 544 765 l 1,15,-1
 228 765 l 1,12,-1
EndSplineSet
EndChar

StartChar: Eogonek
Encoding: 280 280 34
Width: 721
Flags: MW
LayerCount: 2
UndoRedoHistory
Layer: 0
Undoes
EndUndoes
Redoes
EndRedoes
EndUndoRedoHistory
UndoRedoHistory
Layer: 1
Undoes
EndUndoes
Redoes
EndRedoes
EndUndoRedoHistory
Fore
SplineSet
295 523 m 1,0,-1
 295 428 l 1,1,-1
 615 428 l 1,2,-1
 615 270 l 1,3,-1
 295 270 l 1,4,-1
 295 165 l 1,5,-1
 676 165 l 1,6,-1
 676 0 l 1,7,-1
 627 0 l 1,8,9
 611 -38 611 -38 611 -69 c 0,10,11
 611 -91 611 -91 625.5 -105.5 c 128,-1,12
 640 -120 640 -120 671 -120 c 2,13,-1
 713 -120 l 1,14,-1
 713 -196 l 1,15,16
 665 -211 665 -211 617 -211 c 0,17,18
 592 -211 592 -211 570 -204.5 c 128,-1,19
 548 -198 548 -198 530 -185 c 128,-1,20
 512 -172 512 -172 501.5 -149.5 c 128,-1,21
 491 -127 491 -127 491 -97 c 0,22,23
 491 -49 491 -49 531 0 c 1,24,-1
 74 0 l 1,25,-1
 74 688 l 1,26,-1
 669 688 l 1,27,-1
 669 523 l 1,28,-1
 295 523 l 1,0,-1
EndSplineSet
EndChar

StartChar: F
Encoding: 70 70 35
Width: 666
Flags: MW
LayerCount: 2
UndoRedoHistory
Layer: 0
Undoes
EndUndoes
Redoes
EndRedoes
EndUndoRedoHistory
UndoRedoHistory
Layer: 1
Undoes
EndUndoes
Redoes
EndRedoes
EndUndoRedoHistory
Fore
SplineSet
74 688 m 1,0,-1
 630 688 l 1,1,-1
 630 523 l 1,2,-1
 295 523 l 1,3,-1
 295 405 l 1,4,-1
 583 405 l 1,5,-1
 583 247 l 1,6,-1
 295 247 l 1,7,-1
 295 0 l 1,8,-1
 74 0 l 1,9,-1
 74 688 l 1,0,-1
EndSplineSet
EndChar

StartChar: G
Encoding: 71 71 36
Width: 832
Flags: MW
LayerCount: 2
UndoRedoHistory
Layer: 0
Undoes
EndUndoes
Redoes
EndRedoes
EndUndoRedoHistory
UndoRedoHistory
Layer: 1
Undoes
EndUndoes
Redoes
EndRedoes
EndUndoRedoHistory
Fore
SplineSet
634 68 m 1,0,1
 541 -12 541 -12 388 -12 c 0,2,3
 217 -12 217 -12 131 77.5 c 128,-1,4
 45 167 45 167 45 344 c 0,5,6
 45 518 45 518 142.5 609 c 128,-1,7
 240 700 240 700 420 700 c 0,8,9
 493 700 493 700 556 683.5 c 128,-1,10
 619 667 619 667 667 635 c 128,-1,11
 715 603 715 603 742.5 552.5 c 128,-1,12
 770 502 770 502 770 439 c 1,13,-1
 559 439 l 1,14,15
 559 482 559 482 521 508.5 c 128,-1,16
 483 535 483 535 429 535 c 0,17,18
 351 535 351 535 311 493.5 c 128,-1,19
 271 452 271 452 271 376 c 2,20,-1
 271 312 l 2,21,22
 271 236 271 236 311.5 194.5 c 128,-1,23
 352 153 352 153 429 153 c 0,24,25
 483 153 483 153 521 178.5 c 128,-1,26
 559 204 559 204 559 244 c 1,27,-1
 403 244 l 1,28,-1
 403 384 l 1,29,-1
 770 384 l 1,30,-1
 770 0 l 1,31,-1
 656 0 l 1,32,-1
 634 68 l 1,0,1
EndSplineSet
EndChar

StartChar: Gbreve
Encoding: 286 286 37
Width: 832
Flags: MW
LayerCount: 2
UndoRedoHistory
Layer: 0
Undoes
EndUndoes
Redoes
EndRedoes
EndUndoRedoHistory
UndoRedoHistory
Layer: 1
Undoes
EndUndoes
Redoes
EndRedoes
EndUndoRedoHistory
Fore
SplineSet
634 68 m 1,0,1
 541 -12 541 -12 388 -12 c 0,2,3
 217 -12 217 -12 131 77.5 c 128,-1,4
 45 167 45 167 45 344 c 0,5,6
 45 518 45 518 142.5 609 c 128,-1,7
 240 700 240 700 420 700 c 0,8,9
 493 700 493 700 556 683.5 c 128,-1,10
 619 667 619 667 667 635 c 128,-1,11
 715 603 715 603 742.5 552.5 c 128,-1,12
 770 502 770 502 770 439 c 1,13,-1
 559 439 l 1,14,15
 559 482 559 482 521 508.5 c 128,-1,16
 483 535 483 535 429 535 c 0,17,18
 351 535 351 535 311 493.5 c 128,-1,19
 271 452 271 452 271 376 c 2,20,-1
 271 312 l 2,21,22
 271 236 271 236 311.5 194.5 c 128,-1,23
 352 153 352 153 429 153 c 0,24,25
 483 153 483 153 521 178.5 c 128,-1,26
 559 204 559 204 559 244 c 1,27,-1
 403 244 l 1,28,-1
 403 384 l 1,29,-1
 770 384 l 1,30,-1
 770 0 l 1,31,-1
 656 0 l 1,32,-1
 634 68 l 1,0,1
601 885 m 1,33,34
 601 860 601 860 588 834.5 c 128,-1,35
 575 809 575 809 551.5 788 c 128,-1,36
 528 767 528 767 492.5 754 c 128,-1,37
 457 741 457 741 416 741 c 0,38,39
 334 741 334 741 283 786 c 128,-1,40
 232 831 232 831 232 885 c 1,41,-1
 328 885 l 1,42,43
 331 867 331 867 356.5 851 c 128,-1,44
 382 835 382 835 416 835 c 0,45,46
 451 835 451 835 476.5 851 c 128,-1,47
 502 867 502 867 506 885 c 1,48,-1
 601 885 l 1,33,34
EndSplineSet
EndChar

StartChar: Gcircumflex
Encoding: 284 284 38
Width: 832
Flags: MW
LayerCount: 2
UndoRedoHistory
Layer: 0
Undoes
EndUndoes
Redoes
EndRedoes
EndUndoRedoHistory
UndoRedoHistory
Layer: 1
Undoes
EndUndoes
Redoes
EndRedoes
EndUndoRedoHistory
Fore
SplineSet
634 68 m 1,0,1
 541 -12 541 -12 388 -12 c 0,2,3
 217 -12 217 -12 131 77.5 c 128,-1,4
 45 167 45 167 45 344 c 0,5,6
 45 518 45 518 142.5 609 c 128,-1,7
 240 700 240 700 420 700 c 0,8,9
 493 700 493 700 556 683.5 c 128,-1,10
 619 667 619 667 667 635 c 128,-1,11
 715 603 715 603 742.5 552.5 c 128,-1,12
 770 502 770 502 770 439 c 1,13,-1
 559 439 l 1,14,15
 559 482 559 482 521 508.5 c 128,-1,16
 483 535 483 535 429 535 c 0,17,18
 351 535 351 535 311 493.5 c 128,-1,19
 271 452 271 452 271 376 c 2,20,-1
 271 312 l 2,21,22
 271 236 271 236 311.5 194.5 c 128,-1,23
 352 153 352 153 429 153 c 0,24,25
 483 153 483 153 521 178.5 c 128,-1,26
 559 204 559 204 559 244 c 1,27,-1
 403 244 l 1,28,-1
 403 384 l 1,29,-1
 770 384 l 1,30,-1
 770 0 l 1,31,-1
 656 0 l 1,32,-1
 634 68 l 1,0,1
490 740 m 1,33,-1
 416 817 l 1,34,-1
 341 740 l 1,35,-1
 213 740 l 1,36,-1
 353 885 l 1,37,-1
 480 885 l 1,38,-1
 620 740 l 1,39,-1
 490 740 l 1,33,-1
EndSplineSet
EndChar

StartChar: Gcommaaccent
Encoding: 290 290 39
Width: 832
Flags: MW
LayerCount: 2
UndoRedoHistory
Layer: 0
Undoes
EndUndoes
Redoes
EndRedoes
EndUndoRedoHistory
UndoRedoHistory
Layer: 1
Undoes
EndUndoes
Redoes
EndRedoes
EndUndoRedoHistory
Fore
SplineSet
427 -267 m 1,0,-1
 360 -267 l 1,1,-1
 401 -175 l 1,2,-1
 352 -175 l 1,3,-1
 352 -59 l 1,4,-1
 481 -59 l 1,5,-1
 481 -168 l 1,6,-1
 427 -267 l 1,0,-1
634 68 m 1,7,8
 541 -12 541 -12 388 -12 c 0,9,10
 217 -12 217 -12 131 77.5 c 128,-1,11
 45 167 45 167 45 344 c 0,12,13
 45 518 45 518 142.5 609 c 128,-1,14
 240 700 240 700 420 700 c 0,15,16
 493 700 493 700 556 683.5 c 128,-1,17
 619 667 619 667 667 635 c 128,-1,18
 715 603 715 603 742.5 552.5 c 128,-1,19
 770 502 770 502 770 439 c 1,20,-1
 559 439 l 1,21,22
 559 482 559 482 521 508.5 c 128,-1,23
 483 535 483 535 429 535 c 0,24,25
 351 535 351 535 311 493.5 c 128,-1,26
 271 452 271 452 271 376 c 2,27,-1
 271 312 l 2,28,29
 271 236 271 236 311.5 194.5 c 128,-1,30
 352 153 352 153 429 153 c 0,31,32
 483 153 483 153 521 178.5 c 128,-1,33
 559 204 559 204 559 244 c 1,34,-1
 403 244 l 1,35,-1
 403 384 l 1,36,-1
 770 384 l 1,37,-1
 770 0 l 1,38,-1
 656 0 l 1,39,-1
 634 68 l 1,7,8
EndSplineSet
EndChar

StartChar: Gdotaccent
Encoding: 288 288 40
Width: 832
Flags: MW
LayerCount: 2
UndoRedoHistory
Layer: 0
Undoes
EndUndoes
Redoes
EndRedoes
EndUndoRedoHistory
UndoRedoHistory
Layer: 1
Undoes
EndUndoes
Redoes
EndRedoes
EndUndoRedoHistory
Fore
SplineSet
634 68 m 1,0,1
 541 -12 541 -12 388 -12 c 0,2,3
 217 -12 217 -12 131 77.5 c 128,-1,4
 45 167 45 167 45 344 c 0,5,6
 45 518 45 518 142.5 609 c 128,-1,7
 240 700 240 700 420 700 c 0,8,9
 493 700 493 700 556 683.5 c 128,-1,10
 619 667 619 667 667 635 c 128,-1,11
 715 603 715 603 742.5 552.5 c 128,-1,12
 770 502 770 502 770 439 c 1,13,-1
 559 439 l 1,14,15
 559 482 559 482 521 508.5 c 128,-1,16
 483 535 483 535 429 535 c 0,17,18
 351 535 351 535 311 493.5 c 128,-1,19
 271 452 271 452 271 376 c 2,20,-1
 271 312 l 2,21,22
 271 236 271 236 311.5 194.5 c 128,-1,23
 352 153 352 153 429 153 c 0,24,25
 483 153 483 153 521 178.5 c 128,-1,26
 559 204 559 204 559 244 c 1,27,-1
 403 244 l 1,28,-1
 403 384 l 1,29,-1
 770 384 l 1,30,-1
 770 0 l 1,31,-1
 656 0 l 1,32,-1
 634 68 l 1,0,1
340 746 m 1,33,-1
 340 885 l 1,34,-1
 493 885 l 1,35,-1
 493 746 l 1,36,-1
 340 746 l 1,33,-1
EndSplineSet
EndChar

StartChar: H
Encoding: 72 72 41
Width: 832
Flags: MW
LayerCount: 2
UndoRedoHistory
Layer: 0
Undoes
EndUndoes
Redoes
EndRedoes
EndUndoRedoHistory
UndoRedoHistory
Layer: 1
Undoes
EndUndoes
Redoes
EndRedoes
EndUndoRedoHistory
Fore
SplineSet
538 0 m 1,0,-1
 538 261 l 1,1,-1
 295 261 l 1,2,-1
 295 0 l 1,3,-1
 74 0 l 1,4,-1
 74 688 l 1,5,-1
 295 688 l 1,6,-1
 295 437 l 1,7,-1
 538 437 l 1,8,-1
 538 688 l 1,9,-1
 759 688 l 1,10,-1
 759 0 l 1,11,-1
 538 0 l 1,0,-1
EndSplineSet
EndChar

StartChar: Hbar
Encoding: 294 294 42
Width: 832
Flags: MW
LayerCount: 2
UndoRedoHistory
Layer: 0
Undoes
EndUndoes
Redoes
EndRedoes
EndUndoRedoHistory
UndoRedoHistory
Layer: 1
Undoes
EndUndoes
Redoes
EndRedoes
EndUndoRedoHistory
Fore
SplineSet
538 502 m 1,0,-1
 295 502 l 1,1,-1
 295 427 l 1,2,-1
 538 427 l 1,3,-1
 538 502 l 1,0,-1
759 0 m 1,4,-1
 538 0 l 1,5,-1
 538 251 l 1,6,-1
 295 251 l 1,7,-1
 295 0 l 1,8,-1
 74 0 l 1,9,-1
 74 502 l 1,10,-1
 1 502 l 1,11,-1
 1 600 l 1,12,-1
 74 600 l 1,13,-1
 74 688 l 1,14,-1
 295 688 l 1,15,-1
 295 600 l 1,16,-1
 538 600 l 1,17,-1
 538 688 l 1,18,-1
 759 688 l 1,19,-1
 759 600 l 1,20,-1
 831 600 l 1,21,-1
 831 502 l 1,22,-1
 759 502 l 1,23,-1
 759 0 l 1,4,-1
EndSplineSet
EndChar

StartChar: Hcircumflex
Encoding: 292 292 43
Width: 832
Flags: MW
LayerCount: 2
UndoRedoHistory
Layer: 0
Undoes
EndUndoes
Redoes
EndRedoes
EndUndoRedoHistory
UndoRedoHistory
Layer: 1
Undoes
EndUndoes
Redoes
EndRedoes
EndUndoRedoHistory
Fore
SplineSet
538 0 m 1,0,-1
 538 261 l 1,1,-1
 295 261 l 1,2,-1
 295 0 l 1,3,-1
 74 0 l 1,4,-1
 74 688 l 1,5,-1
 295 688 l 1,6,-1
 295 437 l 1,7,-1
 538 437 l 1,8,-1
 538 688 l 1,9,-1
 759 688 l 1,10,-1
 759 0 l 1,11,-1
 538 0 l 1,0,-1
490 740 m 1,12,-1
 416 817 l 1,13,-1
 341 740 l 1,14,-1
 213 740 l 1,15,-1
 353 885 l 1,16,-1
 480 885 l 1,17,-1
 620 740 l 1,18,-1
 490 740 l 1,12,-1
EndSplineSet
EndChar

StartChar: I
Encoding: 73 73 44
Width: 388
Flags: MW
LayerCount: 2
UndoRedoHistory
Layer: 0
Undoes
EndUndoes
Redoes
EndRedoes
EndUndoRedoHistory
UndoRedoHistory
Layer: 1
Undoes
EndUndoes
Redoes
EndRedoes
EndUndoRedoHistory
Fore
SplineSet
84 0 m 1,0,-1
 84 688 l 1,1,-1
 305 688 l 1,2,-1
 305 0 l 1,3,-1
 84 0 l 1,0,-1
EndSplineSet
EndChar

StartChar: IJ
Encoding: 306 306 45
Width: 1027
Flags: MW
LayerCount: 2
UndoRedoHistory
Layer: 0
Undoes
EndUndoes
Redoes
EndRedoes
EndUndoRedoHistory
UndoRedoHistory
Layer: 1
Undoes
EndUndoes
Redoes
EndRedoes
EndUndoRedoHistory
Fore
SplineSet
954 239 m 2,0,1
 954 111 954 111 880.5 49.5 c 128,-1,2
 807 -12 807 -12 669 -12 c 128,-1,3
 531 -12 531 -12 457.5 49 c 128,-1,4
 384 110 384 110 384 239 c 2,5,-1
 384 248 l 1,6,-1
 591 248 l 1,7,-1
 591 240 l 2,8,9
 591 193 591 193 608.5 173 c 128,-1,10
 626 153 626 153 662 153 c 128,-1,11
 698 153 698 153 715.5 173 c 128,-1,12
 733 193 733 193 733 240 c 2,13,-1
 733 688 l 1,14,-1
 954 688 l 1,15,-1
 954 239 l 2,0,1
84 0 m 1,16,-1
 84 688 l 1,17,-1
 305 688 l 1,18,-1
 305 0 l 1,19,-1
 84 0 l 1,16,-1
EndSplineSet
EndChar

StartChar: Iacute
Encoding: 205 205 46
Width: 388
Flags: MW
LayerCount: 2
UndoRedoHistory
Layer: 0
Undoes
EndUndoes
Redoes
EndRedoes
EndUndoRedoHistory
UndoRedoHistory
Layer: 1
Undoes
EndUndoes
Redoes
EndRedoes
EndUndoRedoHistory
Fore
SplineSet
84 688 m 1,0,-1
 305 688 l 1,1,-1
 305 0 l 1,2,-1
 84 0 l 1,3,-1
 84 688 l 1,0,-1
99 752 m 1,4,-1
 191 885 l 1,5,-1
 384 885 l 1,6,-1
 386 881 l 1,7,-1
 226 752 l 1,8,-1
 99 752 l 1,4,-1
EndSplineSet
EndChar

StartChar: Ibreve
Encoding: 300 300 47
Width: 388
Flags: MW
LayerCount: 2
UndoRedoHistory
Layer: 0
Undoes
EndUndoes
Redoes
EndRedoes
EndUndoRedoHistory
UndoRedoHistory
Layer: 1
Undoes
EndUndoes
Redoes
EndRedoes
EndUndoRedoHistory
Fore
SplineSet
84 0 m 1,0,-1
 84 688 l 1,1,-1
 305 688 l 1,2,-1
 305 0 l 1,3,-1
 84 0 l 1,0,-1
379 885 m 1,4,5
 379 860 379 860 366 834.5 c 128,-1,6
 353 809 353 809 329.5 788 c 128,-1,7
 306 767 306 767 270.5 754 c 128,-1,8
 235 741 235 741 194 741 c 0,9,10
 112 741 112 741 61 786 c 128,-1,11
 10 831 10 831 10 885 c 1,12,-1
 106 885 l 1,13,14
 109 867 109 867 134.5 851 c 128,-1,15
 160 835 160 835 194 835 c 0,16,17
 229 835 229 835 255 851 c 128,-1,18
 281 867 281 867 284 885 c 1,19,-1
 379 885 l 1,4,5
EndSplineSet
EndChar

StartChar: Icircumflex
Encoding: 206 206 48
Width: 388
Flags: MW
LayerCount: 2
UndoRedoHistory
Layer: 0
Undoes
EndUndoes
Redoes
EndRedoes
EndUndoRedoHistory
UndoRedoHistory
Layer: 1
Undoes
EndUndoes
Redoes
EndRedoes
EndUndoRedoHistory
Fore
SplineSet
84 0 m 1,0,-1
 84 688 l 1,1,-1
 305 688 l 1,2,-1
 305 0 l 1,3,-1
 84 0 l 1,0,-1
268 740 m 1,4,-1
 194 817 l 1,5,-1
 120 740 l 1,6,-1
 -8 740 l 1,7,-1
 131 885 l 1,8,-1
 259 885 l 1,9,-1
 398 740 l 1,10,-1
 268 740 l 1,4,-1
EndSplineSet
EndChar

StartChar: Idieresis
Encoding: 207 207 49
Width: 388
Flags: MW
LayerCount: 2
UndoRedoHistory
Layer: 0
Undoes
EndUndoes
Redoes
EndRedoes
EndUndoRedoHistory
UndoRedoHistory
Layer: 1
Undoes
EndUndoes
Redoes
EndRedoes
EndUndoRedoHistory
Fore
SplineSet
84 0 m 1,0,-1
 84 688 l 1,1,-1
 305 688 l 1,2,-1
 305 0 l 1,3,-1
 84 0 l 1,0,-1
229 746 m 1,4,-1
 229 885 l 1,5,-1
 381 885 l 1,6,-1
 381 746 l 1,7,-1
 229 746 l 1,4,-1
9 746 m 1,8,-1
 9 885 l 1,9,-1
 161 885 l 1,10,-1
 161 746 l 1,11,-1
 9 746 l 1,8,-1
EndSplineSet
EndChar

StartChar: Idotaccent
Encoding: 304 304 50
Width: 388
Flags: MW
LayerCount: 2
UndoRedoHistory
Layer: 0
Undoes
EndUndoes
Redoes
EndRedoes
EndUndoRedoHistory
UndoRedoHistory
Layer: 1
Undoes
EndUndoes
Redoes
EndRedoes
EndUndoRedoHistory
Fore
SplineSet
84 0 m 1,0,-1
 84 688 l 1,1,-1
 305 688 l 1,2,-1
 305 0 l 1,3,-1
 84 0 l 1,0,-1
119 746 m 1,4,-1
 119 885 l 1,5,-1
 271 885 l 1,6,-1
 271 746 l 1,7,-1
 119 746 l 1,4,-1
EndSplineSet
EndChar

StartChar: Igrave
Encoding: 204 204 51
Width: 388
Flags: MW
LayerCount: 2
UndoRedoHistory
Layer: 0
Undoes
EndUndoes
Redoes
EndRedoes
EndUndoRedoHistory
UndoRedoHistory
Layer: 1
Undoes
EndUndoes
Redoes
EndRedoes
EndUndoRedoHistory
Fore
SplineSet
84 688 m 1,0,-1
 305 688 l 1,1,-1
 305 0 l 1,2,-1
 84 0 l 1,3,-1
 84 688 l 1,0,-1
4 881 m 1,4,-1
 6 885 l 1,5,-1
 199 885 l 1,6,-1
 291 752 l 1,7,-1
 164 752 l 1,8,-1
 4 881 l 1,4,-1
EndSplineSet
EndChar

StartChar: Imacron
Encoding: 298 298 52
Width: 388
Flags: MW
LayerCount: 2
UndoRedoHistory
Layer: 0
Undoes
EndUndoes
Redoes
EndRedoes
EndUndoRedoHistory
UndoRedoHistory
Layer: 1
Undoes
EndUndoes
Redoes
EndRedoes
EndUndoRedoHistory
Fore
SplineSet
84 0 m 1,0,-1
 84 688 l 1,1,-1
 305 688 l 1,2,-1
 305 0 l 1,3,-1
 84 0 l 1,0,-1
37 765 m 1,4,-1
 37 865 l 1,5,-1
 353 865 l 1,6,-1
 353 765 l 1,7,-1
 37 765 l 1,4,-1
EndSplineSet
EndChar

StartChar: Iogonek
Encoding: 302 302 53
Width: 388
Flags: MW
LayerCount: 2
UndoRedoHistory
Layer: 0
Undoes
EndUndoes
Redoes
EndRedoes
EndUndoRedoHistory
UndoRedoHistory
Layer: 1
Undoes
EndUndoes
Redoes
EndRedoes
EndUndoRedoHistory
Fore
SplineSet
299 0 m 1,0,1
 283 -37 283 -37 283 -69 c 0,2,3
 283 -91 283 -91 297.5 -105.5 c 128,-1,4
 312 -120 312 -120 343 -120 c 2,5,-1
 385 -120 l 1,6,-1
 385 -196 l 1,7,8
 337 -211 337 -211 289 -211 c 0,9,10
 264 -211 264 -211 242 -204.5 c 128,-1,11
 220 -198 220 -198 202 -185 c 128,-1,12
 184 -172 184 -172 173.5 -149.5 c 128,-1,13
 163 -127 163 -127 163 -97 c 0,14,15
 163 -50 163 -50 203 0 c 1,16,-1
 84 0 l 1,17,-1
 84 688 l 1,18,-1
 305 688 l 1,19,-1
 305 0 l 1,20,-1
 299 0 l 1,0,1
EndSplineSet
EndChar

StartChar: Itilde
Encoding: 296 296 54
Width: 388
Flags: MW
LayerCount: 2
UndoRedoHistory
Layer: 0
Undoes
EndUndoes
Redoes
EndRedoes
EndUndoRedoHistory
UndoRedoHistory
Layer: 1
Undoes
EndUndoes
Redoes
EndRedoes
EndUndoRedoHistory
Fore
SplineSet
84 0 m 1,0,-1
 84 688 l 1,1,-1
 305 688 l 1,2,-1
 305 0 l 1,3,-1
 84 0 l 1,0,-1
417 885 m 1,4,5
 417 829 417 829 377 785.5 c 128,-1,6
 337 742 337 742 277 742 c 0,7,8
 244 742 244 742 187 762 c 128,-1,9
 130 782 130 782 104 782 c 0,10,11
 86 782 86 782 73 771 c 128,-1,12
 60 760 60 760 54 742 c 1,13,-1
 -27 742 l 1,14,15
 -27 798 -27 798 12.5 841.5 c 128,-1,16
 52 885 52 885 113 885 c 0,17,18
 146 885 146 885 203 865 c 128,-1,19
 260 845 260 845 286 845 c 0,20,21
 304 845 304 845 317.5 856 c 128,-1,22
 331 867 331 867 336 885 c 1,23,-1
 417 885 l 1,4,5
EndSplineSet
EndChar

StartChar: J
Encoding: 74 74 55
Width: 666
Flags: MW
LayerCount: 2
UndoRedoHistory
Layer: 0
Undoes
EndUndoes
Redoes
EndRedoes
EndUndoRedoHistory
UndoRedoHistory
Layer: 1
Undoes
EndUndoes
Redoes
EndRedoes
EndUndoRedoHistory
Fore
SplineSet
593 239 m 2,0,1
 593 -12 593 -12 308 -12 c 0,2,3
 170 -12 170 -12 96.5 49 c 128,-1,4
 23 110 23 110 23 239 c 2,5,-1
 23 248 l 1,6,-1
 230 248 l 1,7,-1
 230 240 l 2,8,9
 230 193 230 193 247.5 173 c 128,-1,10
 265 153 265 153 301 153 c 128,-1,11
 337 153 337 153 354.5 173 c 128,-1,12
 372 193 372 193 372 240 c 2,13,-1
 372 688 l 1,14,-1
 593 688 l 1,15,-1
 593 239 l 2,0,1
EndSplineSet
EndChar

StartChar: Jcircumflex
Encoding: 308 308 56
Width: 666
Flags: MW
LayerCount: 2
UndoRedoHistory
Layer: 0
Undoes
EndUndoes
Redoes
EndRedoes
EndUndoRedoHistory
UndoRedoHistory
Layer: 1
Undoes
EndUndoes
Redoes
EndRedoes
EndUndoRedoHistory
Fore
SplineSet
593 239 m 2,0,1
 593 -12 593 -12 308 -12 c 0,2,3
 170 -12 170 -12 96.5 49 c 128,-1,4
 23 110 23 110 23 239 c 2,5,-1
 23 248 l 1,6,-1
 230 248 l 1,7,-1
 230 240 l 2,8,9
 230 193 230 193 247.5 173 c 128,-1,10
 265 153 265 153 301 153 c 128,-1,11
 337 153 337 153 354.5 173 c 128,-1,12
 372 193 372 193 372 240 c 2,13,-1
 372 688 l 1,14,-1
 593 688 l 1,15,-1
 593 239 l 2,0,1
545 740 m 1,16,-1
 471 817 l 1,17,-1
 396 740 l 1,18,-1
 269 740 l 1,19,-1
 408 885 l 1,20,-1
 536 885 l 1,21,-1
 675 740 l 1,22,-1
 545 740 l 1,16,-1
EndSplineSet
EndChar

StartChar: K
Encoding: 75 75 57
Width: 832
Flags: MW
LayerCount: 2
UndoRedoHistory
Layer: 0
Undoes
EndUndoes
Redoes
EndRedoes
EndUndoRedoHistory
UndoRedoHistory
Layer: 1
Undoes
EndUndoes
Redoes
EndRedoes
EndUndoRedoHistory
Fore
SplineSet
540 688 m 1,0,-1
 814 688 l 1,1,-1
 567 405 l 1,2,-1
 819 0 l 1,3,-1
 558 0 l 1,4,-1
 415 252 l 1,5,-1
 295 154 l 1,6,-1
 295 0 l 1,7,-1
 74 0 l 1,8,-1
 74 688 l 1,9,-1
 295 688 l 1,10,-1
 295 394 l 1,11,-1
 540 688 l 1,0,-1
EndSplineSet
EndChar

StartChar: Kcommaaccent
Encoding: 310 310 58
Width: 832
Flags: MW
LayerCount: 2
UndoRedoHistory
Layer: 0
Undoes
EndUndoes
Redoes
EndRedoes
EndUndoRedoHistory
UndoRedoHistory
Layer: 1
Undoes
EndUndoes
Redoes
EndRedoes
EndUndoRedoHistory
Fore
SplineSet
427 -267 m 1,0,-1
 360 -267 l 1,1,-1
 401 -175 l 1,2,-1
 352 -175 l 1,3,-1
 352 -59 l 1,4,-1
 481 -59 l 1,5,-1
 481 -168 l 1,6,-1
 427 -267 l 1,0,-1
540 688 m 1,7,-1
 814 688 l 1,8,-1
 567 405 l 1,9,-1
 819 0 l 1,10,-1
 558 0 l 1,11,-1
 415 252 l 1,12,-1
 295 154 l 1,13,-1
 295 0 l 1,14,-1
 74 0 l 1,15,-1
 74 688 l 1,16,-1
 295 688 l 1,17,-1
 295 394 l 1,18,-1
 540 688 l 1,7,-1
EndSplineSet
EndChar

StartChar: L
Encoding: 76 76 59
Width: 666
Flags: MW
LayerCount: 2
UndoRedoHistory
Layer: 0
Undoes
EndUndoes
Redoes
EndRedoes
EndUndoRedoHistory
UndoRedoHistory
Layer: 1
Undoes
EndUndoes
Redoes
EndRedoes
EndUndoRedoHistory
Fore
SplineSet
74 688 m 1,0,-1
 295 688 l 1,1,-1
 295 176 l 1,2,-1
 648 176 l 1,3,-1
 648 0 l 1,4,-1
 74 0 l 1,5,-1
 74 688 l 1,0,-1
EndSplineSet
EndChar

StartChar: Lacute
Encoding: 313 313 60
Width: 666
Flags: MW
LayerCount: 2
UndoRedoHistory
Layer: 0
Undoes
EndUndoes
Redoes
EndRedoes
EndUndoRedoHistory
UndoRedoHistory
Layer: 1
Undoes
EndUndoes
Redoes
EndRedoes
EndUndoRedoHistory
Fore
SplineSet
74 688 m 1,0,-1
 295 688 l 1,1,-1
 295 176 l 1,2,-1
 648 176 l 1,3,-1
 648 0 l 1,4,-1
 74 0 l 1,5,-1
 74 688 l 1,0,-1
88 752 m 1,6,-1
 180 885 l 1,7,-1
 373 885 l 1,8,-1
 375 881 l 1,9,-1
 215 752 l 1,10,-1
 88 752 l 1,6,-1
EndSplineSet
EndChar

StartChar: Lcaron
Encoding: 317 317 61
Width: 666
Flags: MW
LayerCount: 2
UndoRedoHistory
Layer: 0
Undoes
EndUndoes
Redoes
EndRedoes
EndUndoRedoHistory
UndoRedoHistory
Layer: 1
Undoes
EndUndoes
Redoes
EndRedoes
EndUndoRedoHistory
Fore
SplineSet
571 480 m 1,0,-1
 504 480 l 1,1,-1
 545 572 l 1,2,-1
 496 572 l 1,3,-1
 496 688 l 1,4,-1
 625 688 l 1,5,-1
 625 579 l 1,6,-1
 571 480 l 1,0,-1
74 688 m 1,7,-1
 295 688 l 1,8,-1
 295 176 l 1,9,-1
 648 176 l 1,10,-1
 648 0 l 1,11,-1
 74 0 l 1,12,-1
 74 688 l 1,7,-1
EndSplineSet
EndChar

StartChar: Lcommaaccent
Encoding: 315 315 62
Width: 666
Flags: MW
LayerCount: 2
UndoRedoHistory
Layer: 0
Undoes
EndUndoes
Redoes
EndRedoes
EndUndoRedoHistory
UndoRedoHistory
Layer: 1
Undoes
EndUndoes
Redoes
EndRedoes
EndUndoRedoHistory
Fore
SplineSet
344 -267 m 1,0,-1
 277 -267 l 1,1,-1
 318 -175 l 1,2,-1
 269 -175 l 1,3,-1
 269 -59 l 1,4,-1
 398 -59 l 1,5,-1
 398 -168 l 1,6,-1
 344 -267 l 1,0,-1
74 688 m 1,7,-1
 295 688 l 1,8,-1
 295 176 l 1,9,-1
 648 176 l 1,10,-1
 648 0 l 1,11,-1
 74 0 l 1,12,-1
 74 688 l 1,7,-1
EndSplineSet
EndChar

StartChar: Ldot
Encoding: 319 319 63
Width: 666
Flags: MW
LayerCount: 2
UndoRedoHistory
Layer: 0
Undoes
EndUndoes
Redoes
EndRedoes
EndUndoRedoHistory
UndoRedoHistory
Layer: 1
Undoes
EndUndoes
Redoes
EndRedoes
EndUndoRedoHistory
Fore
SplineSet
388 343 m 1,0,-1
 388 526 l 1,1,-1
 580 526 l 1,2,-1
 580 343 l 1,3,-1
 388 343 l 1,0,-1
74 688 m 1,4,-1
 295 688 l 1,5,-1
 295 176 l 1,6,-1
 648 176 l 1,7,-1
 648 0 l 1,8,-1
 74 0 l 1,9,-1
 74 688 l 1,4,-1
EndSplineSet
EndChar

StartChar: Lslash
Encoding: 321 321 64
Width: 666
Flags: MW
LayerCount: 2
UndoRedoHistory
Layer: 0
Undoes
EndUndoes
Redoes
EndRedoes
EndUndoRedoHistory
UndoRedoHistory
Layer: 1
Undoes
EndUndoes
Redoes
EndRedoes
EndUndoRedoHistory
Fore
SplineSet
444 556 m 1,0,-1
 444 456 l 1,1,-1
 295 364 l 1,2,-1
 295 176 l 1,3,-1
 648 176 l 1,4,-1
 648 0 l 1,5,-1
 74 0 l 1,6,-1
 74 229 l 1,7,-1
 0 184 l 1,8,-1
 0 282 l 1,9,-1
 74 328 l 1,10,-1
 74 688 l 1,11,-1
 295 688 l 1,12,-1
 295 463 l 1,13,-1
 444 556 l 1,0,-1
EndSplineSet
EndChar

StartChar: M
Encoding: 77 77 65
Width: 943
Flags: MW
LayerCount: 2
UndoRedoHistory
Layer: 0
Undoes
EndUndoes
Redoes
EndRedoes
EndUndoRedoHistory
UndoRedoHistory
Layer: 1
Undoes
EndUndoes
Redoes
EndRedoes
EndUndoRedoHistory
Fore
SplineSet
665 0 m 1,0,-1
 665 248 l 2,1,2
 665 294 665 294 669 348.5 c 128,-1,3
 673 403 673 403 677 435 c 2,4,-1
 681 466 l 1,5,-1
 677 466 l 1,6,-1
 550 0 l 1,7,-1
 377 0 l 1,8,-1
 249 465 l 1,9,-1
 245 465 l 1,10,11
 263 352 263 352 263 248 c 2,12,-1
 263 0 l 1,13,-1
 60 0 l 1,14,-1
 60 688 l 1,15,-1
 372 688 l 1,16,-1
 476 291 l 1,17,-1
 480 291 l 1,18,-1
 583 688 l 1,19,-1
 884 688 l 1,20,-1
 884 0 l 1,21,-1
 665 0 l 1,0,-1
EndSplineSet
EndChar

StartChar: N
Encoding: 78 78 66
Width: 832
Flags: MW
LayerCount: 2
UndoRedoHistory
Layer: 0
Undoes
EndUndoes
Redoes
EndRedoes
EndUndoRedoHistory
UndoRedoHistory
Layer: 1
Undoes
EndUndoes
Redoes
EndRedoes
EndUndoRedoHistory
Fore
SplineSet
566 0 m 1,0,-1
 277 334 l 1,1,-1
 277 0 l 1,2,-1
 74 0 l 1,3,-1
 74 688 l 1,4,-1
 267 688 l 1,5,-1
 556 349 l 1,6,-1
 556 688 l 1,7,-1
 759 688 l 1,8,-1
 759 0 l 1,9,-1
 566 0 l 1,0,-1
EndSplineSet
EndChar

StartChar: Nacute
Encoding: 323 323 67
Width: 832
Flags: MW
LayerCount: 2
UndoRedoHistory
Layer: 0
Undoes
EndUndoes
Redoes
EndRedoes
EndUndoRedoHistory
UndoRedoHistory
Layer: 1
Undoes
EndUndoes
Redoes
EndRedoes
EndUndoRedoHistory
Fore
SplineSet
277 334 m 1,0,-1
 277 0 l 1,1,-1
 74 0 l 1,2,-1
 74 688 l 1,3,-1
 267 688 l 1,4,-1
 556 349 l 1,5,-1
 556 688 l 1,6,-1
 759 688 l 1,7,-1
 759 0 l 1,8,-1
 566 0 l 1,9,-1
 277 334 l 1,0,-1
320 752 m 1,10,-1
 413 885 l 1,11,-1
 605 885 l 1,12,-1
 607 881 l 1,13,-1
 448 752 l 1,14,-1
 320 752 l 1,10,-1
EndSplineSet
EndChar

StartChar: Ncaron
Encoding: 327 327 68
Width: 832
Flags: MW
LayerCount: 2
UndoRedoHistory
Layer: 0
Undoes
EndUndoes
Redoes
EndRedoes
EndUndoRedoHistory
UndoRedoHistory
Layer: 1
Undoes
EndUndoes
Redoes
EndRedoes
EndUndoRedoHistory
Fore
SplineSet
566 0 m 1,0,-1
 277 334 l 1,1,-1
 277 0 l 1,2,-1
 74 0 l 1,3,-1
 74 688 l 1,4,-1
 267 688 l 1,5,-1
 556 349 l 1,6,-1
 556 688 l 1,7,-1
 759 688 l 1,8,-1
 759 0 l 1,9,-1
 566 0 l 1,0,-1
353 740 m 1,10,-1
 213 885 l 1,11,-1
 341 885 l 1,12,-1
 416 808 l 1,13,-1
 490 885 l 1,14,-1
 620 885 l 1,15,-1
 480 740 l 1,16,-1
 353 740 l 1,10,-1
EndSplineSet
EndChar

StartChar: Ncommaaccent
Encoding: 325 325 69
Width: 832
Flags: MW
LayerCount: 2
UndoRedoHistory
Layer: 0
Undoes
EndUndoes
Redoes
EndRedoes
EndUndoRedoHistory
UndoRedoHistory
Layer: 1
Undoes
EndUndoes
Redoes
EndRedoes
EndUndoRedoHistory
Fore
SplineSet
427 -267 m 1,0,-1
 360 -267 l 1,1,-1
 401 -175 l 1,2,-1
 352 -175 l 1,3,-1
 352 -59 l 1,4,-1
 481 -59 l 1,5,-1
 481 -168 l 1,6,-1
 427 -267 l 1,0,-1
566 0 m 1,7,-1
 277 334 l 1,8,-1
 277 0 l 1,9,-1
 74 0 l 1,10,-1
 74 688 l 1,11,-1
 267 688 l 1,12,-1
 556 349 l 1,13,-1
 556 688 l 1,14,-1
 759 688 l 1,15,-1
 759 0 l 1,16,-1
 566 0 l 1,7,-1
EndSplineSet
EndChar

StartChar: Eng
Encoding: 330 330 70
Width: 813
Flags: MW
LayerCount: 2
UndoRedoHistory
Layer: 0
Undoes
EndUndoes
Redoes
EndRedoes
EndUndoRedoHistory
UndoRedoHistory
Layer: 1
Undoes
EndUndoes
Redoes
EndRedoes
EndUndoRedoHistory
Fore
SplineSet
759 -29 m 2,0,1
 759 -125 759 -125 715.5 -167.5 c 128,-1,2
 672 -210 672 -210 576 -210 c 0,3,4
 549 -210 549 -210 511.5 -205 c 128,-1,5
 474 -200 474 -200 452 -192 c 1,6,-1
 452 -73 l 1,7,-1
 501 -73 l 2,8,9
 557 -73 557 -73 557 -9 c 2,10,-1
 557 10 l 1,11,-1
 277 334 l 1,12,-1
 277 0 l 1,13,-1
 74 0 l 1,14,-1
 74 688 l 1,15,-1
 267 688 l 1,16,-1
 556 349 l 1,17,-1
 556 688 l 1,18,-1
 759 688 l 1,19,-1
 759 -29 l 2,0,1
EndSplineSet
EndChar

StartChar: Ntilde
Encoding: 209 209 71
Width: 832
Flags: MW
LayerCount: 2
UndoRedoHistory
Layer: 0
Undoes
EndUndoes
Redoes
EndRedoes
EndUndoRedoHistory
UndoRedoHistory
Layer: 1
Undoes
EndUndoes
Redoes
EndRedoes
EndUndoRedoHistory
Fore
SplineSet
566 0 m 1,0,-1
 277 334 l 1,1,-1
 277 0 l 1,2,-1
 74 0 l 1,3,-1
 74 688 l 1,4,-1
 267 688 l 1,5,-1
 556 349 l 1,6,-1
 556 688 l 1,7,-1
 759 688 l 1,8,-1
 759 0 l 1,9,-1
 566 0 l 1,0,-1
639 885 m 1,10,11
 639 829 639 829 599.5 785.5 c 128,-1,12
 560 742 560 742 499 742 c 0,13,14
 466 742 466 742 409 762 c 128,-1,15
 352 782 352 782 326 782 c 0,16,17
 307 782 307 782 294 771 c 128,-1,18
 281 760 281 760 275 742 c 1,19,-1
 194 742 l 1,20,21
 194 798 194 798 233.5 841.5 c 128,-1,22
 273 885 273 885 334 885 c 0,23,24
 367 885 367 885 424 865 c 128,-1,25
 481 845 481 845 507 845 c 0,26,27
 545 845 545 845 558 885 c 1,28,-1
 639 885 l 1,10,11
EndSplineSet
EndChar

StartChar: O
Encoding: 79 79 72
Width: 832
Flags: MW
LayerCount: 2
UndoRedoHistory
Layer: 0
Undoes
EndUndoes
Redoes
EndRedoes
EndUndoRedoHistory
UndoRedoHistory
Layer: 1
Undoes
EndUndoes
Redoes
EndRedoes
EndUndoRedoHistory
Fore
SplineSet
562 376 m 2,0,1
 562 449 562 449 524.5 492 c 128,-1,2
 487 535 487 535 416 535 c 128,-1,3
 345 535 345 535 308 492 c 128,-1,4
 271 449 271 449 271 376 c 2,5,-1
 271 312 l 2,6,7
 271 239 271 239 308 196 c 128,-1,8
 345 153 345 153 416 153 c 128,-1,9
 487 153 487 153 524.5 196 c 128,-1,10
 562 239 562 239 562 312 c 2,11,-1
 562 376 l 2,0,1
416 700 m 128,-1,13
 594 700 594 700 691 609.5 c 128,-1,14
 788 519 788 519 788 344.5 c 128,-1,15
 788 170 788 170 691 79 c 128,-1,16
 594 -12 594 -12 416 -12 c 0,17,18
 238 -12 238 -12 141.5 79 c 128,-1,19
 45 170 45 170 45 344.5 c 128,-1,20
 45 519 45 519 141.5 609.5 c 128,-1,12
 238 700 238 700 416 700 c 128,-1,13
EndSplineSet
EndChar

StartChar: Oacute
Encoding: 211 211 73
Width: 832
Flags: MW
LayerCount: 2
UndoRedoHistory
Layer: 0
Undoes
EndUndoes
Redoes
EndRedoes
EndUndoRedoHistory
UndoRedoHistory
Layer: 1
Undoes
EndUndoes
Redoes
EndRedoes
EndUndoRedoHistory
Fore
SplineSet
562 376 m 2,0,1
 562 449 562 449 524.5 492 c 128,-1,2
 487 535 487 535 416 535 c 128,-1,3
 345 535 345 535 308 492 c 128,-1,4
 271 449 271 449 271 376 c 2,5,-1
 271 312 l 2,6,7
 271 239 271 239 308 196 c 128,-1,8
 345 153 345 153 416 153 c 128,-1,9
 487 153 487 153 524.5 196 c 128,-1,10
 562 239 562 239 562 312 c 2,11,-1
 562 376 l 2,0,1
416 700 m 128,-1,13
 594 700 594 700 691 609.5 c 128,-1,14
 788 519 788 519 788 344.5 c 128,-1,15
 788 170 788 170 691 79 c 128,-1,16
 594 -12 594 -12 416 -12 c 0,17,18
 238 -12 238 -12 141.5 79 c 128,-1,19
 45 170 45 170 45 344.5 c 128,-1,20
 45 519 45 519 141.5 609.5 c 128,-1,12
 238 700 238 700 416 700 c 128,-1,13
320 752 m 1,21,-1
 413 885 l 1,22,-1
 605 885 l 1,23,-1
 607 881 l 1,24,-1
 448 752 l 1,25,-1
 320 752 l 1,21,-1
EndSplineSet
EndChar

StartChar: Obreve
Encoding: 334 334 74
Width: 832
Flags: MW
LayerCount: 2
UndoRedoHistory
Layer: 0
Undoes
EndUndoes
Redoes
EndRedoes
EndUndoRedoHistory
UndoRedoHistory
Layer: 1
Undoes
EndUndoes
Redoes
EndRedoes
EndUndoRedoHistory
Fore
SplineSet
562 376 m 2,0,1
 562 449 562 449 524.5 492 c 128,-1,2
 487 535 487 535 416 535 c 128,-1,3
 345 535 345 535 308 492 c 128,-1,4
 271 449 271 449 271 376 c 2,5,-1
 271 312 l 2,6,7
 271 239 271 239 308 196 c 128,-1,8
 345 153 345 153 416 153 c 128,-1,9
 487 153 487 153 524.5 196 c 128,-1,10
 562 239 562 239 562 312 c 2,11,-1
 562 376 l 2,0,1
416 700 m 128,-1,13
 594 700 594 700 691 609.5 c 128,-1,14
 788 519 788 519 788 344.5 c 128,-1,15
 788 170 788 170 691 79 c 128,-1,16
 594 -12 594 -12 416 -12 c 0,17,18
 238 -12 238 -12 141.5 79 c 128,-1,19
 45 170 45 170 45 344.5 c 128,-1,20
 45 519 45 519 141.5 609.5 c 128,-1,12
 238 700 238 700 416 700 c 128,-1,13
601 885 m 1,21,22
 601 860 601 860 588 834.5 c 128,-1,23
 575 809 575 809 551.5 788 c 128,-1,24
 528 767 528 767 492.5 754 c 128,-1,25
 457 741 457 741 416 741 c 0,26,27
 334 741 334 741 283 786 c 128,-1,28
 232 831 232 831 232 885 c 1,29,-1
 328 885 l 1,30,31
 331 867 331 867 356.5 851 c 128,-1,32
 382 835 382 835 416 835 c 0,33,34
 451 835 451 835 476.5 851 c 128,-1,35
 502 867 502 867 506 885 c 1,36,-1
 601 885 l 1,21,22
EndSplineSet
EndChar

StartChar: Ocircumflex
Encoding: 212 212 75
Width: 832
Flags: MW
LayerCount: 2
UndoRedoHistory
Layer: 0
Undoes
EndUndoes
Redoes
EndRedoes
EndUndoRedoHistory
UndoRedoHistory
Layer: 1
Undoes
EndUndoes
Redoes
EndRedoes
EndUndoRedoHistory
Fore
SplineSet
562 376 m 2,0,1
 562 449 562 449 524.5 492 c 128,-1,2
 487 535 487 535 416 535 c 128,-1,3
 345 535 345 535 308 492 c 128,-1,4
 271 449 271 449 271 376 c 2,5,-1
 271 312 l 2,6,7
 271 239 271 239 308 196 c 128,-1,8
 345 153 345 153 416 153 c 128,-1,9
 487 153 487 153 524.5 196 c 128,-1,10
 562 239 562 239 562 312 c 2,11,-1
 562 376 l 2,0,1
416 700 m 128,-1,13
 594 700 594 700 691 609.5 c 128,-1,14
 788 519 788 519 788 344.5 c 128,-1,15
 788 170 788 170 691 79 c 128,-1,16
 594 -12 594 -12 416 -12 c 0,17,18
 238 -12 238 -12 141.5 79 c 128,-1,19
 45 170 45 170 45 344.5 c 128,-1,20
 45 519 45 519 141.5 609.5 c 128,-1,12
 238 700 238 700 416 700 c 128,-1,13
490 740 m 1,21,-1
 416 817 l 1,22,-1
 341 740 l 1,23,-1
 213 740 l 1,24,-1
 353 885 l 1,25,-1
 480 885 l 1,26,-1
 620 740 l 1,27,-1
 490 740 l 1,21,-1
EndSplineSet
EndChar

StartChar: Odieresis
Encoding: 214 214 76
Width: 832
Flags: MW
LayerCount: 2
UndoRedoHistory
Layer: 0
Undoes
EndUndoes
Redoes
EndRedoes
EndUndoRedoHistory
UndoRedoHistory
Layer: 1
Undoes
EndUndoes
Redoes
EndRedoes
EndUndoRedoHistory
Fore
SplineSet
562 376 m 2,0,1
 562 449 562 449 524.5 492 c 128,-1,2
 487 535 487 535 416 535 c 128,-1,3
 345 535 345 535 308 492 c 128,-1,4
 271 449 271 449 271 376 c 2,5,-1
 271 312 l 2,6,7
 271 239 271 239 308 196 c 128,-1,8
 345 153 345 153 416 153 c 128,-1,9
 487 153 487 153 524.5 196 c 128,-1,10
 562 239 562 239 562 312 c 2,11,-1
 562 376 l 2,0,1
416 700 m 128,-1,13
 594 700 594 700 691 609.5 c 128,-1,14
 788 519 788 519 788 344.5 c 128,-1,15
 788 170 788 170 691 79 c 128,-1,16
 594 -12 594 -12 416 -12 c 0,17,18
 238 -12 238 -12 141.5 79 c 128,-1,19
 45 170 45 170 45 344.5 c 128,-1,20
 45 519 45 519 141.5 609.5 c 128,-1,12
 238 700 238 700 416 700 c 128,-1,13
451 746 m 1,21,-1
 451 885 l 1,22,-1
 603 885 l 1,23,-1
 603 746 l 1,24,-1
 451 746 l 1,21,-1
230 746 m 1,25,-1
 230 885 l 1,26,-1
 382 885 l 1,27,-1
 382 746 l 1,28,-1
 230 746 l 1,25,-1
EndSplineSet
EndChar

StartChar: Ograve
Encoding: 210 210 77
Width: 832
Flags: MW
LayerCount: 2
UndoRedoHistory
Layer: 0
Undoes
EndUndoes
Redoes
EndRedoes
EndUndoRedoHistory
UndoRedoHistory
Layer: 1
Undoes
EndUndoes
Redoes
EndRedoes
EndUndoRedoHistory
Fore
SplineSet
562 376 m 2,0,1
 562 449 562 449 524.5 492 c 128,-1,2
 487 535 487 535 416 535 c 128,-1,3
 345 535 345 535 308 492 c 128,-1,4
 271 449 271 449 271 376 c 2,5,-1
 271 312 l 2,6,7
 271 239 271 239 308 196 c 128,-1,8
 345 153 345 153 416 153 c 128,-1,9
 487 153 487 153 524.5 196 c 128,-1,10
 562 239 562 239 562 312 c 2,11,-1
 562 376 l 2,0,1
416 700 m 128,-1,13
 594 700 594 700 691 609.5 c 128,-1,14
 788 519 788 519 788 344.5 c 128,-1,15
 788 170 788 170 691 79 c 128,-1,16
 594 -12 594 -12 416 -12 c 0,17,18
 238 -12 238 -12 141.5 79 c 128,-1,19
 45 170 45 170 45 344.5 c 128,-1,20
 45 519 45 519 141.5 609.5 c 128,-1,12
 238 700 238 700 416 700 c 128,-1,13
226 881 m 1,21,-1
 228 885 l 1,22,-1
 420 885 l 1,23,-1
 513 752 l 1,24,-1
 386 752 l 1,25,-1
 226 881 l 1,21,-1
EndSplineSet
EndChar

StartChar: Ohungarumlaut
Encoding: 336 336 78
Width: 832
Flags: MW
LayerCount: 2
UndoRedoHistory
Layer: 0
Undoes
EndUndoes
Redoes
EndRedoes
EndUndoRedoHistory
UndoRedoHistory
Layer: 1
Undoes
EndUndoes
Redoes
EndRedoes
EndUndoRedoHistory
Fore
SplineSet
562 376 m 2,0,1
 562 449 562 449 524.5 492 c 128,-1,2
 487 535 487 535 416 535 c 128,-1,3
 345 535 345 535 308 492 c 128,-1,4
 271 449 271 449 271 376 c 2,5,-1
 271 312 l 2,6,7
 271 239 271 239 308 196 c 128,-1,8
 345 153 345 153 416 153 c 128,-1,9
 487 153 487 153 524.5 196 c 128,-1,10
 562 239 562 239 562 312 c 2,11,-1
 562 376 l 2,0,1
416 700 m 128,-1,13
 594 700 594 700 691 609.5 c 128,-1,14
 788 519 788 519 788 344.5 c 128,-1,15
 788 170 788 170 691 79 c 128,-1,16
 594 -12 594 -12 416 -12 c 0,17,18
 238 -12 238 -12 141.5 79 c 128,-1,19
 45 170 45 170 45 344.5 c 128,-1,20
 45 519 45 519 141.5 609.5 c 128,-1,12
 238 700 238 700 416 700 c 128,-1,13
574 752 m 1,21,-1
 457 752 l 1,22,-1
 533 886 l 1,23,-1
 711 886 l 1,24,-1
 713 882 l 1,25,-1
 574 752 l 1,21,-1
363 752 m 1,26,-1
 246 752 l 1,27,-1
 322 886 l 1,28,-1
 500 886 l 1,29,-1
 502 882 l 1,30,-1
 363 752 l 1,26,-1
EndSplineSet
EndChar

StartChar: Omacron
Encoding: 332 332 79
Width: 832
Flags: MW
LayerCount: 2
UndoRedoHistory
Layer: 0
Undoes
EndUndoes
Redoes
EndRedoes
EndUndoRedoHistory
UndoRedoHistory
Layer: 1
Undoes
EndUndoes
Redoes
EndRedoes
EndUndoRedoHistory
Fore
SplineSet
562 376 m 2,0,1
 562 449 562 449 524.5 492 c 128,-1,2
 487 535 487 535 416 535 c 128,-1,3
 345 535 345 535 308 492 c 128,-1,4
 271 449 271 449 271 376 c 2,5,-1
 271 312 l 2,6,7
 271 239 271 239 308 196 c 128,-1,8
 345 153 345 153 416 153 c 128,-1,9
 487 153 487 153 524.5 196 c 128,-1,10
 562 239 562 239 562 312 c 2,11,-1
 562 376 l 2,0,1
416 700 m 128,-1,13
 594 700 594 700 691 609.5 c 128,-1,14
 788 519 788 519 788 344.5 c 128,-1,15
 788 170 788 170 691 79 c 128,-1,16
 594 -12 594 -12 416 -12 c 0,17,18
 238 -12 238 -12 141.5 79 c 128,-1,19
 45 170 45 170 45 344.5 c 128,-1,20
 45 519 45 519 141.5 609.5 c 128,-1,12
 238 700 238 700 416 700 c 128,-1,13
258 765 m 1,21,-1
 258 865 l 1,22,-1
 575 865 l 1,23,-1
 575 765 l 1,24,-1
 258 765 l 1,21,-1
EndSplineSet
EndChar

StartChar: Oslash
Encoding: 216 216 80
Width: 832
Flags: MW
LayerCount: 2
UndoRedoHistory
Layer: 0
Undoes
EndUndoes
Redoes
EndRedoes
EndUndoRedoHistory
UndoRedoHistory
Layer: 1
Undoes
EndUndoes
Redoes
EndRedoes
EndUndoRedoHistory
Fore
SplineSet
333 175 m 1,0,1
 367 153 367 153 416 153 c 0,2,3
 487 153 487 153 524.5 196 c 128,-1,4
 562 239 562 239 562 312 c 2,5,-1
 562 376 l 2,6,7
 562 411 562 411 551 444 c 1,8,-1
 333 175 l 1,0,1
499 513 m 1,9,10
 465 535 465 535 416 535 c 0,11,12
 345 535 345 535 308 492 c 128,-1,13
 271 449 271 449 271 376 c 2,14,-1
 271 312 l 2,15,16
 271 273 271 273 281 244 c 1,17,-1
 499 513 l 1,9,10
687 612 m 1,18,19
 788 521 788 521 788 344 c 0,20,21
 788 170 788 170 691 79 c 128,-1,22
 594 -12 594 -12 416 -12 c 0,23,24
 296 -12 296 -12 214 28 c 1,25,-1
 162 -36 l 1,26,-1
 54 -36 l 1,27,-1
 144 76 l 1,28,29
 45 168 45 168 45 344 c 0,30,31
 45 518 45 518 141.5 609 c 128,-1,32
 238 700 238 700 416 700 c 0,33,34
 532 700 532 700 618 659 c 1,35,-1
 671 725 l 1,36,-1
 779 725 l 1,37,-1
 687 612 l 1,18,19
EndSplineSet
EndChar

StartChar: Oslashacute
Encoding: 510 510 81
Width: 832
Flags: MW
LayerCount: 2
UndoRedoHistory
Layer: 0
Undoes
EndUndoes
Redoes
EndRedoes
EndUndoRedoHistory
UndoRedoHistory
Layer: 1
Undoes
EndUndoes
Redoes
EndRedoes
EndUndoRedoHistory
Fore
SplineSet
333 175 m 1,0,1
 367 153 367 153 416 153 c 0,2,3
 487 153 487 153 524.5 196 c 128,-1,4
 562 239 562 239 562 312 c 2,5,-1
 562 376 l 2,6,7
 562 411 562 411 551 444 c 1,8,-1
 333 175 l 1,0,1
499 513 m 1,9,10
 465 535 465 535 416 535 c 0,11,12
 345 535 345 535 308 492 c 128,-1,13
 271 449 271 449 271 376 c 2,14,-1
 271 312 l 2,15,16
 271 273 271 273 281 244 c 1,17,-1
 499 513 l 1,9,10
687 612 m 1,18,19
 788 521 788 521 788 344 c 0,20,21
 788 170 788 170 691 79 c 128,-1,22
 594 -12 594 -12 416 -12 c 0,23,24
 296 -12 296 -12 214 28 c 1,25,-1
 162 -36 l 1,26,-1
 54 -36 l 1,27,-1
 144 76 l 1,28,29
 45 168 45 168 45 344 c 0,30,31
 45 518 45 518 141.5 609 c 128,-1,32
 238 700 238 700 416 700 c 0,33,34
 532 700 532 700 618 659 c 1,35,-1
 671 725 l 1,36,-1
 779 725 l 1,37,-1
 687 612 l 1,18,19
320 752 m 1,38,-1
 413 885 l 1,39,-1
 605 885 l 1,40,-1
 607 881 l 1,41,-1
 448 752 l 1,42,-1
 320 752 l 1,38,-1
EndSplineSet
EndChar

StartChar: Otilde
Encoding: 213 213 82
Width: 832
Flags: MW
LayerCount: 2
UndoRedoHistory
Layer: 0
Undoes
EndUndoes
Redoes
EndRedoes
EndUndoRedoHistory
UndoRedoHistory
Layer: 1
Undoes
EndUndoes
Redoes
EndRedoes
EndUndoRedoHistory
Fore
SplineSet
562 376 m 2,0,1
 562 449 562 449 524.5 492 c 128,-1,2
 487 535 487 535 416 535 c 128,-1,3
 345 535 345 535 308 492 c 128,-1,4
 271 449 271 449 271 376 c 2,5,-1
 271 312 l 2,6,7
 271 239 271 239 308 196 c 128,-1,8
 345 153 345 153 416 153 c 128,-1,9
 487 153 487 153 524.5 196 c 128,-1,10
 562 239 562 239 562 312 c 2,11,-1
 562 376 l 2,0,1
416 700 m 128,-1,13
 594 700 594 700 691 609.5 c 128,-1,14
 788 519 788 519 788 344.5 c 128,-1,15
 788 170 788 170 691 79 c 128,-1,16
 594 -12 594 -12 416 -12 c 0,17,18
 238 -12 238 -12 141.5 79 c 128,-1,19
 45 170 45 170 45 344.5 c 128,-1,20
 45 519 45 519 141.5 609.5 c 128,-1,12
 238 700 238 700 416 700 c 128,-1,13
639 885 m 1,21,22
 639 829 639 829 599.5 785.5 c 128,-1,23
 560 742 560 742 499 742 c 0,24,25
 466 742 466 742 409 762 c 128,-1,26
 352 782 352 782 326 782 c 0,27,28
 307 782 307 782 294 771 c 128,-1,29
 281 760 281 760 275 742 c 1,30,-1
 194 742 l 1,31,32
 194 798 194 798 233.5 841.5 c 128,-1,33
 273 885 273 885 334 885 c 0,34,35
 367 885 367 885 424 865 c 128,-1,36
 481 845 481 845 507 845 c 0,37,38
 545 845 545 845 558 885 c 1,39,-1
 639 885 l 1,21,22
EndSplineSet
EndChar

StartChar: OE
Encoding: 338 338 83
Width: 1000
Flags: MW
LayerCount: 2
UndoRedoHistory
Layer: 0
Undoes
EndUndoes
Redoes
EndRedoes
EndUndoRedoHistory
UndoRedoHistory
Layer: 1
Undoes
EndUndoes
Redoes
EndRedoes
EndUndoRedoHistory
Fore
SplineSet
496 376 m 2,0,1
 496 449 496 449 464 492 c 128,-1,2
 432 535 432 535 370 535 c 128,-1,3
 308 535 308 535 276 492 c 128,-1,4
 244 449 244 449 244 376 c 2,5,-1
 244 312 l 2,6,7
 244 239 244 239 276 196 c 128,-1,8
 308 153 308 153 370 153 c 128,-1,9
 432 153 432 153 464 196 c 128,-1,10
 496 239 496 239 496 312 c 2,11,-1
 496 376 l 2,0,1
495 62 m 1,12,13
 424 -12 424 -12 309 -12 c 0,14,15
 178 -12 178 -12 106.5 81.5 c 128,-1,16
 35 175 35 175 35 344.5 c 128,-1,17
 35 514 35 514 106.5 607 c 128,-1,18
 178 700 178 700 309 700 c 0,19,20
 424 700 424 700 495 625 c 1,21,-1
 495 688 l 1,22,-1
 966 688 l 1,23,-1
 966 523 l 1,24,-1
 689 523 l 1,25,-1
 689 428 l 1,26,-1
 912 428 l 1,27,-1
 912 270 l 1,28,-1
 689 270 l 1,29,-1
 689 165 l 1,30,-1
 973 165 l 1,31,-1
 973 0 l 1,32,-1
 495 0 l 1,33,-1
 495 62 l 1,12,13
EndSplineSet
EndChar

StartChar: P
Encoding: 80 80 84
Width: 721
Flags: MW
LayerCount: 2
UndoRedoHistory
Layer: 0
Undoes
EndUndoes
Redoes
EndRedoes
EndUndoRedoHistory
UndoRedoHistory
Layer: 1
Undoes
EndUndoes
Redoes
EndRedoes
EndUndoRedoHistory
Fore
SplineSet
295 383 m 1,0,-1
 386 383 l 2,1,2
 420 383 420 383 438 400.5 c 128,-1,3
 456 418 456 418 456 450 c 2,4,-1
 456 458 l 2,5,6
 456 490 456 490 438.5 507.5 c 128,-1,7
 421 525 421 525 386 525 c 2,8,-1
 295 525 l 1,9,-1
 295 383 l 1,0,-1
460 688 m 2,10,11
 557 688 557 688 618.5 624 c 128,-1,12
 680 560 680 560 680 462 c 2,13,-1
 680 449 l 2,14,15
 680 351 680 351 618.5 286.5 c 128,-1,16
 557 222 557 222 460 222 c 2,17,-1
 295 222 l 1,18,-1
 295 0 l 1,19,-1
 74 0 l 1,20,-1
 74 688 l 1,21,-1
 460 688 l 2,10,11
EndSplineSet
EndChar

StartChar: Thorn
Encoding: 222 222 85
Width: 721
Flags: MW
LayerCount: 2
UndoRedoHistory
Layer: 0
Undoes
EndUndoes
Redoes
EndRedoes
EndUndoRedoHistory
UndoRedoHistory
Layer: 1
Undoes
EndUndoes
Redoes
EndRedoes
EndUndoRedoHistory
Fore
SplineSet
295 283 m 1,0,-1
 386 283 l 2,1,2
 421 283 421 283 438.5 300.5 c 128,-1,3
 456 318 456 318 456 350 c 2,4,-1
 456 358 l 2,5,6
 456 390 456 390 438.5 407.5 c 128,-1,7
 421 425 421 425 386 425 c 2,8,-1
 295 425 l 1,9,-1
 295 283 l 1,0,-1
460 588 m 2,10,11
 557 588 557 588 618.5 524 c 128,-1,12
 680 460 680 460 680 362 c 2,13,-1
 680 349 l 2,14,15
 680 251 680 251 618.5 186.5 c 128,-1,16
 557 122 557 122 460 122 c 2,17,-1
 295 122 l 1,18,-1
 295 0 l 1,19,-1
 74 0 l 1,20,-1
 74 688 l 1,21,-1
 295 688 l 1,22,-1
 295 588 l 1,23,-1
 460 588 l 2,10,11
EndSplineSet
EndChar

StartChar: Q
Encoding: 81 81 86
Width: 832
Flags: MW
LayerCount: 2
UndoRedoHistory
Layer: 0
Undoes
EndUndoes
Redoes
EndRedoes
EndUndoRedoHistory
UndoRedoHistory
Layer: 1
Undoes
EndUndoes
Redoes
EndRedoes
EndUndoRedoHistory
Fore
SplineSet
562 376 m 2,0,1
 562 449 562 449 524.5 492 c 128,-1,2
 487 535 487 535 416 535 c 128,-1,3
 345 535 345 535 308 492 c 128,-1,4
 271 449 271 449 271 376 c 2,5,-1
 271 312 l 2,6,7
 271 239 271 239 308 196 c 128,-1,8
 345 153 345 153 416 153 c 128,-1,9
 487 153 487 153 524.5 196 c 128,-1,10
 562 239 562 239 562 312 c 2,11,-1
 562 376 l 2,0,1
406 -12 m 1,12,13
 232 -9 232 -9 138.5 81.5 c 128,-1,14
 45 172 45 172 45 344 c 0,15,16
 45 518 45 518 141.5 609 c 128,-1,17
 238 700 238 700 416 700 c 128,-1,18
 594 700 594 700 691 609.5 c 128,-1,19
 788 519 788 519 788 344 c 0,20,21
 788 228 788 228 744.5 148.5 c 128,-1,22
 701 69 701 69 618 28 c 1,23,-1
 775 -131 l 1,24,-1
 512 -131 l 1,25,-1
 406 -12 l 1,12,13
EndSplineSet
EndChar

StartChar: R
Encoding: 82 82 87
Width: 777
Flags: MW
LayerCount: 2
UndoRedoHistory
Layer: 0
Undoes
EndUndoes
Redoes
EndRedoes
EndUndoRedoHistory
UndoRedoHistory
Layer: 1
Undoes
EndUndoes
Redoes
EndRedoes
EndUndoRedoHistory
Fore
SplineSet
440 404 m 2,0,1
 466 404 466 404 484 422 c 128,-1,2
 502 440 502 440 502 467.5 c 128,-1,3
 502 495 502 495 484 513 c 128,-1,4
 466 531 466 531 440 531 c 2,5,-1
 295 531 l 1,6,-1
 295 404 l 1,7,-1
 440 404 l 2,0,1
495 688 m 2,8,9
 551 688 551 688 596 671 c 128,-1,10
 641 654 641 654 669 624.5 c 128,-1,11
 697 595 697 595 712 557.5 c 128,-1,12
 727 520 727 520 727 477 c 0,13,14
 727 415 727 415 693 363.5 c 128,-1,15
 659 312 659 312 594 288 c 1,16,-1
 747 0 l 1,17,-1
 499 0 l 1,18,-1
 377 251 l 1,19,-1
 295 251 l 1,20,-1
 295 0 l 1,21,-1
 74 0 l 1,22,-1
 74 688 l 1,23,-1
 495 688 l 2,8,9
EndSplineSet
EndChar

StartChar: Racute
Encoding: 340 340 88
Width: 777
Flags: MW
LayerCount: 2
UndoRedoHistory
Layer: 0
Undoes
EndUndoes
Redoes
EndRedoes
EndUndoRedoHistory
UndoRedoHistory
Layer: 1
Undoes
EndUndoes
Redoes
EndRedoes
EndUndoRedoHistory
Fore
SplineSet
440 404 m 2,0,1
 466 404 466 404 484 422 c 128,-1,2
 502 440 502 440 502 467.5 c 128,-1,3
 502 495 502 495 484 513 c 128,-1,4
 466 531 466 531 440 531 c 2,5,-1
 295 531 l 1,6,-1
 295 404 l 1,7,-1
 440 404 l 2,0,1
495 688 m 2,8,9
 551 688 551 688 596 671 c 128,-1,10
 641 654 641 654 669 624.5 c 128,-1,11
 697 595 697 595 712 557.5 c 128,-1,12
 727 520 727 520 727 477 c 0,13,14
 727 415 727 415 693 363.5 c 128,-1,15
 659 312 659 312 594 288 c 1,16,-1
 747 0 l 1,17,-1
 499 0 l 1,18,-1
 377 251 l 1,19,-1
 295 251 l 1,20,-1
 295 0 l 1,21,-1
 74 0 l 1,22,-1
 74 688 l 1,23,-1
 495 688 l 2,8,9
282 752 m 1,24,-1
 374 885 l 1,25,-1
 567 885 l 1,26,-1
 569 881 l 1,27,-1
 409 752 l 1,28,-1
 282 752 l 1,24,-1
EndSplineSet
EndChar

StartChar: Rcaron
Encoding: 344 344 89
Width: 777
Flags: MW
LayerCount: 2
UndoRedoHistory
Layer: 0
Undoes
EndUndoes
Redoes
EndRedoes
EndUndoRedoHistory
UndoRedoHistory
Layer: 1
Undoes
EndUndoes
Redoes
EndRedoes
EndUndoRedoHistory
Fore
SplineSet
440 404 m 2,0,1
 466 404 466 404 484 422 c 128,-1,2
 502 440 502 440 502 467.5 c 128,-1,3
 502 495 502 495 484 513 c 128,-1,4
 466 531 466 531 440 531 c 2,5,-1
 295 531 l 1,6,-1
 295 404 l 1,7,-1
 440 404 l 2,0,1
495 688 m 2,8,9
 551 688 551 688 596 671 c 128,-1,10
 641 654 641 654 669 624.5 c 128,-1,11
 697 595 697 595 712 557.5 c 128,-1,12
 727 520 727 520 727 477 c 0,13,14
 727 415 727 415 693 363.5 c 128,-1,15
 659 312 659 312 594 288 c 1,16,-1
 747 0 l 1,17,-1
 499 0 l 1,18,-1
 377 251 l 1,19,-1
 295 251 l 1,20,-1
 295 0 l 1,21,-1
 74 0 l 1,22,-1
 74 688 l 1,23,-1
 495 688 l 2,8,9
325 740 m 1,24,-1
 186 885 l 1,25,-1
 314 885 l 1,26,-1
 388 808 l 1,27,-1
 462 885 l 1,28,-1
 592 885 l 1,29,-1
 453 740 l 1,30,-1
 325 740 l 1,24,-1
EndSplineSet
EndChar

StartChar: Rcommaaccent
Encoding: 342 342 90
Width: 777
Flags: MW
LayerCount: 2
UndoRedoHistory
Layer: 0
Undoes
EndUndoes
Redoes
EndRedoes
EndUndoRedoHistory
UndoRedoHistory
Layer: 1
Undoes
EndUndoes
Redoes
EndRedoes
EndUndoRedoHistory
Fore
SplineSet
400 -267 m 1,0,-1
 333 -267 l 1,1,-1
 374 -175 l 1,2,-1
 324 -175 l 1,3,-1
 324 -59 l 1,4,-1
 454 -59 l 1,5,-1
 454 -168 l 1,6,-1
 400 -267 l 1,0,-1
440 404 m 2,7,8
 466 404 466 404 484 422 c 128,-1,9
 502 440 502 440 502 467.5 c 128,-1,10
 502 495 502 495 484 513 c 128,-1,11
 466 531 466 531 440 531 c 2,12,-1
 295 531 l 1,13,-1
 295 404 l 1,14,-1
 440 404 l 2,7,8
495 688 m 2,15,16
 551 688 551 688 596 671 c 128,-1,17
 641 654 641 654 669 624.5 c 128,-1,18
 697 595 697 595 712 557.5 c 128,-1,19
 727 520 727 520 727 477 c 0,20,21
 727 415 727 415 693 363.5 c 128,-1,22
 659 312 659 312 594 288 c 1,23,-1
 747 0 l 1,24,-1
 499 0 l 1,25,-1
 377 251 l 1,26,-1
 295 251 l 1,27,-1
 295 0 l 1,28,-1
 74 0 l 1,29,-1
 74 688 l 1,30,-1
 495 688 l 2,15,16
EndSplineSet
EndChar

StartChar: S
Encoding: 83 83 91
Width: 721
Flags: MW
LayerCount: 2
UndoRedoHistory
Layer: 0
Undoes
EndUndoes
Redoes
EndRedoes
EndUndoRedoHistory
UndoRedoHistory
Layer: 1
Undoes
EndUndoes
Redoes
EndRedoes
EndUndoRedoHistory
Fore
SplineSet
252 233 m 1,0,1
 252 181 252 181 279 163.5 c 128,-1,2
 306 146 306 146 363 146 c 0,3,4
 382 146 382 146 395.5 147 c 128,-1,5
 409 148 409 148 425.5 152.5 c 128,-1,6
 442 157 442 157 451 167 c 128,-1,7
 460 177 460 177 460 192 c 0,8,9
 460 208 460 208 446 219 c 128,-1,10
 432 230 432 230 408.5 237.5 c 128,-1,11
 385 245 385 245 354.5 251 c 128,-1,12
 324 257 324 257 290.5 264.5 c 128,-1,13
 257 272 257 272 223.5 282 c 128,-1,14
 190 292 190 292 159.5 308.5 c 128,-1,15
 129 325 129 325 105.5 347 c 128,-1,16
 82 369 82 369 68 403 c 128,-1,17
 54 437 54 437 54 480 c 0,18,19
 54 538 54 538 79 581.5 c 128,-1,20
 104 625 104 625 147.5 650.5 c 128,-1,21
 191 676 191 676 245 688 c 128,-1,22
 299 700 299 700 362.5 700 c 128,-1,23
 426 700 426 700 480 687.5 c 128,-1,24
 534 675 534 675 576 649.5 c 128,-1,25
 618 624 618 624 642 583 c 128,-1,26
 666 542 666 542 667 488 c 1,27,-1
 667 476 l 1,28,-1
 460 476 l 1,29,-1
 460 480 l 2,30,31
 460 510 460 510 438 530 c 128,-1,32
 416 550 416 550 371 550 c 0,33,34
 328 550 328 550 304 537 c 128,-1,35
 280 524 280 524 280 505 c 0,36,37
 280 489 280 489 293.5 477 c 128,-1,38
 307 465 307 465 330.5 457.5 c 128,-1,39
 354 450 354 450 384 444 c 128,-1,40
 414 438 414 438 447.5 431 c 128,-1,41
 481 424 481 424 514.5 414.5 c 128,-1,42
 548 405 548 405 578.5 390 c 128,-1,43
 609 375 609 375 632.5 354 c 128,-1,44
 656 333 656 333 670.5 301 c 128,-1,45
 685 269 685 269 686 228 c 1,46,47
 686 178 686 178 671 137.5 c 128,-1,48
 656 97 656 97 629.5 69.5 c 128,-1,49
 603 42 603 42 564.5 23.5 c 128,-1,50
 526 5 526 5 481 -3.5 c 128,-1,51
 436 -12 436 -12 383 -12 c 0,52,53
 322 -12 322 -12 273.5 -5.5 c 128,-1,54
 225 1 225 1 180.5 18 c 128,-1,55
 136 35 136 35 106.5 62 c 128,-1,56
 77 89 77 89 60 132.5 c 128,-1,57
 43 176 43 176 43 233 c 1,58,-1
 252 233 l 1,0,1
EndSplineSet
EndChar

StartChar: Sacute
Encoding: 346 346 92
Width: 721
Flags: MW
LayerCount: 2
UndoRedoHistory
Layer: 0
Undoes
EndUndoes
Redoes
EndRedoes
EndUndoRedoHistory
UndoRedoHistory
Layer: 1
Undoes
EndUndoes
Redoes
EndRedoes
EndUndoRedoHistory
Fore
SplineSet
252 233 m 1,0,1
 252 181 252 181 279 163.5 c 128,-1,2
 306 146 306 146 363 146 c 0,3,4
 382 146 382 146 395.5 147 c 128,-1,5
 409 148 409 148 425.5 152.5 c 128,-1,6
 442 157 442 157 451 167 c 128,-1,7
 460 177 460 177 460 192 c 0,8,9
 460 208 460 208 446 219 c 128,-1,10
 432 230 432 230 408.5 237.5 c 128,-1,11
 385 245 385 245 354.5 251 c 128,-1,12
 324 257 324 257 290.5 264.5 c 128,-1,13
 257 272 257 272 223.5 282 c 128,-1,14
 190 292 190 292 159.5 308.5 c 128,-1,15
 129 325 129 325 105.5 347 c 128,-1,16
 82 369 82 369 68 403 c 128,-1,17
 54 437 54 437 54 480 c 0,18,19
 54 538 54 538 79 581.5 c 128,-1,20
 104 625 104 625 147.5 650.5 c 128,-1,21
 191 676 191 676 245 688 c 128,-1,22
 299 700 299 700 362.5 700 c 128,-1,23
 426 700 426 700 480 687.5 c 128,-1,24
 534 675 534 675 576 649.5 c 128,-1,25
 618 624 618 624 642 583 c 128,-1,26
 666 542 666 542 667 488 c 1,27,-1
 667 476 l 1,28,-1
 460 476 l 1,29,-1
 460 480 l 2,30,31
 460 510 460 510 438 530 c 128,-1,32
 416 550 416 550 371 550 c 0,33,34
 328 550 328 550 304 537 c 128,-1,35
 280 524 280 524 280 505 c 0,36,37
 280 489 280 489 293.5 477 c 128,-1,38
 307 465 307 465 330.5 457.5 c 128,-1,39
 354 450 354 450 384 444 c 128,-1,40
 414 438 414 438 447.5 431 c 128,-1,41
 481 424 481 424 514.5 414.5 c 128,-1,42
 548 405 548 405 578.5 390 c 128,-1,43
 609 375 609 375 632.5 354 c 128,-1,44
 656 333 656 333 670.5 301 c 128,-1,45
 685 269 685 269 686 228 c 1,46,47
 686 178 686 178 671 137.5 c 128,-1,48
 656 97 656 97 629.5 69.5 c 128,-1,49
 603 42 603 42 564.5 23.5 c 128,-1,50
 526 5 526 5 481 -3.5 c 128,-1,51
 436 -12 436 -12 383 -12 c 0,52,53
 322 -12 322 -12 273.5 -5.5 c 128,-1,54
 225 1 225 1 180.5 18 c 128,-1,55
 136 35 136 35 106.5 62 c 128,-1,56
 77 89 77 89 60 132.5 c 128,-1,57
 43 176 43 176 43 233 c 1,58,-1
 252 233 l 1,0,1
265 752 m 1,59,-1
 357 885 l 1,60,-1
 550 885 l 1,61,-1
 552 881 l 1,62,-1
 393 752 l 1,63,-1
 265 752 l 1,59,-1
EndSplineSet
EndChar

StartChar: Scaron
Encoding: 352 352 93
Width: 721
Flags: MW
LayerCount: 2
UndoRedoHistory
Layer: 0
Undoes
EndUndoes
Redoes
EndRedoes
EndUndoRedoHistory
UndoRedoHistory
Layer: 1
Undoes
EndUndoes
Redoes
EndRedoes
EndUndoRedoHistory
Fore
SplineSet
252 233 m 1,0,1
 252 181 252 181 279 163.5 c 128,-1,2
 306 146 306 146 363 146 c 0,3,4
 382 146 382 146 395.5 147 c 128,-1,5
 409 148 409 148 425.5 152.5 c 128,-1,6
 442 157 442 157 451 167 c 128,-1,7
 460 177 460 177 460 192 c 0,8,9
 460 208 460 208 446 219 c 128,-1,10
 432 230 432 230 408.5 237.5 c 128,-1,11
 385 245 385 245 354.5 251 c 128,-1,12
 324 257 324 257 290.5 264.5 c 128,-1,13
 257 272 257 272 223.5 282 c 128,-1,14
 190 292 190 292 159.5 308.5 c 128,-1,15
 129 325 129 325 105.5 347 c 128,-1,16
 82 369 82 369 68 403 c 128,-1,17
 54 437 54 437 54 480 c 0,18,19
 54 538 54 538 79 581.5 c 128,-1,20
 104 625 104 625 147.5 650.5 c 128,-1,21
 191 676 191 676 245 688 c 128,-1,22
 299 700 299 700 362.5 700 c 128,-1,23
 426 700 426 700 480 687.5 c 128,-1,24
 534 675 534 675 576 649.5 c 128,-1,25
 618 624 618 624 642 583 c 128,-1,26
 666 542 666 542 667 488 c 1,27,-1
 667 476 l 1,28,-1
 460 476 l 1,29,-1
 460 480 l 2,30,31
 460 510 460 510 438 530 c 128,-1,32
 416 550 416 550 371 550 c 0,33,34
 328 550 328 550 304 537 c 128,-1,35
 280 524 280 524 280 505 c 0,36,37
 280 489 280 489 293.5 477 c 128,-1,38
 307 465 307 465 330.5 457.5 c 128,-1,39
 354 450 354 450 384 444 c 128,-1,40
 414 438 414 438 447.5 431 c 128,-1,41
 481 424 481 424 514.5 414.5 c 128,-1,42
 548 405 548 405 578.5 390 c 128,-1,43
 609 375 609 375 632.5 354 c 128,-1,44
 656 333 656 333 670.5 301 c 128,-1,45
 685 269 685 269 686 228 c 1,46,47
 686 178 686 178 671 137.5 c 128,-1,48
 656 97 656 97 629.5 69.5 c 128,-1,49
 603 42 603 42 564.5 23.5 c 128,-1,50
 526 5 526 5 481 -3.5 c 128,-1,51
 436 -12 436 -12 383 -12 c 0,52,53
 322 -12 322 -12 273.5 -5.5 c 128,-1,54
 225 1 225 1 180.5 18 c 128,-1,55
 136 35 136 35 106.5 62 c 128,-1,56
 77 89 77 89 60 132.5 c 128,-1,57
 43 176 43 176 43 233 c 1,58,-1
 252 233 l 1,0,1
297 740 m 1,59,-1
 158 885 l 1,60,-1
 286 885 l 1,61,-1
 360 808 l 1,62,-1
 435 885 l 1,63,-1
 564 885 l 1,64,-1
 425 740 l 1,65,-1
 297 740 l 1,59,-1
EndSplineSet
EndChar

StartChar: Scedilla
Encoding: 350 350 94
Width: 721
Flags: MW
LayerCount: 2
UndoRedoHistory
Layer: 0
Undoes
EndUndoes
Redoes
EndRedoes
EndUndoRedoHistory
UndoRedoHistory
Layer: 1
Undoes
EndUndoes
Redoes
EndRedoes
EndUndoRedoHistory
Fore
SplineSet
252 233 m 1,0,1
 252 181 252 181 279 163.5 c 128,-1,2
 306 146 306 146 363 146 c 0,3,4
 382 146 382 146 395.5 147 c 128,-1,5
 409 148 409 148 425.5 152.5 c 128,-1,6
 442 157 442 157 451 167 c 128,-1,7
 460 177 460 177 460 192 c 0,8,9
 460 208 460 208 446 219 c 128,-1,10
 432 230 432 230 408.5 237.5 c 128,-1,11
 385 245 385 245 354.5 251 c 128,-1,12
 324 257 324 257 290.5 264.5 c 128,-1,13
 257 272 257 272 223.5 282 c 128,-1,14
 190 292 190 292 159.5 308.5 c 128,-1,15
 129 325 129 325 105.5 347 c 128,-1,16
 82 369 82 369 68 403 c 128,-1,17
 54 437 54 437 54 480 c 0,18,19
 54 538 54 538 79 581.5 c 128,-1,20
 104 625 104 625 147.5 650.5 c 128,-1,21
 191 676 191 676 245 688 c 128,-1,22
 299 700 299 700 362.5 700 c 128,-1,23
 426 700 426 700 480 687.5 c 128,-1,24
 534 675 534 675 576 649.5 c 128,-1,25
 618 624 618 624 642 583 c 128,-1,26
 666 542 666 542 667 488 c 1,27,-1
 667 476 l 1,28,-1
 460 476 l 1,29,-1
 460 480 l 2,30,31
 460 510 460 510 438 530 c 128,-1,32
 416 550 416 550 371 550 c 0,33,34
 328 550 328 550 304 537 c 128,-1,35
 280 524 280 524 280 505 c 0,36,37
 280 489 280 489 293.5 477 c 128,-1,38
 307 465 307 465 330.5 457.5 c 128,-1,39
 354 450 354 450 384 444 c 128,-1,40
 414 438 414 438 447.5 431 c 128,-1,41
 481 424 481 424 514.5 414.5 c 128,-1,42
 548 405 548 405 578.5 390 c 128,-1,43
 609 375 609 375 632.5 354 c 128,-1,44
 656 333 656 333 670.5 301 c 128,-1,45
 685 269 685 269 686 228 c 1,46,47
 686 167 686 167 664 120.5 c 128,-1,48
 642 74 642 74 602 46 c 128,-1,49
 562 18 562 18 510 3.5 c 128,-1,50
 458 -11 458 -11 393 -12 c 1,51,-1
 391 -29 l 1,52,53
 432 -33 432 -33 457.5 -54 c 128,-1,54
 483 -75 483 -75 483 -118 c 0,55,56
 483 -145 483 -145 471.5 -164.5 c 128,-1,57
 460 -184 460 -184 441 -193.5 c 128,-1,58
 422 -203 422 -203 403.5 -207 c 128,-1,59
 385 -211 385 -211 365 -211 c 0,60,61
 288 -211 288 -211 239 -195 c 1,62,-1
 239 -141 l 1,63,64
 304 -149 304 -149 356 -149 c 0,65,66
 396 -149 396 -149 396 -118 c 0,67,68
 396 -86 396 -86 358 -86 c 2,69,-1
 320 -86 l 1,70,-1
 332 -11 l 1,71,72
 280 -8 280 -8 237.5 0.5 c 128,-1,73
 195 9 195 9 158 27 c 128,-1,74
 121 45 121 45 96 72.5 c 128,-1,75
 71 100 71 100 57 140.5 c 128,-1,76
 43 181 43 181 43 233 c 1,77,-1
 252 233 l 1,0,1
EndSplineSet
EndChar

StartChar: Scircumflex
Encoding: 348 348 95
Width: 721
Flags: MW
LayerCount: 2
UndoRedoHistory
Layer: 0
Undoes
EndUndoes
Redoes
EndRedoes
EndUndoRedoHistory
UndoRedoHistory
Layer: 1
Undoes
EndUndoes
Redoes
EndRedoes
EndUndoRedoHistory
Fore
SplineSet
252 233 m 1,0,1
 252 181 252 181 279 163.5 c 128,-1,2
 306 146 306 146 363 146 c 0,3,4
 382 146 382 146 395.5 147 c 128,-1,5
 409 148 409 148 425.5 152.5 c 128,-1,6
 442 157 442 157 451 167 c 128,-1,7
 460 177 460 177 460 192 c 0,8,9
 460 208 460 208 446 219 c 128,-1,10
 432 230 432 230 408.5 237.5 c 128,-1,11
 385 245 385 245 354.5 251 c 128,-1,12
 324 257 324 257 290.5 264.5 c 128,-1,13
 257 272 257 272 223.5 282 c 128,-1,14
 190 292 190 292 159.5 308.5 c 128,-1,15
 129 325 129 325 105.5 347 c 128,-1,16
 82 369 82 369 68 403 c 128,-1,17
 54 437 54 437 54 480 c 0,18,19
 54 538 54 538 79 581.5 c 128,-1,20
 104 625 104 625 147.5 650.5 c 128,-1,21
 191 676 191 676 245 688 c 128,-1,22
 299 700 299 700 362.5 700 c 128,-1,23
 426 700 426 700 480 687.5 c 128,-1,24
 534 675 534 675 576 649.5 c 128,-1,25
 618 624 618 624 642 583 c 128,-1,26
 666 542 666 542 667 488 c 1,27,-1
 667 476 l 1,28,-1
 460 476 l 1,29,-1
 460 480 l 2,30,31
 460 510 460 510 438 530 c 128,-1,32
 416 550 416 550 371 550 c 0,33,34
 328 550 328 550 304 537 c 128,-1,35
 280 524 280 524 280 505 c 0,36,37
 280 489 280 489 293.5 477 c 128,-1,38
 307 465 307 465 330.5 457.5 c 128,-1,39
 354 450 354 450 384 444 c 128,-1,40
 414 438 414 438 447.5 431 c 128,-1,41
 481 424 481 424 514.5 414.5 c 128,-1,42
 548 405 548 405 578.5 390 c 128,-1,43
 609 375 609 375 632.5 354 c 128,-1,44
 656 333 656 333 670.5 301 c 128,-1,45
 685 269 685 269 686 228 c 1,46,47
 686 178 686 178 671 137.5 c 128,-1,48
 656 97 656 97 629.5 69.5 c 128,-1,49
 603 42 603 42 564.5 23.5 c 128,-1,50
 526 5 526 5 481 -3.5 c 128,-1,51
 436 -12 436 -12 383 -12 c 0,52,53
 322 -12 322 -12 273.5 -5.5 c 128,-1,54
 225 1 225 1 180.5 18 c 128,-1,55
 136 35 136 35 106.5 62 c 128,-1,56
 77 89 77 89 60 132.5 c 128,-1,57
 43 176 43 176 43 233 c 1,58,-1
 252 233 l 1,0,1
435 740 m 1,59,-1
 360 817 l 1,60,-1
 286 740 l 1,61,-1
 158 740 l 1,62,-1
 297 885 l 1,63,-1
 425 885 l 1,64,-1
 564 740 l 1,65,-1
 435 740 l 1,59,-1
EndSplineSet
EndChar

StartChar: Scommaaccent
Encoding: 536 536 96
Width: 721
Flags: MW
LayerCount: 2
UndoRedoHistory
Layer: 0
Undoes
EndUndoes
Redoes
EndRedoes
EndUndoRedoHistory
UndoRedoHistory
Layer: 1
Undoes
EndUndoes
Redoes
EndRedoes
EndUndoRedoHistory
Fore
SplineSet
372 -267 m 1,0,-1
 305 -267 l 1,1,-1
 346 -175 l 1,2,-1
 296 -175 l 1,3,-1
 296 -59 l 1,4,-1
 426 -59 l 1,5,-1
 426 -168 l 1,6,-1
 372 -267 l 1,0,-1
252 233 m 1,7,8
 252 181 252 181 279 163.5 c 128,-1,9
 306 146 306 146 363 146 c 0,10,11
 382 146 382 146 395.5 147 c 128,-1,12
 409 148 409 148 425.5 152.5 c 128,-1,13
 442 157 442 157 451 167 c 128,-1,14
 460 177 460 177 460 192 c 0,15,16
 460 208 460 208 446 219 c 128,-1,17
 432 230 432 230 408.5 237.5 c 128,-1,18
 385 245 385 245 354.5 251 c 128,-1,19
 324 257 324 257 290.5 264.5 c 128,-1,20
 257 272 257 272 223.5 282 c 128,-1,21
 190 292 190 292 159.5 308.5 c 128,-1,22
 129 325 129 325 105.5 347 c 128,-1,23
 82 369 82 369 68 403 c 128,-1,24
 54 437 54 437 54 480 c 0,25,26
 54 538 54 538 79 581.5 c 128,-1,27
 104 625 104 625 147.5 650.5 c 128,-1,28
 191 676 191 676 245 688 c 128,-1,29
 299 700 299 700 362.5 700 c 128,-1,30
 426 700 426 700 480 687.5 c 128,-1,31
 534 675 534 675 576 649.5 c 128,-1,32
 618 624 618 624 642 583 c 128,-1,33
 666 542 666 542 667 488 c 1,34,-1
 667 476 l 1,35,-1
 460 476 l 1,36,-1
 460 480 l 2,37,38
 460 510 460 510 438 530 c 128,-1,39
 416 550 416 550 371 550 c 0,40,41
 328 550 328 550 304 537 c 128,-1,42
 280 524 280 524 280 505 c 0,43,44
 280 489 280 489 293.5 477 c 128,-1,45
 307 465 307 465 330.5 457.5 c 128,-1,46
 354 450 354 450 384 444 c 128,-1,47
 414 438 414 438 447.5 431 c 128,-1,48
 481 424 481 424 514.5 414.5 c 128,-1,49
 548 405 548 405 578.5 390 c 128,-1,50
 609 375 609 375 632.5 354 c 128,-1,51
 656 333 656 333 670.5 301 c 128,-1,52
 685 269 685 269 686 228 c 1,53,54
 686 178 686 178 671 137.5 c 128,-1,55
 656 97 656 97 629.5 69.5 c 128,-1,56
 603 42 603 42 564.5 23.5 c 128,-1,57
 526 5 526 5 481 -3.5 c 128,-1,58
 436 -12 436 -12 383 -12 c 0,59,60
 322 -12 322 -12 273.5 -5.5 c 128,-1,61
 225 1 225 1 180.5 18 c 128,-1,62
 136 35 136 35 106.5 62 c 128,-1,63
 77 89 77 89 60 132.5 c 128,-1,64
 43 176 43 176 43 233 c 1,65,-1
 252 233 l 1,7,8
EndSplineSet
EndChar

StartChar: T
Encoding: 84 84 97
Width: 721
Flags: MW
LayerCount: 2
UndoRedoHistory
Layer: 0
Undoes
EndUndoes
Redoes
EndRedoes
EndUndoRedoHistory
UndoRedoHistory
Layer: 1
Undoes
EndUndoes
Redoes
EndRedoes
EndUndoRedoHistory
Fore
SplineSet
470 512 m 1,0,-1
 470 0 l 1,1,-1
 249 0 l 1,2,-1
 249 512 l 1,3,-1
 23 512 l 1,4,-1
 23 688 l 1,5,-1
 695 688 l 1,6,-1
 695 512 l 1,7,-1
 470 512 l 1,0,-1
EndSplineSet
EndChar

StartChar: Tbar
Encoding: 358 358 98
Width: 721
Flags: MW
LayerCount: 2
UndoRedoHistory
Layer: 0
Undoes
EndUndoes
Redoes
EndRedoes
EndUndoRedoHistory
UndoRedoHistory
Layer: 1
Undoes
EndUndoes
Redoes
EndRedoes
EndUndoRedoHistory
Fore
SplineSet
470 269 m 1,0,-1
 470 0 l 1,1,-1
 249 0 l 1,2,-1
 249 269 l 1,3,-1
 86 269 l 1,4,-1
 86 369 l 1,5,-1
 249 369 l 1,6,-1
 249 512 l 1,7,-1
 23 512 l 1,8,-1
 23 688 l 1,9,-1
 695 688 l 1,10,-1
 695 512 l 1,11,-1
 470 512 l 1,12,-1
 470 369 l 1,13,-1
 632 369 l 1,14,-1
 632 269 l 1,15,-1
 470 269 l 1,0,-1
EndSplineSet
EndChar

StartChar: Tcaron
Encoding: 356 356 99
Width: 721
Flags: MW
LayerCount: 2
UndoRedoHistory
Layer: 0
Undoes
EndUndoes
Redoes
EndRedoes
EndUndoRedoHistory
UndoRedoHistory
Layer: 1
Undoes
EndUndoes
Redoes
EndRedoes
EndUndoRedoHistory
Fore
SplineSet
470 512 m 1,0,-1
 470 0 l 1,1,-1
 249 0 l 1,2,-1
 249 512 l 1,3,-1
 23 512 l 1,4,-1
 23 688 l 1,5,-1
 695 688 l 1,6,-1
 695 512 l 1,7,-1
 470 512 l 1,0,-1
297 740 m 1,8,-1
 158 885 l 1,9,-1
 286 885 l 1,10,-1
 360 808 l 1,11,-1
 435 885 l 1,12,-1
 564 885 l 1,13,-1
 425 740 l 1,14,-1
 297 740 l 1,8,-1
EndSplineSet
EndChar

StartChar: Tcedilla
Encoding: 354 354 100
Width: 721
Flags: MW
LayerCount: 2
UndoRedoHistory
Layer: 0
Undoes
EndUndoes
Redoes
EndRedoes
EndUndoRedoHistory
UndoRedoHistory
Layer: 1
Undoes
EndUndoes
Redoes
EndRedoes
EndUndoRedoHistory
Fore
SplineSet
395 0 m 1,0,-1
 390 -29 l 1,1,2
 483 -38 483 -38 483 -118 c 0,3,4
 483 -140 483 -140 475 -157 c 128,-1,5
 467 -174 467 -174 455 -184 c 128,-1,6
 443 -194 443 -194 426.5 -200.5 c 128,-1,7
 410 -207 410 -207 395 -209 c 128,-1,8
 380 -211 380 -211 365 -211 c 0,9,10
 286 -211 286 -211 239 -195 c 1,11,-1
 239 -141 l 1,12,13
 304 -149 304 -149 356 -149 c 0,14,15
 396 -149 396 -149 396 -118 c 0,16,17
 396 -86 396 -86 358 -86 c 2,18,-1
 320 -86 l 1,19,-1
 333 0 l 1,20,-1
 249 0 l 1,21,-1
 249 512 l 1,22,-1
 23 512 l 1,23,-1
 23 688 l 1,24,-1
 695 688 l 1,25,-1
 695 512 l 1,26,-1
 470 512 l 1,27,-1
 470 0 l 1,28,-1
 395 0 l 1,0,-1
EndSplineSet
EndChar

StartChar: uni021A
Encoding: 538 538 101
Width: 721
Flags: MW
LayerCount: 2
UndoRedoHistory
Layer: 0
Undoes
EndUndoes
Redoes
EndRedoes
EndUndoRedoHistory
UndoRedoHistory
Layer: 1
Undoes
EndUndoes
Redoes
EndRedoes
EndUndoRedoHistory
Fore
SplineSet
372 -267 m 1,0,-1
 305 -267 l 1,1,-1
 346 -175 l 1,2,-1
 296 -175 l 1,3,-1
 296 -59 l 1,4,-1
 426 -59 l 1,5,-1
 426 -168 l 1,6,-1
 372 -267 l 1,0,-1
470 512 m 1,7,-1
 470 0 l 1,8,-1
 249 0 l 1,9,-1
 249 512 l 1,10,-1
 23 512 l 1,11,-1
 23 688 l 1,12,-1
 695 688 l 1,13,-1
 695 512 l 1,14,-1
 470 512 l 1,7,-1
EndSplineSet
EndChar

StartChar: U
Encoding: 85 85 102
Width: 832
Flags: MW
LayerCount: 2
UndoRedoHistory
Layer: 0
Undoes
EndUndoes
Redoes
EndRedoes
EndUndoRedoHistory
UndoRedoHistory
Layer: 1
Undoes
EndUndoes
Redoes
EndRedoes
EndUndoRedoHistory
Fore
SplineSet
759 277 m 2,0,1
 759 136 759 136 670 62 c 128,-1,2
 581 -12 581 -12 417 -12 c 128,-1,3
 253 -12 253 -12 163.5 62 c 128,-1,4
 74 136 74 136 74 277 c 2,5,-1
 74 688 l 1,6,-1
 295 688 l 1,7,-1
 295 280 l 2,8,9
 295 222 295 222 326 187.5 c 128,-1,10
 357 153 357 153 416 153 c 128,-1,11
 475 153 475 153 506.5 187.5 c 128,-1,12
 538 222 538 222 538 280 c 2,13,-1
 538 688 l 1,14,-1
 759 688 l 1,15,-1
 759 277 l 2,0,1
EndSplineSet
EndChar

StartChar: Uacute
Encoding: 218 218 103
Width: 832
Flags: MW
LayerCount: 2
UndoRedoHistory
Layer: 0
Undoes
EndUndoes
Redoes
EndRedoes
EndUndoRedoHistory
UndoRedoHistory
Layer: 1
Undoes
EndUndoes
Redoes
EndRedoes
EndUndoRedoHistory
Fore
SplineSet
759 277 m 2,0,1
 759 136 759 136 670 62 c 128,-1,2
 581 -12 581 -12 417 -12 c 128,-1,3
 253 -12 253 -12 163.5 62 c 128,-1,4
 74 136 74 136 74 277 c 2,5,-1
 74 688 l 1,6,-1
 295 688 l 1,7,-1
 295 280 l 2,8,9
 295 222 295 222 326 187.5 c 128,-1,10
 357 153 357 153 416 153 c 128,-1,11
 475 153 475 153 506.5 187.5 c 128,-1,12
 538 222 538 222 538 280 c 2,13,-1
 538 688 l 1,14,-1
 759 688 l 1,15,-1
 759 277 l 2,0,1
320 752 m 1,16,-1
 413 885 l 1,17,-1
 605 885 l 1,18,-1
 607 881 l 1,19,-1
 448 752 l 1,20,-1
 320 752 l 1,16,-1
EndSplineSet
EndChar

StartChar: Ubreve
Encoding: 364 364 104
Width: 832
Flags: MW
LayerCount: 2
UndoRedoHistory
Layer: 0
Undoes
EndUndoes
Redoes
EndRedoes
EndUndoRedoHistory
UndoRedoHistory
Layer: 1
Undoes
EndUndoes
Redoes
EndRedoes
EndUndoRedoHistory
Fore
SplineSet
759 277 m 2,0,1
 759 136 759 136 670 62 c 128,-1,2
 581 -12 581 -12 417 -12 c 128,-1,3
 253 -12 253 -12 163.5 62 c 128,-1,4
 74 136 74 136 74 277 c 2,5,-1
 74 688 l 1,6,-1
 295 688 l 1,7,-1
 295 280 l 2,8,9
 295 222 295 222 326 187.5 c 128,-1,10
 357 153 357 153 416 153 c 128,-1,11
 475 153 475 153 506.5 187.5 c 128,-1,12
 538 222 538 222 538 280 c 2,13,-1
 538 688 l 1,14,-1
 759 688 l 1,15,-1
 759 277 l 2,0,1
601 885 m 1,16,17
 601 860 601 860 588 834.5 c 128,-1,18
 575 809 575 809 551.5 788 c 128,-1,19
 528 767 528 767 492.5 754 c 128,-1,20
 457 741 457 741 416 741 c 0,21,22
 334 741 334 741 283 786 c 128,-1,23
 232 831 232 831 232 885 c 1,24,-1
 328 885 l 1,25,26
 331 867 331 867 356.5 851 c 128,-1,27
 382 835 382 835 416 835 c 0,28,29
 451 835 451 835 476.5 851 c 128,-1,30
 502 867 502 867 506 885 c 1,31,-1
 601 885 l 1,16,17
EndSplineSet
EndChar

StartChar: Ucircumflex
Encoding: 219 219 105
Width: 832
Flags: MW
LayerCount: 2
UndoRedoHistory
Layer: 0
Undoes
EndUndoes
Redoes
EndRedoes
EndUndoRedoHistory
UndoRedoHistory
Layer: 1
Undoes
EndUndoes
Redoes
EndRedoes
EndUndoRedoHistory
Fore
SplineSet
759 277 m 2,0,1
 759 136 759 136 670 62 c 128,-1,2
 581 -12 581 -12 417 -12 c 128,-1,3
 253 -12 253 -12 163.5 62 c 128,-1,4
 74 136 74 136 74 277 c 2,5,-1
 74 688 l 1,6,-1
 295 688 l 1,7,-1
 295 280 l 2,8,9
 295 222 295 222 326 187.5 c 128,-1,10
 357 153 357 153 416 153 c 128,-1,11
 475 153 475 153 506.5 187.5 c 128,-1,12
 538 222 538 222 538 280 c 2,13,-1
 538 688 l 1,14,-1
 759 688 l 1,15,-1
 759 277 l 2,0,1
490 740 m 1,16,-1
 416 817 l 1,17,-1
 341 740 l 1,18,-1
 213 740 l 1,19,-1
 353 885 l 1,20,-1
 480 885 l 1,21,-1
 620 740 l 1,22,-1
 490 740 l 1,16,-1
EndSplineSet
EndChar

StartChar: Udieresis
Encoding: 220 220 106
Width: 832
Flags: MW
LayerCount: 2
UndoRedoHistory
Layer: 0
Undoes
EndUndoes
Redoes
EndRedoes
EndUndoRedoHistory
UndoRedoHistory
Layer: 1
Undoes
EndUndoes
Redoes
EndRedoes
EndUndoRedoHistory
Fore
SplineSet
759 277 m 2,0,1
 759 136 759 136 670 62 c 128,-1,2
 581 -12 581 -12 417 -12 c 128,-1,3
 253 -12 253 -12 163.5 62 c 128,-1,4
 74 136 74 136 74 277 c 2,5,-1
 74 688 l 1,6,-1
 295 688 l 1,7,-1
 295 280 l 2,8,9
 295 222 295 222 326 187.5 c 128,-1,10
 357 153 357 153 416 153 c 128,-1,11
 475 153 475 153 506.5 187.5 c 128,-1,12
 538 222 538 222 538 280 c 2,13,-1
 538 688 l 1,14,-1
 759 688 l 1,15,-1
 759 277 l 2,0,1
451 746 m 1,16,-1
 451 885 l 1,17,-1
 603 885 l 1,18,-1
 603 746 l 1,19,-1
 451 746 l 1,16,-1
230 746 m 1,20,-1
 230 885 l 1,21,-1
 382 885 l 1,22,-1
 382 746 l 1,23,-1
 230 746 l 1,20,-1
EndSplineSet
EndChar

StartChar: Ugrave
Encoding: 217 217 107
Width: 832
Flags: MW
LayerCount: 2
UndoRedoHistory
Layer: 0
Undoes
EndUndoes
Redoes
EndRedoes
EndUndoRedoHistory
UndoRedoHistory
Layer: 1
Undoes
EndUndoes
Redoes
EndRedoes
EndUndoRedoHistory
Fore
SplineSet
759 277 m 2,0,1
 759 136 759 136 670 62 c 128,-1,2
 581 -12 581 -12 417 -12 c 128,-1,3
 253 -12 253 -12 163.5 62 c 128,-1,4
 74 136 74 136 74 277 c 2,5,-1
 74 688 l 1,6,-1
 295 688 l 1,7,-1
 295 280 l 2,8,9
 295 222 295 222 326 187.5 c 128,-1,10
 357 153 357 153 416 153 c 128,-1,11
 475 153 475 153 506.5 187.5 c 128,-1,12
 538 222 538 222 538 280 c 2,13,-1
 538 688 l 1,14,-1
 759 688 l 1,15,-1
 759 277 l 2,0,1
226 881 m 1,16,-1
 228 885 l 1,17,-1
 420 885 l 1,18,-1
 513 752 l 1,19,-1
 386 752 l 1,20,-1
 226 881 l 1,16,-1
EndSplineSet
EndChar

StartChar: Uhungarumlaut
Encoding: 368 368 108
Width: 832
Flags: MW
LayerCount: 2
UndoRedoHistory
Layer: 0
Undoes
EndUndoes
Redoes
EndRedoes
EndUndoRedoHistory
UndoRedoHistory
Layer: 1
Undoes
EndUndoes
Redoes
EndRedoes
EndUndoRedoHistory
Fore
SplineSet
759 277 m 2,0,1
 759 136 759 136 670 62 c 128,-1,2
 581 -12 581 -12 417 -12 c 128,-1,3
 253 -12 253 -12 163.5 62 c 128,-1,4
 74 136 74 136 74 277 c 2,5,-1
 74 688 l 1,6,-1
 295 688 l 1,7,-1
 295 280 l 2,8,9
 295 222 295 222 326 187.5 c 128,-1,10
 357 153 357 153 416 153 c 128,-1,11
 475 153 475 153 506.5 187.5 c 128,-1,12
 538 222 538 222 538 280 c 2,13,-1
 538 688 l 1,14,-1
 759 688 l 1,15,-1
 759 277 l 2,0,1
574 752 m 1,16,-1
 457 752 l 1,17,-1
 533 886 l 1,18,-1
 711 886 l 1,19,-1
 713 882 l 1,20,-1
 574 752 l 1,16,-1
363 752 m 1,21,-1
 246 752 l 1,22,-1
 322 886 l 1,23,-1
 500 886 l 1,24,-1
 502 882 l 1,25,-1
 363 752 l 1,21,-1
EndSplineSet
EndChar

StartChar: Umacron
Encoding: 362 362 109
Width: 832
Flags: MW
LayerCount: 2
UndoRedoHistory
Layer: 0
Undoes
EndUndoes
Redoes
EndRedoes
EndUndoRedoHistory
UndoRedoHistory
Layer: 1
Undoes
EndUndoes
Redoes
EndRedoes
EndUndoRedoHistory
Fore
SplineSet
759 277 m 2,0,1
 759 136 759 136 670 62 c 128,-1,2
 581 -12 581 -12 417 -12 c 128,-1,3
 253 -12 253 -12 163.5 62 c 128,-1,4
 74 136 74 136 74 277 c 2,5,-1
 74 688 l 1,6,-1
 295 688 l 1,7,-1
 295 280 l 2,8,9
 295 222 295 222 326 187.5 c 128,-1,10
 357 153 357 153 416 153 c 128,-1,11
 475 153 475 153 506.5 187.5 c 128,-1,12
 538 222 538 222 538 280 c 2,13,-1
 538 688 l 1,14,-1
 759 688 l 1,15,-1
 759 277 l 2,0,1
258 765 m 1,16,-1
 258 865 l 1,17,-1
 575 865 l 1,18,-1
 575 765 l 1,19,-1
 258 765 l 1,16,-1
EndSplineSet
EndChar

StartChar: Uogonek
Encoding: 370 370 110
Width: 832
Flags: MW
LayerCount: 2
UndoRedoHistory
Layer: 0
Undoes
EndUndoes
Redoes
EndRedoes
EndUndoRedoHistory
UndoRedoHistory
Layer: 1
Undoes
EndUndoes
Redoes
EndRedoes
EndUndoRedoHistory
Fore
SplineSet
759 277 m 2,0,1
 759 172 759 172 708.5 103.5 c 128,-1,2
 658 35 658 35 563 7 c 1,3,4
 544 -33 544 -33 544 -69 c 0,5,6
 544 -91 544 -91 558.5 -105.5 c 128,-1,7
 573 -120 573 -120 604 -120 c 2,8,-1
 646 -120 l 1,9,-1
 646 -196 l 1,10,11
 598 -211 598 -211 550 -211 c 0,12,13
 525 -211 525 -211 503 -204.5 c 128,-1,14
 481 -198 481 -198 463 -185 c 128,-1,15
 445 -172 445 -172 434.5 -149.5 c 128,-1,16
 424 -127 424 -127 424 -97 c 0,17,18
 424 -52 424 -52 456 -11 c 1,19,20
 443 -12 443 -12 417 -12 c 0,21,22
 253 -12 253 -12 163.5 62 c 128,-1,23
 74 136 74 136 74 277 c 2,24,-1
 74 688 l 1,25,-1
 295 688 l 1,26,-1
 295 280 l 2,27,28
 295 222 295 222 326 187.5 c 128,-1,29
 357 153 357 153 416 153 c 128,-1,30
 475 153 475 153 506.5 187.5 c 128,-1,31
 538 222 538 222 538 280 c 2,32,-1
 538 688 l 1,33,-1
 759 688 l 1,34,-1
 759 277 l 2,0,1
EndSplineSet
EndChar

StartChar: Uring
Encoding: 366 366 111
Width: 832
Flags: MW
LayerCount: 2
UndoRedoHistory
Layer: 0
Undoes
EndUndoes
Redoes
EndRedoes
EndUndoRedoHistory
UndoRedoHistory
Layer: 1
Undoes
EndUndoes
Redoes
EndRedoes
EndUndoRedoHistory
Fore
SplineSet
759 277 m 2,0,1
 759 136 759 136 670 62 c 128,-1,2
 581 -12 581 -12 417 -12 c 128,-1,3
 253 -12 253 -12 163.5 62 c 128,-1,4
 74 136 74 136 74 277 c 2,5,-1
 74 688 l 1,6,-1
 295 688 l 1,7,-1
 295 280 l 2,8,9
 295 222 295 222 326 187.5 c 128,-1,10
 357 153 357 153 416 153 c 128,-1,11
 475 153 475 153 506.5 187.5 c 128,-1,12
 538 222 538 222 538 280 c 2,13,-1
 538 688 l 1,14,-1
 759 688 l 1,15,-1
 759 277 l 2,0,1
417 885 m 0,16,17
 399 885 399 885 387.5 873.5 c 128,-1,18
 376 862 376 862 376 844 c 0,19,20
 376 827 376 827 387.5 816 c 128,-1,21
 399 805 399 805 417 805 c 0,22,23
 434 805 434 805 445.5 816.5 c 128,-1,24
 457 828 457 828 457 846 c 0,25,26
 457 863 457 863 445.5 874 c 128,-1,27
 434 885 434 885 417 885 c 0,16,17
417 954 m 0,28,29
 461 954 461 954 493 922.5 c 128,-1,30
 525 891 525 891 525 845 c 0,31,32
 525 801 525 801 493.5 769 c 128,-1,33
 462 737 462 737 417 737 c 128,-1,34
 372 737 372 737 340 768.5 c 128,-1,35
 308 800 308 800 308 845 c 0,36,37
 308 890 308 890 340 922 c 128,-1,38
 372 954 372 954 417 954 c 0,28,29
EndSplineSet
EndChar

StartChar: Utilde
Encoding: 360 360 112
Width: 832
Flags: MW
LayerCount: 2
UndoRedoHistory
Layer: 0
Undoes
EndUndoes
Redoes
EndRedoes
EndUndoRedoHistory
UndoRedoHistory
Layer: 1
Undoes
EndUndoes
Redoes
EndRedoes
EndUndoRedoHistory
Fore
SplineSet
759 277 m 2,0,1
 759 136 759 136 670 62 c 128,-1,2
 581 -12 581 -12 417 -12 c 128,-1,3
 253 -12 253 -12 163.5 62 c 128,-1,4
 74 136 74 136 74 277 c 2,5,-1
 74 688 l 1,6,-1
 295 688 l 1,7,-1
 295 280 l 2,8,9
 295 222 295 222 326 187.5 c 128,-1,10
 357 153 357 153 416 153 c 128,-1,11
 475 153 475 153 506.5 187.5 c 128,-1,12
 538 222 538 222 538 280 c 2,13,-1
 538 688 l 1,14,-1
 759 688 l 1,15,-1
 759 277 l 2,0,1
639 885 m 1,16,17
 639 829 639 829 599.5 785.5 c 128,-1,18
 560 742 560 742 499 742 c 0,19,20
 466 742 466 742 409 762 c 128,-1,21
 352 782 352 782 326 782 c 0,22,23
 307 782 307 782 294 771 c 128,-1,24
 281 760 281 760 275 742 c 1,25,-1
 194 742 l 1,26,27
 194 798 194 798 233.5 841.5 c 128,-1,28
 273 885 273 885 334 885 c 0,29,30
 367 885 367 885 424 865 c 128,-1,31
 481 845 481 845 507 845 c 0,32,33
 545 845 545 845 558 885 c 1,34,-1
 639 885 l 1,16,17
EndSplineSet
EndChar

StartChar: V
Encoding: 86 86 113
Width: 777
Flags: MW
LayerCount: 2
UndoRedoHistory
Layer: 0
Undoes
EndUndoes
Redoes
EndRedoes
EndUndoRedoHistory
UndoRedoHistory
Layer: 1
Undoes
EndUndoes
Redoes
EndRedoes
EndUndoRedoHistory
Fore
SplineSet
261 0 m 1,0,-1
 17 688 l 1,1,-1
 253 688 l 1,2,-1
 391 228 l 1,3,-1
 395 228 l 1,4,-1
 534 688 l 1,5,-1
 760 688 l 1,6,-1
 517 0 l 1,7,-1
 261 0 l 1,0,-1
EndSplineSet
EndChar

StartChar: W
Encoding: 87 87 114
Width: 1000
Flags: MW
LayerCount: 2
UndoRedoHistory
Layer: 0
Undoes
EndUndoes
Redoes
EndRedoes
EndUndoRedoHistory
UndoRedoHistory
Layer: 1
Undoes
EndUndoes
Redoes
EndRedoes
EndUndoRedoHistory
Fore
SplineSet
591 0 m 1,0,-1
 502 419 l 1,1,-1
 498 419 l 1,2,-1
 409 0 l 1,3,-1
 166 0 l 1,4,-1
 5 688 l 1,5,-1
 235 688 l 1,6,-1
 314 298 l 1,7,-1
 318 298 l 1,8,-1
 396 688 l 1,9,-1
 614 688 l 1,10,-1
 697 298 l 1,11,-1
 701 298 l 1,12,-1
 775 688 l 1,13,-1
 995 688 l 1,14,-1
 834 0 l 1,15,-1
 591 0 l 1,0,-1
EndSplineSet
EndChar

StartChar: Wacute
Encoding: 7810 7810 115
Width: 1000
Flags: MW
LayerCount: 2
UndoRedoHistory
Layer: 0
Undoes
EndUndoes
Redoes
EndRedoes
EndUndoRedoHistory
UndoRedoHistory
Layer: 1
Undoes
EndUndoes
Redoes
EndRedoes
EndUndoRedoHistory
Fore
SplineSet
502 419 m 1,0,-1
 498 419 l 1,1,-1
 409 0 l 1,2,-1
 166 0 l 1,3,-1
 5 688 l 1,4,-1
 235 688 l 1,5,-1
 314 298 l 1,6,-1
 318 298 l 1,7,-1
 396 688 l 1,8,-1
 614 688 l 1,9,-1
 697 298 l 1,10,-1
 701 298 l 1,11,-1
 775 688 l 1,12,-1
 995 688 l 1,13,-1
 834 0 l 1,14,-1
 591 0 l 1,15,-1
 502 419 l 1,0,-1
404 752 m 1,16,-1
 496 885 l 1,17,-1
 689 885 l 1,18,-1
 691 881 l 1,19,-1
 531 752 l 1,20,-1
 404 752 l 1,16,-1
EndSplineSet
EndChar

StartChar: Wcircumflex
Encoding: 372 372 116
Width: 1000
Flags: MW
LayerCount: 2
UndoRedoHistory
Layer: 0
Undoes
EndUndoes
Redoes
EndRedoes
EndUndoRedoHistory
UndoRedoHistory
Layer: 1
Undoes
EndUndoes
Redoes
EndRedoes
EndUndoRedoHistory
Fore
SplineSet
591 0 m 1,0,-1
 502 419 l 1,1,-1
 498 419 l 1,2,-1
 409 0 l 1,3,-1
 166 0 l 1,4,-1
 5 688 l 1,5,-1
 235 688 l 1,6,-1
 314 298 l 1,7,-1
 318 298 l 1,8,-1
 396 688 l 1,9,-1
 614 688 l 1,10,-1
 697 298 l 1,11,-1
 701 298 l 1,12,-1
 775 688 l 1,13,-1
 995 688 l 1,14,-1
 834 0 l 1,15,-1
 591 0 l 1,0,-1
573 740 m 1,16,-1
 499 817 l 1,17,-1
 425 740 l 1,18,-1
 297 740 l 1,19,-1
 436 885 l 1,20,-1
 564 885 l 1,21,-1
 703 740 l 1,22,-1
 573 740 l 1,16,-1
EndSplineSet
EndChar

StartChar: Wdieresis
Encoding: 7812 7812 117
Width: 1000
Flags: MW
LayerCount: 2
UndoRedoHistory
Layer: 0
Undoes
EndUndoes
Redoes
EndRedoes
EndUndoRedoHistory
UndoRedoHistory
Layer: 1
Undoes
EndUndoes
Redoes
EndRedoes
EndUndoRedoHistory
Fore
SplineSet
591 0 m 1,0,-1
 502 419 l 1,1,-1
 498 419 l 1,2,-1
 409 0 l 1,3,-1
 166 0 l 1,4,-1
 5 688 l 1,5,-1
 235 688 l 1,6,-1
 314 298 l 1,7,-1
 318 298 l 1,8,-1
 396 688 l 1,9,-1
 614 688 l 1,10,-1
 697 298 l 1,11,-1
 701 298 l 1,12,-1
 775 688 l 1,13,-1
 995 688 l 1,14,-1
 834 0 l 1,15,-1
 591 0 l 1,0,-1
534 746 m 1,16,-1
 534 885 l 1,17,-1
 686 885 l 1,18,-1
 686 746 l 1,19,-1
 534 746 l 1,16,-1
314 746 m 1,20,-1
 314 885 l 1,21,-1
 466 885 l 1,22,-1
 466 746 l 1,23,-1
 314 746 l 1,20,-1
EndSplineSet
EndChar

StartChar: Wgrave
Encoding: 7808 7808 118
Width: 1000
Flags: MW
LayerCount: 2
UndoRedoHistory
Layer: 0
Undoes
EndUndoes
Redoes
EndRedoes
EndUndoRedoHistory
UndoRedoHistory
Layer: 1
Undoes
EndUndoes
Redoes
EndRedoes
EndUndoRedoHistory
Fore
SplineSet
502 419 m 1,0,-1
 498 419 l 1,1,-1
 409 0 l 1,2,-1
 166 0 l 1,3,-1
 5 688 l 1,4,-1
 235 688 l 1,5,-1
 314 298 l 1,6,-1
 318 298 l 1,7,-1
 396 688 l 1,8,-1
 614 688 l 1,9,-1
 697 298 l 1,10,-1
 701 298 l 1,11,-1
 775 688 l 1,12,-1
 995 688 l 1,13,-1
 834 0 l 1,14,-1
 591 0 l 1,15,-1
 502 419 l 1,0,-1
309 881 m 1,16,-1
 311 885 l 1,17,-1
 504 885 l 1,18,-1
 596 752 l 1,19,-1
 469 752 l 1,20,-1
 309 881 l 1,16,-1
EndSplineSet
EndChar

StartChar: X
Encoding: 88 88 119
Width: 777
Flags: MW
LayerCount: 2
UndoRedoHistory
Layer: 0
Undoes
EndUndoes
Redoes
EndRedoes
EndUndoRedoHistory
UndoRedoHistory
Layer: 1
Undoes
EndUndoes
Redoes
EndRedoes
EndUndoRedoHistory
Fore
SplineSet
778 0 m 1,0,-1
 510 0 l 1,1,-1
 383 214 l 1,2,-1
 379 214 l 1,3,-1
 252 0 l 1,4,-1
 4 0 l 1,5,-1
 250 364 l 1,6,-1
 28 688 l 1,7,-1
 295 688 l 1,8,-1
 399 512 l 1,9,-1
 403 512 l 1,10,-1
 508 688 l 1,11,-1
 755 688 l 1,12,-1
 532 363 l 1,13,-1
 778 0 l 1,0,-1
EndSplineSet
EndChar

StartChar: Y
Encoding: 89 89 120
Width: 777
Flags: MW
LayerCount: 2
UndoRedoHistory
Layer: 0
Undoes
EndUndoes
Redoes
EndRedoes
EndUndoRedoHistory
UndoRedoHistory
Layer: 1
Undoes
EndUndoes
Redoes
EndRedoes
EndUndoRedoHistory
Fore
SplineSet
501 0 m 1,0,-1
 280 0 l 1,1,-1
 280 267 l 1,2,-1
 7 688 l 1,3,-1
 261 688 l 1,4,-1
 393 459 l 1,5,-1
 397 459 l 1,6,-1
 529 688 l 1,7,-1
 770 688 l 1,8,-1
 501 267 l 1,9,-1
 501 0 l 1,0,-1
EndSplineSet
EndChar

StartChar: Yacute
Encoding: 221 221 121
Width: 777
Flags: MW
LayerCount: 2
UndoRedoHistory
Layer: 0
Undoes
EndUndoes
Redoes
EndRedoes
EndUndoRedoHistory
UndoRedoHistory
Layer: 1
Undoes
EndUndoes
Redoes
EndRedoes
EndUndoRedoHistory
Fore
SplineSet
280 0 m 1,0,-1
 280 267 l 1,1,-1
 7 688 l 1,2,-1
 261 688 l 1,3,-1
 393 459 l 1,4,-1
 397 459 l 1,5,-1
 529 688 l 1,6,-1
 770 688 l 1,7,-1
 501 267 l 1,8,-1
 501 0 l 1,9,-1
 280 0 l 1,0,-1
293 752 m 1,10,-1
 385 885 l 1,11,-1
 578 885 l 1,12,-1
 580 881 l 1,13,-1
 420 752 l 1,14,-1
 293 752 l 1,10,-1
EndSplineSet
EndChar

StartChar: Ycircumflex
Encoding: 374 374 122
Width: 777
Flags: MW
LayerCount: 2
UndoRedoHistory
Layer: 0
Undoes
EndUndoes
Redoes
EndRedoes
EndUndoRedoHistory
UndoRedoHistory
Layer: 1
Undoes
EndUndoes
Redoes
EndRedoes
EndUndoRedoHistory
Fore
SplineSet
501 0 m 1,0,-1
 280 0 l 1,1,-1
 280 267 l 1,2,-1
 7 688 l 1,3,-1
 261 688 l 1,4,-1
 393 459 l 1,5,-1
 397 459 l 1,6,-1
 529 688 l 1,7,-1
 770 688 l 1,8,-1
 501 267 l 1,9,-1
 501 0 l 1,0,-1
462 740 m 1,10,-1
 388 817 l 1,11,-1
 314 740 l 1,12,-1
 186 740 l 1,13,-1
 325 885 l 1,14,-1
 453 885 l 1,15,-1
 592 740 l 1,16,-1
 462 740 l 1,10,-1
EndSplineSet
EndChar

StartChar: Ydieresis
Encoding: 376 376 123
Width: 777
Flags: MW
LayerCount: 2
UndoRedoHistory
Layer: 0
Undoes
EndUndoes
Redoes
EndRedoes
EndUndoRedoHistory
UndoRedoHistory
Layer: 1
Undoes
EndUndoes
Redoes
EndRedoes
EndUndoRedoHistory
Fore
SplineSet
501 0 m 1,0,-1
 280 0 l 1,1,-1
 280 267 l 1,2,-1
 7 688 l 1,3,-1
 261 688 l 1,4,-1
 393 459 l 1,5,-1
 397 459 l 1,6,-1
 529 688 l 1,7,-1
 770 688 l 1,8,-1
 501 267 l 1,9,-1
 501 0 l 1,0,-1
423 746 m 1,10,-1
 423 885 l 1,11,-1
 575 885 l 1,12,-1
 575 746 l 1,13,-1
 423 746 l 1,10,-1
203 746 m 1,14,-1
 203 885 l 1,15,-1
 355 885 l 1,16,-1
 355 746 l 1,17,-1
 203 746 l 1,14,-1
EndSplineSet
EndChar

StartChar: Ygrave
Encoding: 7922 7922 124
Width: 777
Flags: MW
LayerCount: 2
UndoRedoHistory
Layer: 0
Undoes
EndUndoes
Redoes
EndRedoes
EndUndoRedoHistory
UndoRedoHistory
Layer: 1
Undoes
EndUndoes
Redoes
EndRedoes
EndUndoRedoHistory
Fore
SplineSet
280 0 m 1,0,-1
 280 267 l 1,1,-1
 7 688 l 1,2,-1
 261 688 l 1,3,-1
 393 459 l 1,4,-1
 397 459 l 1,5,-1
 529 688 l 1,6,-1
 770 688 l 1,7,-1
 501 267 l 1,8,-1
 501 0 l 1,9,-1
 280 0 l 1,0,-1
198 881 m 1,10,-1
 200 885 l 1,11,-1
 393 885 l 1,12,-1
 485 752 l 1,13,-1
 358 752 l 1,14,-1
 198 881 l 1,10,-1
EndSplineSet
EndChar

StartChar: Z
Encoding: 90 90 125
Width: 721
Flags: MW
LayerCount: 2
UndoRedoHistory
Layer: 0
Undoes
EndUndoes
Redoes
EndRedoes
EndUndoRedoHistory
UndoRedoHistory
Layer: 1
Undoes
EndUndoes
Redoes
EndRedoes
EndUndoRedoHistory
Fore
SplineSet
364 165 m 1,0,-1
 691 165 l 1,1,-1
 691 0 l 1,2,-1
 24 0 l 1,3,-1
 24 71 l 1,4,-1
 343 523 l 1,5,-1
 48 523 l 1,6,-1
 48 688 l 1,7,-1
 683 688 l 1,8,-1
 683 617 l 1,9,-1
 364 165 l 1,0,-1
EndSplineSet
EndChar

StartChar: Zacute
Encoding: 377 377 126
Width: 721
Flags: MW
LayerCount: 2
UndoRedoHistory
Layer: 0
Undoes
EndUndoes
Redoes
EndRedoes
EndUndoRedoHistory
UndoRedoHistory
Layer: 1
Undoes
EndUndoes
Redoes
EndRedoes
EndUndoRedoHistory
Fore
SplineSet
691 165 m 1,0,-1
 691 0 l 1,1,-1
 24 0 l 1,2,-1
 24 71 l 1,3,-1
 343 523 l 1,4,-1
 48 523 l 1,5,-1
 48 688 l 1,6,-1
 683 688 l 1,7,-1
 683 617 l 1,8,-1
 364 165 l 1,9,-1
 691 165 l 1,0,-1
265 752 m 1,10,-1
 357 885 l 1,11,-1
 550 885 l 1,12,-1
 552 881 l 1,13,-1
 393 752 l 1,14,-1
 265 752 l 1,10,-1
EndSplineSet
EndChar

StartChar: Zcaron
Encoding: 381 381 127
Width: 721
Flags: MW
LayerCount: 2
UndoRedoHistory
Layer: 0
Undoes
EndUndoes
Redoes
EndRedoes
EndUndoRedoHistory
UndoRedoHistory
Layer: 1
Undoes
EndUndoes
Redoes
EndRedoes
EndUndoRedoHistory
Fore
SplineSet
364 165 m 1,0,-1
 691 165 l 1,1,-1
 691 0 l 1,2,-1
 24 0 l 1,3,-1
 24 71 l 1,4,-1
 343 523 l 1,5,-1
 48 523 l 1,6,-1
 48 688 l 1,7,-1
 683 688 l 1,8,-1
 683 617 l 1,9,-1
 364 165 l 1,0,-1
297 740 m 1,10,-1
 158 885 l 1,11,-1
 286 885 l 1,12,-1
 360 808 l 1,13,-1
 435 885 l 1,14,-1
 564 885 l 1,15,-1
 425 740 l 1,16,-1
 297 740 l 1,10,-1
EndSplineSet
EndChar

StartChar: Zdotaccent
Encoding: 379 379 128
Width: 721
Flags: MW
LayerCount: 2
UndoRedoHistory
Layer: 0
Undoes
EndUndoes
Redoes
EndRedoes
EndUndoRedoHistory
UndoRedoHistory
Layer: 1
Undoes
EndUndoes
Redoes
EndRedoes
EndUndoRedoHistory
Fore
SplineSet
364 165 m 1,0,-1
 691 165 l 1,1,-1
 691 0 l 1,2,-1
 24 0 l 1,3,-1
 24 71 l 1,4,-1
 343 523 l 1,5,-1
 48 523 l 1,6,-1
 48 688 l 1,7,-1
 683 688 l 1,8,-1
 683 617 l 1,9,-1
 364 165 l 1,0,-1
285 746 m 1,10,-1
 285 885 l 1,11,-1
 437 885 l 1,12,-1
 437 746 l 1,13,-1
 285 746 l 1,10,-1
EndSplineSet
EndChar

StartChar: a
Encoding: 97 97 129
Width: 666
Flags: MW
LayerCount: 2
UndoRedoHistory
Layer: 0
Undoes
EndUndoes
Redoes
EndRedoes
EndUndoRedoHistory
UndoRedoHistory
Layer: 1
Undoes
EndUndoes
Redoes
EndRedoes
EndUndoRedoHistory
Fore
SplineSet
395 230 m 1,0,1
 311 230 311 230 270 211.5 c 128,-1,2
 229 193 229 193 229 162 c 0,3,4
 229 112 229 112 297 112 c 0,5,6
 336 112 336 112 365.5 133 c 128,-1,7
 395 154 395 154 395 185 c 2,8,-1
 395 230 l 1,0,1
46 363 m 1,9,10
 45 368 45 368 45 377 c 0,11,12
 45 452 45 452 116.5 496 c 128,-1,13
 188 540 188 540 321 540 c 0,14,15
 378 540 378 540 425 531 c 128,-1,16
 472 522 472 522 511 503 c 128,-1,17
 550 484 550 484 572 449.5 c 128,-1,18
 594 415 594 415 594 368 c 2,19,-1
 594 162 l 2,20,21
 594 144 594 144 602 133.5 c 128,-1,22
 610 123 610 123 626 123 c 2,23,-1
 662 123 l 1,24,-1
 662 8 l 1,25,26
 658 6 658 6 650 2.5 c 128,-1,27
 642 -1 642 -1 615 -6.5 c 128,-1,28
 588 -12 588 -12 558 -12 c 0,29,30
 499 -12 499 -12 462 5.5 c 128,-1,31
 425 23 425 23 411 54 c 1,32,33
 328 -12 328 -12 216 -12 c 0,34,35
 30 -12 30 -12 30 136 c 0,36,37
 30 183 30 183 46 216.5 c 128,-1,38
 62 250 62 250 91 271 c 128,-1,39
 120 292 120 292 167.5 303.5 c 128,-1,40
 215 315 215 315 268 319.5 c 128,-1,41
 321 324 321 324 395 324 c 1,42,-1
 395 350 l 2,43,44
 395 381 395 381 373.5 397 c 128,-1,45
 352 413 352 413 318 413 c 0,46,47
 287 413 287 413 264.5 402 c 128,-1,48
 242 391 242 391 242 367 c 2,49,-1
 242 363 l 1,50,-1
 46 363 l 1,9,10
EndSplineSet
EndChar

StartChar: aacute
Encoding: 225 225 130
Width: 666
Flags: MW
LayerCount: 2
UndoRedoHistory
Layer: 0
Undoes
EndUndoes
Redoes
EndRedoes
EndUndoRedoHistory
UndoRedoHistory
Layer: 1
Undoes
EndUndoes
Redoes
EndRedoes
EndUndoRedoHistory
Fore
SplineSet
395 230 m 1,0,1
 311 230 311 230 270 211.5 c 128,-1,2
 229 193 229 193 229 162 c 0,3,4
 229 112 229 112 297 112 c 0,5,6
 336 112 336 112 365.5 133 c 128,-1,7
 395 154 395 154 395 185 c 2,8,-1
 395 230 l 1,0,1
46 363 m 1,9,10
 45 368 45 368 45 377 c 0,11,12
 45 452 45 452 116.5 496 c 128,-1,13
 188 540 188 540 321 540 c 0,14,15
 378 540 378 540 425 531 c 128,-1,16
 472 522 472 522 511 503 c 128,-1,17
 550 484 550 484 572 449.5 c 128,-1,18
 594 415 594 415 594 368 c 2,19,-1
 594 162 l 2,20,21
 594 144 594 144 602 133.5 c 128,-1,22
 610 123 610 123 626 123 c 2,23,-1
 662 123 l 1,24,-1
 662 8 l 1,25,26
 658 6 658 6 650 2.5 c 128,-1,27
 642 -1 642 -1 615 -6.5 c 128,-1,28
 588 -12 588 -12 558 -12 c 0,29,30
 499 -12 499 -12 462 5.5 c 128,-1,31
 425 23 425 23 411 54 c 1,32,33
 328 -12 328 -12 216 -12 c 0,34,35
 30 -12 30 -12 30 136 c 0,36,37
 30 183 30 183 46 216.5 c 128,-1,38
 62 250 62 250 91 271 c 128,-1,39
 120 292 120 292 167.5 303.5 c 128,-1,40
 215 315 215 315 268 319.5 c 128,-1,41
 321 324 321 324 395 324 c 1,42,-1
 395 350 l 2,43,44
 395 381 395 381 373.5 397 c 128,-1,45
 352 413 352 413 318 413 c 0,46,47
 287 413 287 413 264.5 402 c 128,-1,48
 242 391 242 391 242 367 c 2,49,-1
 242 363 l 1,50,-1
 46 363 l 1,9,10
225 592 m 1,51,-1
 317 725 l 1,52,-1
 510 725 l 1,53,-1
 512 721 l 1,54,-1
 353 592 l 1,55,-1
 225 592 l 1,51,-1
EndSplineSet
EndChar

StartChar: abreve
Encoding: 259 259 131
Width: 666
Flags: MW
LayerCount: 2
UndoRedoHistory
Layer: 0
Undoes
EndUndoes
Redoes
EndRedoes
EndUndoRedoHistory
UndoRedoHistory
Layer: 1
Undoes
EndUndoes
Redoes
EndRedoes
EndUndoRedoHistory
Fore
SplineSet
395 230 m 1,0,1
 311 230 311 230 270 211.5 c 128,-1,2
 229 193 229 193 229 162 c 0,3,4
 229 112 229 112 297 112 c 0,5,6
 336 112 336 112 365.5 133 c 128,-1,7
 395 154 395 154 395 185 c 2,8,-1
 395 230 l 1,0,1
46 363 m 1,9,10
 45 368 45 368 45 377 c 0,11,12
 45 452 45 452 116.5 496 c 128,-1,13
 188 540 188 540 321 540 c 0,14,15
 378 540 378 540 425 531 c 128,-1,16
 472 522 472 522 511 503 c 128,-1,17
 550 484 550 484 572 449.5 c 128,-1,18
 594 415 594 415 594 368 c 2,19,-1
 594 162 l 2,20,21
 594 144 594 144 602 133.5 c 128,-1,22
 610 123 610 123 626 123 c 2,23,-1
 662 123 l 1,24,-1
 662 8 l 1,25,26
 658 6 658 6 650 2.5 c 128,-1,27
 642 -1 642 -1 615 -6.5 c 128,-1,28
 588 -12 588 -12 558 -12 c 0,29,30
 499 -12 499 -12 462 5.5 c 128,-1,31
 425 23 425 23 411 54 c 1,32,33
 328 -12 328 -12 216 -12 c 0,34,35
 30 -12 30 -12 30 136 c 0,36,37
 30 183 30 183 46 216.5 c 128,-1,38
 62 250 62 250 91 271 c 128,-1,39
 120 292 120 292 167.5 303.5 c 128,-1,40
 215 315 215 315 268 319.5 c 128,-1,41
 321 324 321 324 395 324 c 1,42,-1
 395 350 l 2,43,44
 395 381 395 381 373.5 397 c 128,-1,45
 352 413 352 413 318 413 c 0,46,47
 287 413 287 413 264.5 402 c 128,-1,48
 242 391 242 391 242 367 c 2,49,-1
 242 363 l 1,50,-1
 46 363 l 1,9,10
518 725 m 1,51,52
 518 671 518 671 466 626 c 128,-1,53
 414 581 414 581 333 581 c 0,54,55
 251 581 251 581 200 626 c 128,-1,56
 149 671 149 671 149 725 c 1,57,-1
 245 725 l 1,58,59
 248 707 248 707 272 692 c 1,60,61
 300 675 300 675 333 675 c 0,62,63
 368 675 368 675 393.5 691.5 c 128,-1,64
 419 708 419 708 423 725 c 1,65,-1
 518 725 l 1,51,52
EndSplineSet
EndChar

StartChar: acircumflex
Encoding: 226 226 132
Width: 666
Flags: MW
LayerCount: 2
UndoRedoHistory
Layer: 0
Undoes
EndUndoes
Redoes
EndRedoes
EndUndoRedoHistory
UndoRedoHistory
Layer: 1
Undoes
EndUndoes
Redoes
EndRedoes
EndUndoRedoHistory
Fore
SplineSet
395 230 m 1,0,1
 311 230 311 230 270 211.5 c 128,-1,2
 229 193 229 193 229 162 c 0,3,4
 229 112 229 112 297 112 c 0,5,6
 336 112 336 112 365.5 133 c 128,-1,7
 395 154 395 154 395 185 c 2,8,-1
 395 230 l 1,0,1
46 363 m 1,9,10
 45 368 45 368 45 377 c 0,11,12
 45 452 45 452 116.5 496 c 128,-1,13
 188 540 188 540 321 540 c 0,14,15
 378 540 378 540 425 531 c 128,-1,16
 472 522 472 522 511 503 c 128,-1,17
 550 484 550 484 572 449.5 c 128,-1,18
 594 415 594 415 594 368 c 2,19,-1
 594 162 l 2,20,21
 594 144 594 144 602 133.5 c 128,-1,22
 610 123 610 123 626 123 c 2,23,-1
 662 123 l 1,24,-1
 662 8 l 1,25,26
 658 6 658 6 650 2.5 c 128,-1,27
 642 -1 642 -1 615 -6.5 c 128,-1,28
 588 -12 588 -12 558 -12 c 0,29,30
 499 -12 499 -12 462 5.5 c 128,-1,31
 425 23 425 23 411 54 c 1,32,33
 328 -12 328 -12 216 -12 c 0,34,35
 30 -12 30 -12 30 136 c 0,36,37
 30 183 30 183 46 216.5 c 128,-1,38
 62 250 62 250 91 271 c 128,-1,39
 120 292 120 292 167.5 303.5 c 128,-1,40
 215 315 215 315 268 319.5 c 128,-1,41
 321 324 321 324 395 324 c 1,42,-1
 395 350 l 2,43,44
 395 381 395 381 373.5 397 c 128,-1,45
 352 413 352 413 318 413 c 0,46,47
 287 413 287 413 264.5 402 c 128,-1,48
 242 391 242 391 242 367 c 2,49,-1
 242 363 l 1,50,-1
 46 363 l 1,9,10
407 580 m 1,51,-1
 333 657 l 1,52,-1
 258 580 l 1,53,-1
 130 580 l 1,54,-1
 270 725 l 1,55,-1
 397 725 l 1,56,-1
 537 580 l 1,57,-1
 407 580 l 1,51,-1
EndSplineSet
EndChar

StartChar: adieresis
Encoding: 228 228 133
Width: 666
Flags: MW
LayerCount: 2
UndoRedoHistory
Layer: 0
Undoes
EndUndoes
Redoes
EndRedoes
EndUndoRedoHistory
UndoRedoHistory
Layer: 1
Undoes
EndUndoes
Redoes
EndRedoes
EndUndoRedoHistory
Fore
SplineSet
395 230 m 1,0,1
 311 230 311 230 270 211.5 c 128,-1,2
 229 193 229 193 229 162 c 0,3,4
 229 112 229 112 297 112 c 0,5,6
 336 112 336 112 365.5 133 c 128,-1,7
 395 154 395 154 395 185 c 2,8,-1
 395 230 l 1,0,1
46 363 m 1,9,10
 45 368 45 368 45 377 c 0,11,12
 45 452 45 452 116.5 496 c 128,-1,13
 188 540 188 540 321 540 c 0,14,15
 378 540 378 540 425 531 c 128,-1,16
 472 522 472 522 511 503 c 128,-1,17
 550 484 550 484 572 449.5 c 128,-1,18
 594 415 594 415 594 368 c 2,19,-1
 594 162 l 2,20,21
 594 144 594 144 602 133.5 c 128,-1,22
 610 123 610 123 626 123 c 2,23,-1
 662 123 l 1,24,-1
 662 8 l 1,25,26
 658 6 658 6 650 2.5 c 128,-1,27
 642 -1 642 -1 615 -6.5 c 128,-1,28
 588 -12 588 -12 558 -12 c 0,29,30
 499 -12 499 -12 462 5.5 c 128,-1,31
 425 23 425 23 411 54 c 1,32,33
 328 -12 328 -12 216 -12 c 0,34,35
 30 -12 30 -12 30 136 c 0,36,37
 30 183 30 183 46 216.5 c 128,-1,38
 62 250 62 250 91 271 c 128,-1,39
 120 292 120 292 167.5 303.5 c 128,-1,40
 215 315 215 315 268 319.5 c 128,-1,41
 321 324 321 324 395 324 c 1,42,-1
 395 350 l 2,43,44
 395 381 395 381 373.5 397 c 128,-1,45
 352 413 352 413 318 413 c 0,46,47
 287 413 287 413 264.5 402 c 128,-1,48
 242 391 242 391 242 367 c 2,49,-1
 242 363 l 1,50,-1
 46 363 l 1,9,10
368 586 m 1,51,-1
 368 725 l 1,52,-1
 520 725 l 1,53,-1
 520 586 l 1,54,-1
 368 586 l 1,51,-1
147 586 m 1,55,-1
 147 725 l 1,56,-1
 299 725 l 1,57,-1
 299 586 l 1,58,-1
 147 586 l 1,55,-1
EndSplineSet
EndChar

StartChar: agrave
Encoding: 224 224 134
Width: 666
Flags: MW
LayerCount: 2
UndoRedoHistory
Layer: 0
Undoes
EndUndoes
Redoes
EndRedoes
EndUndoRedoHistory
UndoRedoHistory
Layer: 1
Undoes
EndUndoes
Redoes
EndRedoes
EndUndoRedoHistory
Fore
SplineSet
395 230 m 1,0,1
 311 230 311 230 270 211.5 c 128,-1,2
 229 193 229 193 229 162 c 0,3,4
 229 112 229 112 297 112 c 0,5,6
 336 112 336 112 365.5 133 c 128,-1,7
 395 154 395 154 395 185 c 2,8,-1
 395 230 l 1,0,1
46 363 m 1,9,10
 45 368 45 368 45 377 c 0,11,12
 45 452 45 452 116.5 496 c 128,-1,13
 188 540 188 540 321 540 c 0,14,15
 378 540 378 540 425 531 c 128,-1,16
 472 522 472 522 511 503 c 128,-1,17
 550 484 550 484 572 449.5 c 128,-1,18
 594 415 594 415 594 368 c 2,19,-1
 594 162 l 2,20,21
 594 144 594 144 602 133.5 c 128,-1,22
 610 123 610 123 626 123 c 2,23,-1
 662 123 l 1,24,-1
 662 8 l 1,25,26
 658 6 658 6 650 2.5 c 128,-1,27
 642 -1 642 -1 615 -6.5 c 128,-1,28
 588 -12 588 -12 558 -12 c 0,29,30
 499 -12 499 -12 462 5.5 c 128,-1,31
 425 23 425 23 411 54 c 1,32,33
 328 -12 328 -12 216 -12 c 0,34,35
 30 -12 30 -12 30 136 c 0,36,37
 30 183 30 183 46 216.5 c 128,-1,38
 62 250 62 250 91 271 c 128,-1,39
 120 292 120 292 167.5 303.5 c 128,-1,40
 215 315 215 315 268 319.5 c 128,-1,41
 321 324 321 324 395 324 c 1,42,-1
 395 350 l 2,43,44
 395 381 395 381 373.5 397 c 128,-1,45
 352 413 352 413 318 413 c 0,46,47
 287 413 287 413 264.5 402 c 128,-1,48
 242 391 242 391 242 367 c 2,49,-1
 242 363 l 1,50,-1
 46 363 l 1,9,10
130 721 m 1,51,-1
 132 725 l 1,52,-1
 325 725 l 1,53,-1
 417 592 l 1,54,-1
 291 592 l 1,55,-1
 130 721 l 1,51,-1
EndSplineSet
EndChar

StartChar: amacron
Encoding: 257 257 135
Width: 666
Flags: MW
LayerCount: 2
UndoRedoHistory
Layer: 0
Undoes
EndUndoes
Redoes
EndRedoes
EndUndoRedoHistory
UndoRedoHistory
Layer: 1
Undoes
EndUndoes
Redoes
EndRedoes
EndUndoRedoHistory
Fore
SplineSet
395 230 m 1,0,1
 311 230 311 230 270 211.5 c 128,-1,2
 229 193 229 193 229 162 c 0,3,4
 229 112 229 112 297 112 c 0,5,6
 336 112 336 112 365.5 133 c 128,-1,7
 395 154 395 154 395 185 c 2,8,-1
 395 230 l 1,0,1
46 363 m 1,9,10
 45 368 45 368 45 377 c 0,11,12
 45 452 45 452 116.5 496 c 128,-1,13
 188 540 188 540 321 540 c 0,14,15
 378 540 378 540 425 531 c 128,-1,16
 472 522 472 522 511 503 c 128,-1,17
 550 484 550 484 572 449.5 c 128,-1,18
 594 415 594 415 594 368 c 2,19,-1
 594 162 l 2,20,21
 594 144 594 144 602 133.5 c 128,-1,22
 610 123 610 123 626 123 c 2,23,-1
 662 123 l 1,24,-1
 662 8 l 1,25,26
 658 6 658 6 650 2.5 c 128,-1,27
 642 -1 642 -1 615 -6.5 c 128,-1,28
 588 -12 588 -12 558 -12 c 0,29,30
 499 -12 499 -12 462 5.5 c 128,-1,31
 425 23 425 23 411 54 c 1,32,33
 328 -12 328 -12 216 -12 c 0,34,35
 30 -12 30 -12 30 136 c 0,36,37
 30 183 30 183 46 216.5 c 128,-1,38
 62 250 62 250 91 271 c 128,-1,39
 120 292 120 292 167.5 303.5 c 128,-1,40
 215 315 215 315 268 319.5 c 128,-1,41
 321 324 321 324 395 324 c 1,42,-1
 395 350 l 2,43,44
 395 381 395 381 373.5 397 c 128,-1,45
 352 413 352 413 318 413 c 0,46,47
 287 413 287 413 264.5 402 c 128,-1,48
 242 391 242 391 242 367 c 2,49,-1
 242 363 l 1,50,-1
 46 363 l 1,9,10
175 605 m 1,51,-1
 175 705 l 1,52,-1
 492 705 l 1,53,-1
 492 605 l 1,54,-1
 175 605 l 1,51,-1
EndSplineSet
EndChar

StartChar: aogonek
Encoding: 261 261 136
Width: 666
Flags: MW
LayerCount: 2
UndoRedoHistory
Layer: 0
Undoes
EndUndoes
Redoes
EndRedoes
EndUndoRedoHistory
UndoRedoHistory
Layer: 1
Undoes
EndUndoes
Redoes
EndRedoes
EndUndoRedoHistory
Fore
SplineSet
395 230 m 1,0,1
 311 230 311 230 270 211.5 c 128,-1,2
 229 193 229 193 229 162 c 0,3,4
 229 112 229 112 297 112 c 0,5,6
 336 112 336 112 365.5 133 c 128,-1,7
 395 154 395 154 395 185 c 2,8,-1
 395 230 l 1,0,1
46 363 m 1,9,10
 45 368 45 368 45 377 c 0,11,12
 45 452 45 452 116.5 496 c 128,-1,13
 188 540 188 540 321 540 c 0,14,15
 378 540 378 540 425 531 c 128,-1,16
 472 522 472 522 511 503 c 128,-1,17
 550 484 550 484 572 449.5 c 128,-1,18
 594 415 594 415 594 368 c 2,19,-1
 594 162 l 2,20,21
 594 144 594 144 602 133.5 c 128,-1,22
 610 123 610 123 626 123 c 2,23,-1
 662 123 l 1,24,-1
 662 8 l 1,25,26
 658 6 658 6 650 2.5 c 128,-1,27
 642 -1 642 -1 615 -6.5 c 128,-1,28
 588 -12 588 -12 558 -12 c 1,29,30
 547 -43 547 -43 547 -69 c 0,31,32
 547 -91 547 -91 561.5 -105.5 c 128,-1,33
 576 -120 576 -120 607 -120 c 2,34,-1
 649 -120 l 1,35,-1
 649 -196 l 1,36,37
 603 -211 603 -211 554 -211 c 0,38,39
 529 -211 529 -211 506.5 -204.5 c 128,-1,40
 484 -198 484 -198 466 -185 c 128,-1,41
 448 -172 448 -172 437.5 -149.5 c 128,-1,42
 427 -127 427 -127 427 -97 c 0,43,44
 427 -76 427 -76 434 -56.5 c 128,-1,45
 441 -37 441 -37 449 -25.5 c 128,-1,46
 457 -14 457 -14 469 2 c 1,47,48
 426 20 426 20 411 54 c 1,49,50
 328 -12 328 -12 216 -12 c 0,51,52
 30 -12 30 -12 30 136 c 0,53,54
 30 183 30 183 46 216.5 c 128,-1,55
 62 250 62 250 91 271 c 128,-1,56
 120 292 120 292 167.5 303.5 c 128,-1,57
 215 315 215 315 268 319.5 c 128,-1,58
 321 324 321 324 395 324 c 1,59,-1
 395 350 l 2,60,61
 395 381 395 381 373.5 397 c 128,-1,62
 352 413 352 413 318 413 c 0,63,64
 287 413 287 413 264.5 402 c 128,-1,65
 242 391 242 391 242 367 c 2,66,-1
 242 363 l 1,67,-1
 46 363 l 1,9,10
EndSplineSet
EndChar

StartChar: aring
Encoding: 229 229 137
Width: 666
Flags: MW
LayerCount: 2
UndoRedoHistory
Layer: 0
Undoes
EndUndoes
Redoes
EndRedoes
EndUndoRedoHistory
UndoRedoHistory
Layer: 1
Undoes
EndUndoes
Redoes
EndRedoes
EndUndoRedoHistory
Fore
SplineSet
395 230 m 1,0,1
 311 230 311 230 270 211.5 c 128,-1,2
 229 193 229 193 229 162 c 0,3,4
 229 112 229 112 297 112 c 0,5,6
 336 112 336 112 365.5 133 c 128,-1,7
 395 154 395 154 395 185 c 2,8,-1
 395 230 l 1,0,1
46 363 m 1,9,10
 45 368 45 368 45 377 c 0,11,12
 45 452 45 452 116.5 496 c 128,-1,13
 188 540 188 540 321 540 c 0,14,15
 378 540 378 540 425 531 c 128,-1,16
 472 522 472 522 511 503 c 128,-1,17
 550 484 550 484 572 449.5 c 128,-1,18
 594 415 594 415 594 368 c 2,19,-1
 594 162 l 2,20,21
 594 144 594 144 602 133.5 c 128,-1,22
 610 123 610 123 626 123 c 2,23,-1
 662 123 l 1,24,-1
 662 8 l 1,25,26
 658 6 658 6 650 2.5 c 128,-1,27
 642 -1 642 -1 615 -6.5 c 128,-1,28
 588 -12 588 -12 558 -12 c 0,29,30
 499 -12 499 -12 462 5.5 c 128,-1,31
 425 23 425 23 411 54 c 1,32,33
 328 -12 328 -12 216 -12 c 0,34,35
 30 -12 30 -12 30 136 c 0,36,37
 30 183 30 183 46 216.5 c 128,-1,38
 62 250 62 250 91 271 c 128,-1,39
 120 292 120 292 167.5 303.5 c 128,-1,40
 215 315 215 315 268 319.5 c 128,-1,41
 321 324 321 324 395 324 c 1,42,-1
 395 350 l 2,43,44
 395 381 395 381 373.5 397 c 128,-1,45
 352 413 352 413 318 413 c 0,46,47
 287 413 287 413 264.5 402 c 128,-1,48
 242 391 242 391 242 367 c 2,49,-1
 242 363 l 1,50,-1
 46 363 l 1,9,10
333 725 m 0,51,52
 316 725 316 725 304.5 713.5 c 128,-1,53
 293 702 293 702 293 684 c 0,54,55
 293 667 293 667 304.5 656 c 128,-1,56
 316 645 316 645 333 645 c 0,57,58
 351 645 351 645 362.5 656.5 c 128,-1,59
 374 668 374 668 374 686 c 0,60,61
 374 703 374 703 362.5 714 c 128,-1,62
 351 725 351 725 333 725 c 0,51,52
333 794 m 0,63,64
 378 794 378 794 410 762 c 128,-1,65
 442 730 442 730 442 685 c 0,66,67
 442 641 442 641 410 609 c 128,-1,68
 378 577 378 577 333 577 c 0,69,70
 289 577 289 577 257 608.5 c 128,-1,71
 225 640 225 640 225 685 c 128,-1,72
 225 730 225 730 256.5 762 c 128,-1,73
 288 794 288 794 333 794 c 0,63,64
EndSplineSet
EndChar

StartChar: aringacute
Encoding: 507 507 138
Width: 666
Flags: MW
LayerCount: 2
UndoRedoHistory
Layer: 0
Undoes
EndUndoes
Redoes
EndRedoes
EndUndoRedoHistory
UndoRedoHistory
Layer: 1
Undoes
EndUndoes
Redoes
EndRedoes
EndUndoRedoHistory
Fore
SplineSet
395 230 m 1,0,1
 311 230 311 230 270 211.5 c 128,-1,2
 229 193 229 193 229 162 c 0,3,4
 229 112 229 112 297 112 c 0,5,6
 336 112 336 112 365.5 133 c 128,-1,7
 395 154 395 154 395 185 c 2,8,-1
 395 230 l 1,0,1
46 363 m 1,9,10
 45 368 45 368 45 377 c 0,11,12
 45 452 45 452 116.5 496 c 128,-1,13
 188 540 188 540 321 540 c 0,14,15
 378 540 378 540 425 531 c 128,-1,16
 472 522 472 522 511 503 c 128,-1,17
 550 484 550 484 572 449.5 c 128,-1,18
 594 415 594 415 594 368 c 2,19,-1
 594 162 l 2,20,21
 594 144 594 144 602 133.5 c 128,-1,22
 610 123 610 123 626 123 c 2,23,-1
 662 123 l 1,24,-1
 662 8 l 1,25,26
 658 6 658 6 650 2.5 c 128,-1,27
 642 -1 642 -1 615 -6.5 c 128,-1,28
 588 -12 588 -12 558 -12 c 0,29,30
 499 -12 499 -12 462 5.5 c 128,-1,31
 425 23 425 23 411 54 c 1,32,33
 328 -12 328 -12 216 -12 c 0,34,35
 30 -12 30 -12 30 136 c 0,36,37
 30 183 30 183 46 216.5 c 128,-1,38
 62 250 62 250 91 271 c 128,-1,39
 120 292 120 292 167.5 303.5 c 128,-1,40
 215 315 215 315 268 319.5 c 128,-1,41
 321 324 321 324 395 324 c 1,42,-1
 395 350 l 2,43,44
 395 381 395 381 373.5 397 c 128,-1,45
 352 413 352 413 318 413 c 0,46,47
 287 413 287 413 264.5 402 c 128,-1,48
 242 391 242 391 242 367 c 2,49,-1
 242 363 l 1,50,-1
 46 363 l 1,9,10
333 699 m 0,51,52
 316 699 316 699 304.5 687.5 c 128,-1,53
 293 676 293 676 293 658 c 0,54,55
 293 641 293 641 304.5 630 c 128,-1,56
 316 619 316 619 333 619 c 0,57,58
 351 619 351 619 362.5 630.5 c 128,-1,59
 374 642 374 642 374 660 c 0,60,61
 374 677 374 677 362.5 688 c 128,-1,62
 351 699 351 699 333 699 c 0,51,52
333 758 m 0,63,64
 380 758 380 758 411 732.5 c 128,-1,65
 442 707 442 707 442 659 c 0,66,67
 442 613 442 613 411.5 587 c 128,-1,68
 381 561 381 561 333 561 c 0,69,70
 287 561 287 561 256 586.5 c 128,-1,71
 225 612 225 612 225 659 c 128,-1,72
 225 706 225 706 255.5 732 c 128,-1,73
 286 758 286 758 333 758 c 0,63,64
392 783 m 1,74,-1
 265 783 l 1,75,-1
 342 887 l 1,76,-1
 523 887 l 1,77,-1
 525 883 l 1,78,-1
 392 783 l 1,74,-1
EndSplineSet
EndChar

StartChar: atilde
Encoding: 227 227 139
Width: 666
Flags: MW
LayerCount: 2
UndoRedoHistory
Layer: 0
Undoes
EndUndoes
Redoes
EndRedoes
EndUndoRedoHistory
UndoRedoHistory
Layer: 1
Undoes
EndUndoes
Redoes
EndRedoes
EndUndoRedoHistory
Fore
SplineSet
395 230 m 1,0,1
 311 230 311 230 270 211.5 c 128,-1,2
 229 193 229 193 229 162 c 0,3,4
 229 112 229 112 297 112 c 0,5,6
 336 112 336 112 365.5 133 c 128,-1,7
 395 154 395 154 395 185 c 2,8,-1
 395 230 l 1,0,1
46 363 m 1,9,10
 45 368 45 368 45 377 c 0,11,12
 45 452 45 452 116.5 496 c 128,-1,13
 188 540 188 540 321 540 c 0,14,15
 378 540 378 540 425 531 c 128,-1,16
 472 522 472 522 511 503 c 128,-1,17
 550 484 550 484 572 449.5 c 128,-1,18
 594 415 594 415 594 368 c 2,19,-1
 594 162 l 2,20,21
 594 144 594 144 602 133.5 c 128,-1,22
 610 123 610 123 626 123 c 2,23,-1
 662 123 l 1,24,-1
 662 8 l 1,25,26
 658 6 658 6 650 2.5 c 128,-1,27
 642 -1 642 -1 615 -6.5 c 128,-1,28
 588 -12 588 -12 558 -12 c 0,29,30
 499 -12 499 -12 462 5.5 c 128,-1,31
 425 23 425 23 411 54 c 1,32,33
 328 -12 328 -12 216 -12 c 0,34,35
 30 -12 30 -12 30 136 c 0,36,37
 30 183 30 183 46 216.5 c 128,-1,38
 62 250 62 250 91 271 c 128,-1,39
 120 292 120 292 167.5 303.5 c 128,-1,40
 215 315 215 315 268 319.5 c 128,-1,41
 321 324 321 324 395 324 c 1,42,-1
 395 350 l 2,43,44
 395 381 395 381 373.5 397 c 128,-1,45
 352 413 352 413 318 413 c 0,46,47
 287 413 287 413 264.5 402 c 128,-1,48
 242 391 242 391 242 367 c 2,49,-1
 242 363 l 1,50,-1
 46 363 l 1,9,10
556 725 m 1,51,52
 556 669 556 669 516.5 625.5 c 128,-1,53
 477 582 477 582 416 582 c 0,54,55
 383 582 383 582 326 602 c 128,-1,56
 269 622 269 622 243 622 c 0,57,58
 224 622 224 622 211 611 c 128,-1,59
 198 600 198 600 192 582 c 1,60,-1
 111 582 l 1,61,62
 111 638 111 638 150.5 681.5 c 128,-1,63
 190 725 190 725 251 725 c 0,64,65
 284 725 284 725 341 705 c 128,-1,66
 398 685 398 685 424 685 c 0,67,68
 443 685 443 685 456 696 c 128,-1,69
 469 707 469 707 475 725 c 1,70,-1
 556 725 l 1,51,52
EndSplineSet
EndChar

StartChar: ae
Encoding: 230 230 140
Width: 1000
Flags: MW
LayerCount: 2
UndoRedoHistory
Layer: 0
Undoes
EndUndoes
Redoes
EndRedoes
EndUndoRedoHistory
UndoRedoHistory
Layer: 1
Undoes
EndUndoes
Redoes
EndRedoes
EndUndoRedoHistory
Fore
SplineSet
395 230 m 1,0,1
 311 230 311 230 270 211.5 c 128,-1,2
 229 193 229 193 229 162 c 0,3,4
 229 112 229 112 297 112 c 0,5,6
 336 112 336 112 365.5 133 c 128,-1,7
 395 154 395 154 395 185 c 2,8,-1
 395 230 l 1,0,1
771 324 m 1,9,10
 771 366 771 366 749.5 389.5 c 128,-1,11
 728 413 728 413 688 413 c 0,12,13
 606 413 606 413 597 324 c 1,14,-1
 771 324 l 1,9,10
46 363 m 1,15,16
 45 368 45 368 45 377 c 0,17,18
 45 452 45 452 116.5 496 c 128,-1,19
 188 540 188 540 321 540 c 0,20,21
 450 540 450 540 518 492 c 1,22,23
 589 540 589 540 694 540 c 0,24,25
 972 540 972 540 972 264 c 2,26,-1
 972 230 l 1,27,-1
 596 230 l 1,28,29
 596 173 596 173 619 144 c 128,-1,30
 642 115 642 115 692 115 c 0,31,32
 737 115 737 115 758 136 c 128,-1,33
 779 157 779 157 779 192 c 1,34,-1
 972 192 l 1,35,36
 972 96 972 96 904 42 c 128,-1,37
 836 -12 836 -12 706 -12 c 0,38,39
 550 -12 550 -12 472 61 c 1,40,41
 374 -12 374 -12 256 -12 c 0,42,43
 201 -12 201 -12 161.5 -4.5 c 128,-1,44
 122 3 122 3 91.5 21 c 128,-1,45
 61 39 61 39 45.5 70 c 128,-1,46
 30 101 30 101 30 146 c 0,47,48
 30 178 30 178 38 203 c 128,-1,49
 46 228 46 228 61.5 246.5 c 128,-1,50
 77 265 77 265 101 278.5 c 128,-1,51
 125 292 125 292 153.5 301 c 128,-1,52
 182 310 182 310 221 315 c 128,-1,53
 260 320 260 320 301.5 322 c 128,-1,54
 343 324 343 324 395 324 c 1,55,-1
 395 350 l 2,56,57
 395 381 395 381 374.5 397 c 128,-1,58
 354 413 354 413 322 413 c 0,59,60
 289 413 289 413 265.5 402 c 128,-1,61
 242 391 242 391 242 367 c 2,62,-1
 242 363 l 1,63,-1
 46 363 l 1,15,16
EndSplineSet
EndChar

StartChar: aeacute
Encoding: 509 509 141
Width: 1000
Flags: MW
LayerCount: 2
UndoRedoHistory
Layer: 0
Undoes
EndUndoes
Redoes
EndRedoes
EndUndoRedoHistory
UndoRedoHistory
Layer: 1
Undoes
EndUndoes
Redoes
EndRedoes
EndUndoRedoHistory
Fore
SplineSet
395 230 m 1,0,1
 311 230 311 230 270 211.5 c 128,-1,2
 229 193 229 193 229 162 c 0,3,4
 229 112 229 112 297 112 c 0,5,6
 336 112 336 112 365.5 133 c 128,-1,7
 395 154 395 154 395 185 c 2,8,-1
 395 230 l 1,0,1
771 324 m 1,9,10
 771 366 771 366 749.5 389.5 c 128,-1,11
 728 413 728 413 688 413 c 0,12,13
 606 413 606 413 597 324 c 1,14,-1
 771 324 l 1,9,10
46 363 m 1,15,16
 45 368 45 368 45 377 c 0,17,18
 45 452 45 452 116.5 496 c 128,-1,19
 188 540 188 540 321 540 c 0,20,21
 450 540 450 540 518 492 c 1,22,23
 589 540 589 540 694 540 c 0,24,25
 972 540 972 540 972 264 c 2,26,-1
 972 230 l 1,27,-1
 596 230 l 1,28,29
 596 173 596 173 619 144 c 128,-1,30
 642 115 642 115 692 115 c 0,31,32
 737 115 737 115 758 136 c 128,-1,33
 779 157 779 157 779 192 c 1,34,-1
 972 192 l 1,35,36
 972 96 972 96 904 42 c 128,-1,37
 836 -12 836 -12 706 -12 c 0,38,39
 550 -12 550 -12 472 61 c 1,40,41
 374 -12 374 -12 256 -12 c 0,42,43
 201 -12 201 -12 161.5 -4.5 c 128,-1,44
 122 3 122 3 91.5 21 c 128,-1,45
 61 39 61 39 45.5 70 c 128,-1,46
 30 101 30 101 30 146 c 0,47,48
 30 178 30 178 38 203 c 128,-1,49
 46 228 46 228 61.5 246.5 c 128,-1,50
 77 265 77 265 101 278.5 c 128,-1,51
 125 292 125 292 153.5 301 c 128,-1,52
 182 310 182 310 221 315 c 128,-1,53
 260 320 260 320 301.5 322 c 128,-1,54
 343 324 343 324 395 324 c 1,55,-1
 395 350 l 2,56,57
 395 381 395 381 374.5 397 c 128,-1,58
 354 413 354 413 322 413 c 0,59,60
 289 413 289 413 265.5 402 c 128,-1,61
 242 391 242 391 242 367 c 2,62,-1
 242 363 l 1,63,-1
 46 363 l 1,15,16
416 592 m 1,64,-1
 508 725 l 1,65,-1
 701 725 l 1,66,-1
 703 721 l 1,67,-1
 543 592 l 1,68,-1
 416 592 l 1,64,-1
EndSplineSet
EndChar

StartChar: b
Encoding: 98 98 142
Width: 666
Flags: MW
LayerCount: 2
UndoRedoHistory
Layer: 0
Undoes
EndUndoes
Redoes
EndRedoes
EndUndoRedoHistory
UndoRedoHistory
Layer: 1
Undoes
EndUndoes
Redoes
EndRedoes
EndUndoRedoHistory
Fore
SplineSet
432 290 m 2,0,1
 432 393 432 393 346 393 c 0,2,3
 302 393 302 393 280 361.5 c 128,-1,4
 258 330 258 330 258 280 c 2,5,-1
 258 247 l 2,6,7
 258 197 258 197 280 166 c 128,-1,8
 302 135 302 135 346 135 c 0,9,10
 432 135 432 135 432 237 c 2,11,-1
 432 290 l 2,0,1
260 479 m 1,12,13
 317 540 317 540 408 540 c 0,14,15
 515 540 515 540 573 470.5 c 128,-1,16
 631 401 631 401 631 265 c 0,17,18
 631 128 631 128 573 58 c 128,-1,19
 515 -12 515 -12 408 -12 c 0,20,21
 298 -12 298 -12 240 75 c 1,22,-1
 223 0 l 1,23,-1
 61 0 l 1,24,-1
 61 725 l 1,25,-1
 260 725 l 1,26,-1
 260 479 l 1,12,13
EndSplineSet
EndChar

StartChar: c
Encoding: 99 99 143
Width: 666
Flags: MW
LayerCount: 2
UndoRedoHistory
Layer: 0
Undoes
EndUndoes
Redoes
EndRedoes
EndUndoRedoHistory
UndoRedoHistory
Layer: 1
Undoes
EndUndoes
Redoes
EndRedoes
EndUndoRedoHistory
Fore
SplineSet
624 215 m 1,0,1
 624 156 624 156 601.5 111.5 c 128,-1,2
 579 67 579 67 539 40.5 c 128,-1,3
 499 14 499 14 447 1 c 128,-1,4
 395 -12 395 -12 333 -12 c 0,5,6
 194 -12 194 -12 115 58 c 128,-1,7
 36 128 36 128 36 264 c 128,-1,8
 36 400 36 400 115 470 c 128,-1,9
 194 540 194 540 333 540 c 0,10,11
 395 540 395 540 446.5 527.5 c 128,-1,12
 498 515 498 515 538.5 488.5 c 128,-1,13
 579 462 579 462 601.5 418 c 128,-1,14
 624 374 624 374 624 315 c 1,15,-1
 431 315 l 1,16,17
 431 405 431 405 333 405 c 128,-1,18
 235 405 235 405 235 292 c 2,19,-1
 235 235 l 2,20,21
 235 123 235 123 337 123 c 128,-1,22
 439 123 439 123 439 215 c 1,23,-1
 624 215 l 1,0,1
EndSplineSet
EndChar

StartChar: cacute
Encoding: 263 263 144
Width: 666
Flags: MW
LayerCount: 2
UndoRedoHistory
Layer: 0
Undoes
EndUndoes
Redoes
EndRedoes
EndUndoRedoHistory
UndoRedoHistory
Layer: 1
Undoes
EndUndoes
Redoes
EndRedoes
EndUndoRedoHistory
Fore
SplineSet
624 215 m 1,0,1
 624 156 624 156 601.5 111.5 c 128,-1,2
 579 67 579 67 539 40.5 c 128,-1,3
 499 14 499 14 447 1 c 128,-1,4
 395 -12 395 -12 333 -12 c 0,5,6
 194 -12 194 -12 115 58 c 128,-1,7
 36 128 36 128 36 264 c 128,-1,8
 36 400 36 400 115 470 c 128,-1,9
 194 540 194 540 333 540 c 0,10,11
 395 540 395 540 446.5 527.5 c 128,-1,12
 498 515 498 515 538.5 488.5 c 128,-1,13
 579 462 579 462 601.5 418 c 128,-1,14
 624 374 624 374 624 315 c 1,15,-1
 431 315 l 1,16,17
 431 405 431 405 333 405 c 128,-1,18
 235 405 235 405 235 292 c 2,19,-1
 235 235 l 2,20,21
 235 123 235 123 337 123 c 128,-1,22
 439 123 439 123 439 215 c 1,23,-1
 624 215 l 1,0,1
237 592 m 1,24,-1
 330 725 l 1,25,-1
 522 725 l 1,26,-1
 524 721 l 1,27,-1
 365 592 l 1,28,-1
 237 592 l 1,24,-1
EndSplineSet
EndChar

StartChar: ccaron
Encoding: 269 269 145
Width: 666
Flags: MW
LayerCount: 2
UndoRedoHistory
Layer: 0
Undoes
EndUndoes
Redoes
EndRedoes
EndUndoRedoHistory
UndoRedoHistory
Layer: 1
Undoes
EndUndoes
Redoes
EndRedoes
EndUndoRedoHistory
Fore
SplineSet
624 215 m 1,0,1
 624 156 624 156 601.5 111.5 c 128,-1,2
 579 67 579 67 539 40.5 c 128,-1,3
 499 14 499 14 447 1 c 128,-1,4
 395 -12 395 -12 333 -12 c 0,5,6
 194 -12 194 -12 115 58 c 128,-1,7
 36 128 36 128 36 264 c 128,-1,8
 36 400 36 400 115 470 c 128,-1,9
 194 540 194 540 333 540 c 0,10,11
 395 540 395 540 446.5 527.5 c 128,-1,12
 498 515 498 515 538.5 488.5 c 128,-1,13
 579 462 579 462 601.5 418 c 128,-1,14
 624 374 624 374 624 315 c 1,15,-1
 431 315 l 1,16,17
 431 405 431 405 333 405 c 128,-1,18
 235 405 235 405 235 292 c 2,19,-1
 235 235 l 2,20,21
 235 123 235 123 337 123 c 128,-1,22
 439 123 439 123 439 215 c 1,23,-1
 624 215 l 1,0,1
270 580 m 1,24,-1
 130 725 l 1,25,-1
 258 725 l 1,26,-1
 333 648 l 1,27,-1
 407 725 l 1,28,-1
 537 725 l 1,29,-1
 397 580 l 1,30,-1
 270 580 l 1,24,-1
EndSplineSet
EndChar

StartChar: ccedilla
Encoding: 231 231 146
Width: 666
Flags: MW
LayerCount: 2
UndoRedoHistory
Layer: 0
Undoes
EndUndoes
Redoes
EndRedoes
EndUndoRedoHistory
UndoRedoHistory
Layer: 1
Undoes
EndUndoes
Redoes
EndRedoes
EndUndoRedoHistory
Fore
SplineSet
304 -11 m 1,0,1
 178 -4 178 -4 107 66 c 128,-1,2
 36 136 36 136 36 264 c 0,3,4
 36 400 36 400 115 470 c 128,-1,5
 194 540 194 540 333 540 c 0,6,7
 395 540 395 540 446.5 527.5 c 128,-1,8
 498 515 498 515 538.5 488.5 c 128,-1,9
 579 462 579 462 601.5 418 c 128,-1,10
 624 374 624 374 624 315 c 1,11,-1
 431 315 l 1,12,13
 431 405 431 405 333 405 c 128,-1,14
 235 405 235 405 235 292 c 2,15,-1
 235 235 l 2,16,17
 235 123 235 123 337 123 c 128,-1,18
 439 123 439 123 439 215 c 1,19,-1
 624 215 l 1,20,21
 624 160 624 160 604 117.5 c 128,-1,22
 584 75 584 75 549 48.5 c 128,-1,23
 514 22 514 22 467.5 7 c 128,-1,24
 421 -8 421 -8 365 -11 c 1,25,-1
 363 -29 l 1,26,27
 405 -33 405 -33 430.5 -54 c 128,-1,28
 456 -75 456 -75 456 -118 c 0,29,30
 456 -145 456 -145 444.5 -164.5 c 128,-1,31
 433 -184 433 -184 414 -193.5 c 128,-1,32
 395 -203 395 -203 376 -207 c 128,-1,33
 357 -211 357 -211 337 -211 c 0,34,35
 260 -211 260 -211 211 -195 c 1,36,-1
 211 -141 l 1,37,38
 276 -149 276 -149 329 -149 c 0,39,40
 369 -149 369 -149 369 -118 c 0,41,42
 369 -86 369 -86 331 -86 c 2,43,-1
 292 -86 l 1,44,-1
 304 -11 l 1,0,1
EndSplineSet
EndChar

StartChar: ccircumflex
Encoding: 265 265 147
Width: 666
Flags: MW
LayerCount: 2
UndoRedoHistory
Layer: 0
Undoes
EndUndoes
Redoes
EndRedoes
EndUndoRedoHistory
UndoRedoHistory
Layer: 1
Undoes
EndUndoes
Redoes
EndRedoes
EndUndoRedoHistory
Fore
SplineSet
624 215 m 1,0,1
 624 156 624 156 601.5 111.5 c 128,-1,2
 579 67 579 67 539 40.5 c 128,-1,3
 499 14 499 14 447 1 c 128,-1,4
 395 -12 395 -12 333 -12 c 0,5,6
 194 -12 194 -12 115 58 c 128,-1,7
 36 128 36 128 36 264 c 128,-1,8
 36 400 36 400 115 470 c 128,-1,9
 194 540 194 540 333 540 c 0,10,11
 395 540 395 540 446.5 527.5 c 128,-1,12
 498 515 498 515 538.5 488.5 c 128,-1,13
 579 462 579 462 601.5 418 c 128,-1,14
 624 374 624 374 624 315 c 1,15,-1
 431 315 l 1,16,17
 431 405 431 405 333 405 c 128,-1,18
 235 405 235 405 235 292 c 2,19,-1
 235 235 l 2,20,21
 235 123 235 123 337 123 c 128,-1,22
 439 123 439 123 439 215 c 1,23,-1
 624 215 l 1,0,1
407 580 m 1,24,-1
 333 657 l 1,25,-1
 258 580 l 1,26,-1
 130 580 l 1,27,-1
 270 725 l 1,28,-1
 397 725 l 1,29,-1
 537 580 l 1,30,-1
 407 580 l 1,24,-1
EndSplineSet
EndChar

StartChar: cdotaccent
Encoding: 267 267 148
Width: 666
Flags: MW
LayerCount: 2
UndoRedoHistory
Layer: 0
Undoes
EndUndoes
Redoes
EndRedoes
EndUndoRedoHistory
UndoRedoHistory
Layer: 1
Undoes
EndUndoes
Redoes
EndRedoes
EndUndoRedoHistory
Fore
SplineSet
624 215 m 1,0,1
 624 156 624 156 601.5 111.5 c 128,-1,2
 579 67 579 67 539 40.5 c 128,-1,3
 499 14 499 14 447 1 c 128,-1,4
 395 -12 395 -12 333 -12 c 0,5,6
 194 -12 194 -12 115 58 c 128,-1,7
 36 128 36 128 36 264 c 128,-1,8
 36 400 36 400 115 470 c 128,-1,9
 194 540 194 540 333 540 c 0,10,11
 395 540 395 540 446.5 527.5 c 128,-1,12
 498 515 498 515 538.5 488.5 c 128,-1,13
 579 462 579 462 601.5 418 c 128,-1,14
 624 374 624 374 624 315 c 1,15,-1
 431 315 l 1,16,17
 431 405 431 405 333 405 c 128,-1,18
 235 405 235 405 235 292 c 2,19,-1
 235 235 l 2,20,21
 235 123 235 123 337 123 c 128,-1,22
 439 123 439 123 439 215 c 1,23,-1
 624 215 l 1,0,1
257 586 m 1,24,-1
 257 725 l 1,25,-1
 410 725 l 1,26,-1
 410 586 l 1,27,-1
 257 586 l 1,24,-1
EndSplineSet
EndChar

StartChar: d
Encoding: 100 100 149
Width: 666
Flags: MW
LayerCount: 2
UndoRedoHistory
Layer: 0
Undoes
EndUndoes
Redoes
EndRedoes
EndUndoRedoHistory
UndoRedoHistory
Layer: 1
Undoes
EndUndoes
Redoes
EndRedoes
EndUndoRedoHistory
Fore
SplineSet
409 280 m 2,0,1
 409 330 409 330 387 361.5 c 128,-1,2
 365 393 365 393 321 393 c 0,3,4
 235 393 235 393 235 290 c 2,5,-1
 235 237 l 2,6,7
 235 135 235 135 321 135 c 0,8,9
 365 135 365 135 387 166 c 128,-1,10
 409 197 409 197 409 247 c 2,11,-1
 409 280 l 2,0,1
444 0 m 1,12,-1
 427 75 l 1,13,14
 369 -12 369 -12 259 -12 c 0,15,16
 152 -12 152 -12 94 58 c 128,-1,17
 36 128 36 128 36 265 c 0,18,19
 36 401 36 401 94 470.5 c 128,-1,20
 152 540 152 540 259 540 c 0,21,22
 351 540 351 540 407 479 c 1,23,-1
 407 725 l 1,24,-1
 606 725 l 1,25,-1
 606 0 l 1,26,-1
 444 0 l 1,12,-1
EndSplineSet
EndChar

StartChar: eth
Encoding: 240 240 150
Width: 666
Flags: MW
LayerCount: 2
UndoRedoHistory
Layer: 0
Undoes
EndUndoes
Redoes
EndRedoes
EndUndoRedoHistory
UndoRedoHistory
Layer: 1
Undoes
EndUndoes
Redoes
EndRedoes
EndUndoRedoHistory
Fore
SplineSet
432 292 m 2,0,1
 432 405 432 405 333 405 c 0,2,3
 235 405 235 405 235 292 c 2,4,-1
 235 235 l 2,5,6
 235 123 235 123 333 123 c 0,7,8
 432 123 432 123 432 235 c 2,9,-1
 432 292 l 2,0,1
363 725 m 1,10,11
 392 710 392 710 431 678 c 1,12,-1
 570 694 l 1,13,-1
 570 616 l 1,14,-1
 502 608 l 1,15,16
 631 457 631 457 631 264 c 0,17,18
 631 128 631 128 551.5 58 c 128,-1,19
 472 -12 472 -12 333 -12 c 128,-1,20
 194 -12 194 -12 115 58 c 128,-1,21
 36 128 36 128 36 264 c 0,22,23
 36 381 36 381 107 452.5 c 128,-1,24
 178 524 178 524 298 524 c 0,25,26
 336 524 336 524 364 516 c 1,27,28
 342 551 342 551 314 586 c 1,29,-1
 149 567 l 1,30,-1
 149 645 l 1,31,-1
 247 656 l 1,32,33
 200 698 200 698 164 721 c 1,34,-1
 165 725 l 1,35,-1
 363 725 l 1,10,11
EndSplineSet
EndChar

StartChar: dcaron
Encoding: 271 271 151
Width: 843
Flags: MW
LayerCount: 2
UndoRedoHistory
Layer: 0
Undoes
EndUndoes
Redoes
EndRedoes
EndUndoRedoHistory
UndoRedoHistory
Layer: 1
Undoes
EndUndoes
Redoes
EndRedoes
EndUndoRedoHistory
Fore
SplineSet
409 280 m 2,0,1
 409 330 409 330 387 361.5 c 128,-1,2
 365 393 365 393 321 393 c 0,3,4
 235 393 235 393 235 290 c 2,5,-1
 235 237 l 2,6,7
 235 135 235 135 321 135 c 0,8,9
 365 135 365 135 387 166 c 128,-1,10
 409 197 409 197 409 247 c 2,11,-1
 409 280 l 2,0,1
731 481 m 1,12,-1
 664 481 l 1,13,-1
 705 573 l 1,14,-1
 655 573 l 1,15,-1
 655 688 l 1,16,-1
 785 688 l 1,17,-1
 785 580 l 1,18,-1
 731 481 l 1,12,-1
444 0 m 1,19,-1
 427 75 l 1,20,21
 369 -12 369 -12 259 -12 c 0,22,23
 152 -12 152 -12 94 58 c 128,-1,24
 36 128 36 128 36 265 c 0,25,26
 36 401 36 401 94 470.5 c 128,-1,27
 152 540 152 540 259 540 c 0,28,29
 351 540 351 540 407 479 c 1,30,-1
 407 725 l 1,31,-1
 606 725 l 1,32,-1
 606 0 l 1,33,-1
 444 0 l 1,19,-1
EndSplineSet
EndChar

StartChar: dcroat
Encoding: 273 273 152
Width: 666
Flags: MW
LayerCount: 2
UndoRedoHistory
Layer: 0
Undoes
EndUndoes
Redoes
EndRedoes
EndUndoRedoHistory
UndoRedoHistory
Layer: 1
Undoes
EndUndoes
Redoes
EndRedoes
EndUndoRedoHistory
Fore
SplineSet
409 280 m 2,0,1
 409 330 409 330 387 361.5 c 128,-1,2
 365 393 365 393 321 393 c 0,3,4
 235 393 235 393 235 290 c 2,5,-1
 235 237 l 2,6,7
 235 135 235 135 321 135 c 0,8,9
 365 135 365 135 387 166 c 128,-1,10
 409 197 409 197 409 247 c 2,11,-1
 409 280 l 2,0,1
667 668 m 1,12,-1
 667 575 l 1,13,-1
 606 575 l 1,14,-1
 606 0 l 1,15,-1
 444 0 l 1,16,-1
 427 75 l 1,17,18
 369 -12 369 -12 259 -12 c 0,19,20
 152 -12 152 -12 94 58 c 128,-1,21
 36 128 36 128 36 265 c 0,22,23
 36 401 36 401 94 470.5 c 128,-1,24
 152 540 152 540 259 540 c 0,25,26
 351 540 351 540 407 479 c 1,27,-1
 407 575 l 1,28,-1
 336 575 l 1,29,-1
 336 668 l 1,30,-1
 407 668 l 1,31,-1
 407 725 l 1,32,-1
 606 725 l 1,33,-1
 606 668 l 1,34,-1
 667 668 l 1,12,-1
EndSplineSet
EndChar

StartChar: e
Encoding: 101 101 153
Width: 666
Flags: MW
LayerCount: 2
UndoRedoHistory
Layer: 0
Undoes
EndUndoes
Redoes
EndRedoes
EndUndoRedoHistory
UndoRedoHistory
Layer: 1
Undoes
EndUndoes
Redoes
EndRedoes
EndUndoRedoHistory
Fore
SplineSet
430 324 m 1,0,1
 430 366 430 366 406.5 389.5 c 128,-1,2
 383 413 383 413 341 413 c 0,3,4
 247 413 247 413 236 324 c 1,5,-1
 430 324 l 1,0,1
631 192 m 1,6,7
 631 96 631 96 558 42 c 128,-1,8
 485 -12 485 -12 345 -12 c 0,9,10
 198 -12 198 -12 117 56.5 c 128,-1,11
 36 125 36 125 36 264 c 0,12,13
 36 400 36 400 115 470 c 128,-1,14
 194 540 194 540 333 540 c 0,15,16
 479 540 479 540 555 472 c 128,-1,17
 631 404 631 404 631 264 c 2,18,-1
 631 230 l 1,19,-1
 235 230 l 1,20,21
 235 173 235 173 260 144 c 128,-1,22
 285 115 285 115 341 115 c 0,23,24
 391 115 391 115 414.5 136 c 128,-1,25
 438 157 438 157 438 192 c 1,26,-1
 631 192 l 1,6,7
EndSplineSet
EndChar

StartChar: eacute
Encoding: 233 233 154
Width: 666
Flags: MW
LayerCount: 2
UndoRedoHistory
Layer: 0
Undoes
EndUndoes
Redoes
EndRedoes
EndUndoRedoHistory
UndoRedoHistory
Layer: 1
Undoes
EndUndoes
Redoes
EndRedoes
EndUndoRedoHistory
Fore
SplineSet
430 324 m 1,0,1
 430 366 430 366 406.5 389.5 c 128,-1,2
 383 413 383 413 341 413 c 0,3,4
 247 413 247 413 236 324 c 1,5,-1
 430 324 l 1,0,1
631 192 m 1,6,7
 631 96 631 96 558 42 c 128,-1,8
 485 -12 485 -12 345 -12 c 0,9,10
 198 -12 198 -12 117 56.5 c 128,-1,11
 36 125 36 125 36 264 c 0,12,13
 36 400 36 400 115 470 c 128,-1,14
 194 540 194 540 333 540 c 0,15,16
 479 540 479 540 555 472 c 128,-1,17
 631 404 631 404 631 264 c 2,18,-1
 631 230 l 1,19,-1
 235 230 l 1,20,21
 235 173 235 173 260 144 c 128,-1,22
 285 115 285 115 341 115 c 0,23,24
 391 115 391 115 414.5 136 c 128,-1,25
 438 157 438 157 438 192 c 1,26,-1
 631 192 l 1,6,7
237 592 m 1,27,-1
 330 725 l 1,28,-1
 522 725 l 1,29,-1
 524 721 l 1,30,-1
 365 592 l 1,31,-1
 237 592 l 1,27,-1
EndSplineSet
EndChar

StartChar: ebreve
Encoding: 277 277 155
Width: 666
Flags: MW
LayerCount: 2
UndoRedoHistory
Layer: 0
Undoes
EndUndoes
Redoes
EndRedoes
EndUndoRedoHistory
UndoRedoHistory
Layer: 1
Undoes
EndUndoes
Redoes
EndRedoes
EndUndoRedoHistory
Fore
SplineSet
430 324 m 1,0,1
 430 366 430 366 406.5 389.5 c 128,-1,2
 383 413 383 413 341 413 c 0,3,4
 247 413 247 413 236 324 c 1,5,-1
 430 324 l 1,0,1
631 192 m 1,6,7
 631 96 631 96 558 42 c 128,-1,8
 485 -12 485 -12 345 -12 c 0,9,10
 198 -12 198 -12 117 56.5 c 128,-1,11
 36 125 36 125 36 264 c 0,12,13
 36 400 36 400 115 470 c 128,-1,14
 194 540 194 540 333 540 c 0,15,16
 479 540 479 540 555 472 c 128,-1,17
 631 404 631 404 631 264 c 2,18,-1
 631 230 l 1,19,-1
 235 230 l 1,20,21
 235 173 235 173 260 144 c 128,-1,22
 285 115 285 115 341 115 c 0,23,24
 391 115 391 115 414.5 136 c 128,-1,25
 438 157 438 157 438 192 c 1,26,-1
 631 192 l 1,6,7
518 725 m 1,27,28
 518 671 518 671 466 626 c 128,-1,29
 414 581 414 581 333 581 c 0,30,31
 251 581 251 581 200 626 c 128,-1,32
 149 671 149 671 149 725 c 1,33,-1
 245 725 l 1,34,35
 248 707 248 707 272 692 c 1,36,37
 300 675 300 675 333 675 c 0,38,39
 368 675 368 675 393.5 691.5 c 128,-1,40
 419 708 419 708 423 725 c 1,41,-1
 518 725 l 1,27,28
EndSplineSet
EndChar

StartChar: ecaron
Encoding: 283 283 156
Width: 666
Flags: MW
LayerCount: 2
UndoRedoHistory
Layer: 0
Undoes
EndUndoes
Redoes
EndRedoes
EndUndoRedoHistory
UndoRedoHistory
Layer: 1
Undoes
EndUndoes
Redoes
EndRedoes
EndUndoRedoHistory
Fore
SplineSet
430 324 m 1,0,1
 430 366 430 366 406.5 389.5 c 128,-1,2
 383 413 383 413 341 413 c 0,3,4
 247 413 247 413 236 324 c 1,5,-1
 430 324 l 1,0,1
631 192 m 1,6,7
 631 96 631 96 558 42 c 128,-1,8
 485 -12 485 -12 345 -12 c 0,9,10
 198 -12 198 -12 117 56.5 c 128,-1,11
 36 125 36 125 36 264 c 0,12,13
 36 400 36 400 115 470 c 128,-1,14
 194 540 194 540 333 540 c 0,15,16
 479 540 479 540 555 472 c 128,-1,17
 631 404 631 404 631 264 c 2,18,-1
 631 230 l 1,19,-1
 235 230 l 1,20,21
 235 173 235 173 260 144 c 128,-1,22
 285 115 285 115 341 115 c 0,23,24
 391 115 391 115 414.5 136 c 128,-1,25
 438 157 438 157 438 192 c 1,26,-1
 631 192 l 1,6,7
270 580 m 1,27,-1
 130 725 l 1,28,-1
 258 725 l 1,29,-1
 333 648 l 1,30,-1
 407 725 l 1,31,-1
 537 725 l 1,32,-1
 397 580 l 1,33,-1
 270 580 l 1,27,-1
EndSplineSet
EndChar

StartChar: ecircumflex
Encoding: 234 234 157
Width: 666
Flags: MW
LayerCount: 2
UndoRedoHistory
Layer: 0
Undoes
EndUndoes
Redoes
EndRedoes
EndUndoRedoHistory
UndoRedoHistory
Layer: 1
Undoes
EndUndoes
Redoes
EndRedoes
EndUndoRedoHistory
Fore
SplineSet
430 324 m 1,0,1
 430 366 430 366 406.5 389.5 c 128,-1,2
 383 413 383 413 341 413 c 0,3,4
 247 413 247 413 236 324 c 1,5,-1
 430 324 l 1,0,1
631 192 m 1,6,7
 631 96 631 96 558 42 c 128,-1,8
 485 -12 485 -12 345 -12 c 0,9,10
 198 -12 198 -12 117 56.5 c 128,-1,11
 36 125 36 125 36 264 c 0,12,13
 36 400 36 400 115 470 c 128,-1,14
 194 540 194 540 333 540 c 0,15,16
 479 540 479 540 555 472 c 128,-1,17
 631 404 631 404 631 264 c 2,18,-1
 631 230 l 1,19,-1
 235 230 l 1,20,21
 235 173 235 173 260 144 c 128,-1,22
 285 115 285 115 341 115 c 0,23,24
 391 115 391 115 414.5 136 c 128,-1,25
 438 157 438 157 438 192 c 1,26,-1
 631 192 l 1,6,7
407 580 m 1,27,-1
 333 657 l 1,28,-1
 258 580 l 1,29,-1
 130 580 l 1,30,-1
 270 725 l 1,31,-1
 397 725 l 1,32,-1
 537 580 l 1,33,-1
 407 580 l 1,27,-1
EndSplineSet
EndChar

StartChar: edieresis
Encoding: 235 235 158
Width: 666
Flags: MW
LayerCount: 2
UndoRedoHistory
Layer: 0
Undoes
EndUndoes
Redoes
EndRedoes
EndUndoRedoHistory
UndoRedoHistory
Layer: 1
Undoes
EndUndoes
Redoes
EndRedoes
EndUndoRedoHistory
Fore
SplineSet
430 324 m 1,0,1
 430 366 430 366 406.5 389.5 c 128,-1,2
 383 413 383 413 341 413 c 0,3,4
 247 413 247 413 236 324 c 1,5,-1
 430 324 l 1,0,1
631 192 m 1,6,7
 631 96 631 96 558 42 c 128,-1,8
 485 -12 485 -12 345 -12 c 0,9,10
 198 -12 198 -12 117 56.5 c 128,-1,11
 36 125 36 125 36 264 c 0,12,13
 36 400 36 400 115 470 c 128,-1,14
 194 540 194 540 333 540 c 0,15,16
 479 540 479 540 555 472 c 128,-1,17
 631 404 631 404 631 264 c 2,18,-1
 631 230 l 1,19,-1
 235 230 l 1,20,21
 235 173 235 173 260 144 c 128,-1,22
 285 115 285 115 341 115 c 0,23,24
 391 115 391 115 414.5 136 c 128,-1,25
 438 157 438 157 438 192 c 1,26,-1
 631 192 l 1,6,7
368 586 m 1,27,-1
 368 725 l 1,28,-1
 520 725 l 1,29,-1
 520 586 l 1,30,-1
 368 586 l 1,27,-1
147 586 m 1,31,-1
 147 725 l 1,32,-1
 299 725 l 1,33,-1
 299 586 l 1,34,-1
 147 586 l 1,31,-1
EndSplineSet
EndChar

StartChar: edotaccent
Encoding: 279 279 159
Width: 666
Flags: MW
LayerCount: 2
UndoRedoHistory
Layer: 0
Undoes
EndUndoes
Redoes
EndRedoes
EndUndoRedoHistory
UndoRedoHistory
Layer: 1
Undoes
EndUndoes
Redoes
EndRedoes
EndUndoRedoHistory
Fore
SplineSet
430 324 m 1,0,1
 430 366 430 366 406.5 389.5 c 128,-1,2
 383 413 383 413 341 413 c 0,3,4
 247 413 247 413 236 324 c 1,5,-1
 430 324 l 1,0,1
631 192 m 1,6,7
 631 96 631 96 558 42 c 128,-1,8
 485 -12 485 -12 345 -12 c 0,9,10
 198 -12 198 -12 117 56.5 c 128,-1,11
 36 125 36 125 36 264 c 0,12,13
 36 400 36 400 115 470 c 128,-1,14
 194 540 194 540 333 540 c 0,15,16
 479 540 479 540 555 472 c 128,-1,17
 631 404 631 404 631 264 c 2,18,-1
 631 230 l 1,19,-1
 235 230 l 1,20,21
 235 173 235 173 260 144 c 128,-1,22
 285 115 285 115 341 115 c 0,23,24
 391 115 391 115 414.5 136 c 128,-1,25
 438 157 438 157 438 192 c 1,26,-1
 631 192 l 1,6,7
257 586 m 1,27,-1
 257 725 l 1,28,-1
 410 725 l 1,29,-1
 410 586 l 1,30,-1
 257 586 l 1,27,-1
EndSplineSet
EndChar

StartChar: egrave
Encoding: 232 232 160
Width: 666
Flags: MW
LayerCount: 2
UndoRedoHistory
Layer: 0
Undoes
EndUndoes
Redoes
EndRedoes
EndUndoRedoHistory
UndoRedoHistory
Layer: 1
Undoes
EndUndoes
Redoes
EndRedoes
EndUndoRedoHistory
Fore
SplineSet
430 324 m 1,0,1
 430 366 430 366 406.5 389.5 c 128,-1,2
 383 413 383 413 341 413 c 0,3,4
 247 413 247 413 236 324 c 1,5,-1
 430 324 l 1,0,1
631 192 m 1,6,7
 631 96 631 96 558 42 c 128,-1,8
 485 -12 485 -12 345 -12 c 0,9,10
 198 -12 198 -12 117 56.5 c 128,-1,11
 36 125 36 125 36 264 c 0,12,13
 36 400 36 400 115 470 c 128,-1,14
 194 540 194 540 333 540 c 0,15,16
 479 540 479 540 555 472 c 128,-1,17
 631 404 631 404 631 264 c 2,18,-1
 631 230 l 1,19,-1
 235 230 l 1,20,21
 235 173 235 173 260 144 c 128,-1,22
 285 115 285 115 341 115 c 0,23,24
 391 115 391 115 414.5 136 c 128,-1,25
 438 157 438 157 438 192 c 1,26,-1
 631 192 l 1,6,7
143 721 m 1,27,-1
 145 725 l 1,28,-1
 337 725 l 1,29,-1
 430 592 l 1,30,-1
 303 592 l 1,31,-1
 143 721 l 1,27,-1
EndSplineSet
EndChar

StartChar: emacron
Encoding: 275 275 161
Width: 666
Flags: MW
LayerCount: 2
UndoRedoHistory
Layer: 0
Undoes
EndUndoes
Redoes
EndRedoes
EndUndoRedoHistory
UndoRedoHistory
Layer: 1
Undoes
EndUndoes
Redoes
EndRedoes
EndUndoRedoHistory
Fore
SplineSet
430 324 m 1,0,1
 430 366 430 366 406.5 389.5 c 128,-1,2
 383 413 383 413 341 413 c 0,3,4
 247 413 247 413 236 324 c 1,5,-1
 430 324 l 1,0,1
631 192 m 1,6,7
 631 96 631 96 558 42 c 128,-1,8
 485 -12 485 -12 345 -12 c 0,9,10
 198 -12 198 -12 117 56.5 c 128,-1,11
 36 125 36 125 36 264 c 0,12,13
 36 400 36 400 115 470 c 128,-1,14
 194 540 194 540 333 540 c 0,15,16
 479 540 479 540 555 472 c 128,-1,17
 631 404 631 404 631 264 c 2,18,-1
 631 230 l 1,19,-1
 235 230 l 1,20,21
 235 173 235 173 260 144 c 128,-1,22
 285 115 285 115 341 115 c 0,23,24
 391 115 391 115 414.5 136 c 128,-1,25
 438 157 438 157 438 192 c 1,26,-1
 631 192 l 1,6,7
175 605 m 1,27,-1
 175 705 l 1,28,-1
 492 705 l 1,29,-1
 492 605 l 1,30,-1
 175 605 l 1,27,-1
EndSplineSet
EndChar

StartChar: eogonek
Encoding: 281 281 162
Width: 666
Flags: MW
LayerCount: 2
UndoRedoHistory
Layer: 0
Undoes
EndUndoes
Redoes
EndRedoes
EndUndoRedoHistory
UndoRedoHistory
Layer: 1
Undoes
EndUndoes
Redoes
EndRedoes
EndUndoRedoHistory
Fore
SplineSet
430 324 m 1,0,1
 430 366 430 366 406.5 389.5 c 128,-1,2
 383 413 383 413 341 413 c 0,3,4
 247 413 247 413 236 324 c 1,5,-1
 430 324 l 1,0,1
345 -12 m 2,6,7
 198 -12 198 -12 117 56.5 c 128,-1,8
 36 125 36 125 36 264 c 0,9,10
 36 400 36 400 115 470 c 128,-1,11
 194 540 194 540 333 540 c 0,12,13
 479 540 479 540 555 472 c 128,-1,14
 631 404 631 404 631 264 c 2,15,-1
 631 230 l 1,16,-1
 235 230 l 1,17,18
 235 173 235 173 260 144 c 128,-1,19
 285 115 285 115 341 115 c 0,20,21
 391 115 391 115 414.5 136 c 128,-1,22
 438 157 438 157 438 192 c 1,23,-1
 631 192 l 1,24,25
 631 123 631 123 593.5 75 c 128,-1,26
 556 27 556 27 482 5 c 1,27,28
 463 -30 463 -30 463 -69 c 0,29,30
 463 -90 463 -90 477.5 -105 c 128,-1,31
 492 -120 492 -120 523 -120 c 2,32,-1
 565 -120 l 1,33,-1
 565 -196 l 1,34,35
 519 -211 519 -211 470 -211 c 0,36,37
 445 -211 445 -211 422.5 -204.5 c 128,-1,38
 400 -198 400 -198 382 -185 c 128,-1,39
 364 -172 364 -172 353.5 -149.5 c 128,-1,40
 343 -127 343 -127 343 -97 c 0,41,42
 343 -54 343 -54 375 -12 c 1,43,-1
 345 -12 l 2,6,7
EndSplineSet
EndChar

StartChar: f
Encoding: 102 102 163
Width: 388
Flags: MW
LayerCount: 2
UndoRedoHistory
Layer: 0
Undoes
EndUndoes
Redoes
EndRedoes
EndUndoRedoHistory
UndoRedoHistory
Layer: 1
Undoes
EndUndoes
Redoes
EndRedoes
EndUndoRedoHistory
Fore
SplineSet
82 550 m 2,0,1
 82 603 82 603 96 640 c 128,-1,2
 110 677 110 677 136.5 697.5 c 128,-1,3
 163 718 163 718 196.5 727.5 c 128,-1,4
 230 737 230 737 275 737 c 0,5,6
 297 737 297 737 330 732 c 128,-1,7
 363 727 363 727 383 719 c 1,8,-1
 383 602 l 1,9,-1
 337 602 l 2,10,11
 305 602 305 602 293 590 c 128,-1,12
 281 578 281 578 281 549 c 2,13,-1
 281 528 l 1,14,-1
 383 528 l 1,15,-1
 383 393 l 1,16,-1
 281 393 l 1,17,-1
 281 0 l 1,18,-1
 82 0 l 1,19,-1
 82 393 l 1,20,-1
 8 393 l 1,21,-1
 8 528 l 1,22,-1
 82 528 l 1,23,-1
 82 550 l 2,0,1
EndSplineSet
EndChar

StartChar: g
Encoding: 103 103 164
Width: 666
Flags: MW
LayerCount: 2
UndoRedoHistory
Layer: 0
Undoes
EndUndoes
Redoes
EndRedoes
EndUndoRedoHistory
UndoRedoHistory
Layer: 1
Undoes
EndUndoes
Redoes
EndRedoes
EndUndoRedoHistory
Fore
SplineSet
246 0 m 2,0,1
 224 0 224 0 209 -12.5 c 128,-1,2
 194 -25 194 -25 194 -47.5 c 128,-1,3
 194 -70 194 -70 209 -84.5 c 128,-1,4
 224 -99 224 -99 246 -99 c 2,5,-1
 402 -99 l 2,6,7
 424 -99 424 -99 439.5 -85 c 128,-1,8
 455 -71 455 -71 455 -48.5 c 128,-1,9
 455 -26 455 -26 439.5 -13 c 128,-1,10
 424 0 424 0 402 0 c 2,11,-1
 246 0 l 2,0,1
323 436 m 0,12,13
 290 436 290 436 269 419 c 128,-1,14
 248 402 248 402 248 370 c 0,15,16
 248 337 248 337 267.5 320.5 c 128,-1,17
 287 304 287 304 323 304 c 128,-1,18
 359 304 359 304 379.5 320.5 c 128,-1,19
 400 337 400 337 400 370 c 128,-1,20
 400 403 400 403 379.5 419.5 c 128,-1,21
 359 436 359 436 323 436 c 0,12,13
654 627 m 1,22,23
 654 565 654 565 623.5 532.5 c 128,-1,24
 593 500 593 500 532 484 c 1,25,26
 561 462 561 462 577.5 432.5 c 128,-1,27
 594 403 594 403 594 370 c 0,28,29
 594 327 594 327 576.5 294 c 128,-1,30
 559 261 559 261 527.5 241 c 128,-1,31
 496 221 496 221 456.5 210.5 c 128,-1,32
 417 200 417 200 372 200 c 2,33,-1
 296 200 l 2,34,35
 233 200 233 200 233 171 c 0,36,37
 233 140 233 140 296 140 c 2,38,-1
 476 140 l 2,39,40
 564 140 564 140 609 94 c 128,-1,41
 654 48 654 48 654 -29 c 0,42,43
 654 -86 654 -86 623 -127.5 c 128,-1,44
 592 -169 592 -169 542.5 -189.5 c 128,-1,45
 493 -210 493 -210 432 -210 c 2,46,-1
 138 -210 l 2,47,48
 83 -210 83 -210 44 -173 c 128,-1,49
 5 -136 5 -136 5 -81 c 0,50,51
 5 -42 5 -42 29 -10.5 c 128,-1,52
 53 21 53 21 89 37 c 1,53,54
 37 72 37 72 37 130 c 0,55,56
 37 169 37 169 66 200.5 c 128,-1,57
 95 232 95 232 138 243 c 1,58,59
 99 267 99 267 76 300 c 128,-1,60
 53 333 53 333 53 369 c 0,61,62
 53 416 53 416 74.5 450.5 c 128,-1,63
 96 485 96 485 134.5 504 c 128,-1,64
 173 523 173 523 220 531.5 c 128,-1,65
 267 540 267 540 325 540 c 0,66,67
 379 540 379 540 412 534 c 1,68,69
 433 547 433 547 449.5 562 c 128,-1,70
 466 577 466 577 473 587 c 128,-1,71
 480 597 480 597 484.5 607 c 128,-1,72
 489 617 489 617 489.5 621 c 128,-1,73
 490 625 490 625 490 627 c 1,74,-1
 654 627 l 1,22,23
EndSplineSet
EndChar

StartChar: gbreve
Encoding: 287 287 165
Width: 666
Flags: MW
LayerCount: 2
UndoRedoHistory
Layer: 0
Undoes
EndUndoes
Redoes
EndRedoes
EndUndoRedoHistory
UndoRedoHistory
Layer: 1
Undoes
EndUndoes
Redoes
EndRedoes
EndUndoRedoHistory
Fore
SplineSet
246 0 m 2,0,1
 224 0 224 0 209 -12.5 c 128,-1,2
 194 -25 194 -25 194 -47.5 c 128,-1,3
 194 -70 194 -70 209 -84.5 c 128,-1,4
 224 -99 224 -99 246 -99 c 2,5,-1
 402 -99 l 2,6,7
 424 -99 424 -99 439.5 -85 c 128,-1,8
 455 -71 455 -71 455 -48.5 c 128,-1,9
 455 -26 455 -26 439.5 -13 c 128,-1,10
 424 0 424 0 402 0 c 2,11,-1
 246 0 l 2,0,1
323 436 m 0,12,13
 290 436 290 436 269 419 c 128,-1,14
 248 402 248 402 248 370 c 0,15,16
 248 337 248 337 267.5 320.5 c 128,-1,17
 287 304 287 304 323 304 c 128,-1,18
 359 304 359 304 379.5 320.5 c 128,-1,19
 400 337 400 337 400 370 c 128,-1,20
 400 403 400 403 379.5 419.5 c 128,-1,21
 359 436 359 436 323 436 c 0,12,13
654 627 m 1,22,23
 654 565 654 565 623.5 532.5 c 128,-1,24
 593 500 593 500 532 484 c 1,25,26
 561 462 561 462 577.5 432.5 c 128,-1,27
 594 403 594 403 594 370 c 0,28,29
 594 327 594 327 576.5 294 c 128,-1,30
 559 261 559 261 527.5 241 c 128,-1,31
 496 221 496 221 456.5 210.5 c 128,-1,32
 417 200 417 200 372 200 c 2,33,-1
 296 200 l 2,34,35
 233 200 233 200 233 171 c 0,36,37
 233 140 233 140 296 140 c 2,38,-1
 476 140 l 2,39,40
 564 140 564 140 609 94 c 128,-1,41
 654 48 654 48 654 -29 c 0,42,43
 654 -86 654 -86 623 -127.5 c 128,-1,44
 592 -169 592 -169 542.5 -189.5 c 128,-1,45
 493 -210 493 -210 432 -210 c 2,46,-1
 138 -210 l 2,47,48
 83 -210 83 -210 44 -173 c 128,-1,49
 5 -136 5 -136 5 -81 c 0,50,51
 5 -42 5 -42 29 -10.5 c 128,-1,52
 53 21 53 21 89 37 c 1,53,54
 37 72 37 72 37 130 c 0,55,56
 37 169 37 169 66 200.5 c 128,-1,57
 95 232 95 232 138 243 c 1,58,59
 99 267 99 267 76 300 c 128,-1,60
 53 333 53 333 53 369 c 0,61,62
 53 416 53 416 74.5 450.5 c 128,-1,63
 96 485 96 485 134.5 504 c 128,-1,64
 173 523 173 523 220 531.5 c 128,-1,65
 267 540 267 540 325 540 c 0,66,67
 379 540 379 540 412 534 c 1,68,69
 439 534 439 534 460.5 543.5 c 128,-1,70
 482 553 482 553 492.5 567 c 128,-1,71
 503 581 503 581 510.5 594.5 c 128,-1,72
 518 608 518 608 520 617 c 2,73,-1
 521 627 l 1,74,-1
 654 627 l 1,22,23
515 725 m 1,75,76
 515 671 515 671 462.5 626 c 128,-1,77
 410 581 410 581 330 581 c 0,78,79
 288 581 288 581 252.5 594 c 128,-1,80
 217 607 217 607 194 628 c 128,-1,81
 171 649 171 649 158.5 674.5 c 128,-1,82
 146 700 146 700 146 725 c 1,83,-1
 242 725 l 1,84,85
 245 707 245 707 269 692 c 1,86,87
 297 675 297 675 330 675 c 0,88,89
 364 675 364 675 390.5 691.5 c 128,-1,90
 417 708 417 708 419 725 c 1,91,-1
 515 725 l 1,75,76
EndSplineSet
EndChar

StartChar: gcircumflex
Encoding: 285 285 166
Width: 666
Flags: MW
LayerCount: 2
UndoRedoHistory
Layer: 0
Undoes
EndUndoes
Redoes
EndRedoes
EndUndoRedoHistory
UndoRedoHistory
Layer: 1
Undoes
EndUndoes
Redoes
EndRedoes
EndUndoRedoHistory
Fore
SplineSet
246 0 m 2,0,1
 224 0 224 0 209 -12.5 c 128,-1,2
 194 -25 194 -25 194 -47.5 c 128,-1,3
 194 -70 194 -70 209 -84.5 c 128,-1,4
 224 -99 224 -99 246 -99 c 2,5,-1
 402 -99 l 2,6,7
 424 -99 424 -99 439.5 -85 c 128,-1,8
 455 -71 455 -71 455 -48.5 c 128,-1,9
 455 -26 455 -26 439.5 -13 c 128,-1,10
 424 0 424 0 402 0 c 2,11,-1
 246 0 l 2,0,1
323 436 m 0,12,13
 290 436 290 436 269 419 c 128,-1,14
 248 402 248 402 248 370 c 0,15,16
 248 337 248 337 267.5 320.5 c 128,-1,17
 287 304 287 304 323 304 c 128,-1,18
 359 304 359 304 379.5 320.5 c 128,-1,19
 400 337 400 337 400 370 c 128,-1,20
 400 403 400 403 379.5 419.5 c 128,-1,21
 359 436 359 436 323 436 c 0,12,13
654 627 m 1,22,23
 654 565 654 565 623.5 532.5 c 128,-1,24
 593 500 593 500 532 484 c 1,25,26
 561 462 561 462 577.5 432.5 c 128,-1,27
 594 403 594 403 594 370 c 0,28,29
 594 327 594 327 576.5 294 c 128,-1,30
 559 261 559 261 527.5 241 c 128,-1,31
 496 221 496 221 456.5 210.5 c 128,-1,32
 417 200 417 200 372 200 c 2,33,-1
 296 200 l 2,34,35
 233 200 233 200 233 171 c 0,36,37
 233 140 233 140 296 140 c 2,38,-1
 476 140 l 2,39,40
 564 140 564 140 609 94 c 128,-1,41
 654 48 654 48 654 -29 c 0,42,43
 654 -86 654 -86 623 -127.5 c 128,-1,44
 592 -169 592 -169 542.5 -189.5 c 128,-1,45
 493 -210 493 -210 432 -210 c 2,46,-1
 138 -210 l 2,47,48
 83 -210 83 -210 44 -173 c 128,-1,49
 5 -136 5 -136 5 -81 c 0,50,51
 5 -42 5 -42 29 -10.5 c 128,-1,52
 53 21 53 21 89 37 c 1,53,54
 37 72 37 72 37 130 c 0,55,56
 37 169 37 169 66 200.5 c 128,-1,57
 95 232 95 232 138 243 c 1,58,59
 99 267 99 267 76 300 c 128,-1,60
 53 333 53 333 53 369 c 0,61,62
 53 416 53 416 74.5 450.5 c 128,-1,63
 96 485 96 485 134.5 504 c 128,-1,64
 173 523 173 523 220 531.5 c 128,-1,65
 267 540 267 540 325 540 c 0,66,67
 379 540 379 540 412 534 c 1,68,69
 441 534 441 534 462 541 c 128,-1,70
 483 548 483 548 494 557.5 c 128,-1,71
 505 567 505 567 511.5 580 c 128,-1,72
 518 593 518 593 519.5 601.5 c 128,-1,73
 521 610 521 610 521 619 c 2,74,-1
 521 627 l 1,75,-1
 654 627 l 1,22,23
359 580 m 1,76,-1
 305 657 l 1,77,-1
 250 580 l 1,78,-1
 122 580 l 1,79,-1
 242 725 l 1,80,-1
 370 725 l 1,81,-1
 489 580 l 1,82,-1
 359 580 l 1,76,-1
EndSplineSet
EndChar

StartChar: gcommaaccent
Encoding: 291 291 167
Width: 666
Flags: MW
LayerCount: 2
UndoRedoHistory
Layer: 0
Undoes
EndUndoes
Redoes
EndRedoes
EndUndoRedoHistory
UndoRedoHistory
Layer: 1
Undoes
EndUndoes
Redoes
EndRedoes
EndUndoRedoHistory
Fore
SplineSet
246 0 m 2,0,1
 224 0 224 0 209 -12.5 c 128,-1,2
 194 -25 194 -25 194 -47.5 c 128,-1,3
 194 -70 194 -70 209 -84.5 c 128,-1,4
 224 -99 224 -99 246 -99 c 2,5,-1
 402 -99 l 2,6,7
 424 -99 424 -99 439.5 -85 c 128,-1,8
 455 -71 455 -71 455 -48.5 c 128,-1,9
 455 -26 455 -26 439.5 -13 c 128,-1,10
 424 0 424 0 402 0 c 2,11,-1
 246 0 l 2,0,1
323 436 m 0,12,13
 290 436 290 436 269 419 c 128,-1,14
 248 402 248 402 248 370 c 0,15,16
 248 337 248 337 267.5 320.5 c 128,-1,17
 287 304 287 304 323 304 c 128,-1,18
 359 304 359 304 379.5 320.5 c 128,-1,19
 400 337 400 337 400 370 c 128,-1,20
 400 403 400 403 379.5 419.5 c 128,-1,21
 359 436 359 436 323 436 c 0,12,13
654 627 m 1,22,23
 654 565 654 565 623.5 532.5 c 128,-1,24
 593 500 593 500 532 484 c 1,25,26
 561 462 561 462 577.5 432.5 c 128,-1,27
 594 403 594 403 594 370 c 0,28,29
 594 327 594 327 576.5 294 c 128,-1,30
 559 261 559 261 527.5 241 c 128,-1,31
 496 221 496 221 456.5 210.5 c 128,-1,32
 417 200 417 200 372 200 c 2,33,-1
 296 200 l 2,34,35
 233 200 233 200 233 171 c 0,36,37
 233 140 233 140 296 140 c 2,38,-1
 476 140 l 2,39,40
 564 140 564 140 609 94 c 128,-1,41
 654 48 654 48 654 -29 c 0,42,43
 654 -86 654 -86 623 -127.5 c 128,-1,44
 592 -169 592 -169 542.5 -189.5 c 128,-1,45
 493 -210 493 -210 432 -210 c 2,46,-1
 138 -210 l 2,47,48
 83 -210 83 -210 44 -173 c 128,-1,49
 5 -136 5 -136 5 -81 c 0,50,51
 5 -42 5 -42 29 -10.5 c 128,-1,52
 53 21 53 21 89 37 c 1,53,54
 37 72 37 72 37 130 c 0,55,56
 37 169 37 169 66 200.5 c 128,-1,57
 95 232 95 232 138 243 c 1,58,59
 99 267 99 267 76 300 c 128,-1,60
 53 333 53 333 53 369 c 0,61,62
 53 416 53 416 74.5 450.5 c 128,-1,63
 96 485 96 485 134.5 504 c 128,-1,64
 173 523 173 523 220 531.5 c 128,-1,65
 267 540 267 540 325 540 c 0,66,67
 379 540 379 540 412 534 c 1,68,69
 433 547 433 547 449.5 562 c 128,-1,70
 466 577 466 577 473 587 c 128,-1,71
 480 597 480 597 484.5 607 c 128,-1,72
 489 617 489 617 489.5 621 c 128,-1,73
 490 625 490 625 490 627 c 1,74,-1
 654 627 l 1,22,23
312 780 m 1,75,-1
 379 780 l 1,76,-1
 338 688 l 1,77,-1
 388 688 l 1,78,-1
 388 572 l 1,79,-1
 258 572 l 1,80,-1
 258 681 l 1,81,-1
 312 780 l 1,75,-1
EndSplineSet
EndChar

StartChar: gdotaccent
Encoding: 289 289 168
Width: 666
Flags: MW
LayerCount: 2
UndoRedoHistory
Layer: 0
Undoes
EndUndoes
Redoes
EndRedoes
EndUndoRedoHistory
UndoRedoHistory
Layer: 1
Undoes
EndUndoes
Redoes
EndRedoes
EndUndoRedoHistory
Fore
SplineSet
246 0 m 2,0,1
 224 0 224 0 209 -12.5 c 128,-1,2
 194 -25 194 -25 194 -47.5 c 128,-1,3
 194 -70 194 -70 209 -84.5 c 128,-1,4
 224 -99 224 -99 246 -99 c 2,5,-1
 402 -99 l 2,6,7
 424 -99 424 -99 439.5 -85 c 128,-1,8
 455 -71 455 -71 455 -48.5 c 128,-1,9
 455 -26 455 -26 439.5 -13 c 128,-1,10
 424 0 424 0 402 0 c 2,11,-1
 246 0 l 2,0,1
323 436 m 0,12,13
 290 436 290 436 269 419 c 128,-1,14
 248 402 248 402 248 370 c 0,15,16
 248 337 248 337 267.5 320.5 c 128,-1,17
 287 304 287 304 323 304 c 128,-1,18
 359 304 359 304 379.5 320.5 c 128,-1,19
 400 337 400 337 400 370 c 128,-1,20
 400 403 400 403 379.5 419.5 c 128,-1,21
 359 436 359 436 323 436 c 0,12,13
654 627 m 1,22,23
 654 565 654 565 623.5 532.5 c 128,-1,24
 593 500 593 500 532 484 c 1,25,26
 561 462 561 462 577.5 432.5 c 128,-1,27
 594 403 594 403 594 370 c 0,28,29
 594 327 594 327 576.5 294 c 128,-1,30
 559 261 559 261 527.5 241 c 128,-1,31
 496 221 496 221 456.5 210.5 c 128,-1,32
 417 200 417 200 372 200 c 2,33,-1
 296 200 l 2,34,35
 233 200 233 200 233 171 c 0,36,37
 233 140 233 140 296 140 c 2,38,-1
 476 140 l 2,39,40
 564 140 564 140 609 94 c 128,-1,41
 654 48 654 48 654 -29 c 0,42,43
 654 -86 654 -86 623 -127.5 c 128,-1,44
 592 -169 592 -169 542.5 -189.5 c 128,-1,45
 493 -210 493 -210 432 -210 c 2,46,-1
 138 -210 l 2,47,48
 83 -210 83 -210 44 -173 c 128,-1,49
 5 -136 5 -136 5 -81 c 0,50,51
 5 -42 5 -42 29 -10.5 c 128,-1,52
 53 21 53 21 89 37 c 1,53,54
 37 72 37 72 37 130 c 0,55,56
 37 169 37 169 66 200.5 c 128,-1,57
 95 232 95 232 138 243 c 1,58,59
 99 267 99 267 76 300 c 128,-1,60
 53 333 53 333 53 369 c 0,61,62
 53 416 53 416 74.5 450.5 c 128,-1,63
 96 485 96 485 134.5 504 c 128,-1,64
 173 523 173 523 220 531.5 c 128,-1,65
 267 540 267 540 325 540 c 0,66,67
 379 540 379 540 412 534 c 1,68,69
 433 547 433 547 449.5 562 c 128,-1,70
 466 577 466 577 473 587 c 128,-1,71
 480 597 480 597 484.5 607 c 128,-1,72
 489 617 489 617 489.5 621 c 128,-1,73
 490 625 490 625 490 627 c 1,74,-1
 654 627 l 1,22,23
227 586 m 1,75,-1
 227 725 l 1,76,-1
 379 725 l 1,77,-1
 379 586 l 1,78,-1
 227 586 l 1,75,-1
EndSplineSet
EndChar

StartChar: h
Encoding: 104 104 169
Width: 666
Flags: MW
LayerCount: 2
UndoRedoHistory
Layer: 0
Undoes
EndUndoes
Redoes
EndRedoes
EndUndoRedoHistory
UndoRedoHistory
Layer: 1
Undoes
EndUndoes
Redoes
EndRedoes
EndUndoRedoHistory
Fore
SplineSet
259 473 m 1,0,1
 291 505 291 505 334 522.5 c 128,-1,2
 377 540 377 540 424 540 c 0,3,4
 516 540 516 540 562 489 c 128,-1,5
 608 438 608 438 608 342 c 2,6,-1
 608 0 l 1,7,-1
 409 0 l 1,8,-1
 409 318 l 2,9,10
 409 352 409 352 391.5 372.5 c 128,-1,11
 374 393 374 393 342 393 c 0,12,13
 305 393 305 393 282 369 c 128,-1,14
 259 345 259 345 259 310 c 2,15,-1
 259 0 l 1,16,-1
 60 0 l 1,17,-1
 60 725 l 1,18,-1
 259 725 l 1,19,-1
 259 473 l 1,0,1
EndSplineSet
EndChar

StartChar: hbar
Encoding: 295 295 170
Width: 666
Flags: MW
LayerCount: 2
UndoRedoHistory
Layer: 0
Undoes
EndUndoes
Redoes
EndRedoes
EndUndoRedoHistory
UndoRedoHistory
Layer: 1
Undoes
EndUndoes
Redoes
EndRedoes
EndUndoRedoHistory
Fore
SplineSet
329 668 m 1,0,-1
 329 575 l 1,1,-1
 259 575 l 1,2,-1
 259 473 l 1,3,4
 291 505 291 505 334 522.5 c 128,-1,5
 377 540 377 540 424 540 c 0,6,7
 516 540 516 540 562 489 c 128,-1,8
 608 438 608 438 608 342 c 2,9,-1
 608 0 l 1,10,-1
 409 0 l 1,11,-1
 409 318 l 2,12,13
 409 352 409 352 391.5 372.5 c 128,-1,14
 374 393 374 393 342 393 c 0,15,16
 305 393 305 393 282 369 c 128,-1,17
 259 345 259 345 259 310 c 2,18,-1
 259 0 l 1,19,-1
 60 0 l 1,20,-1
 60 575 l 1,21,-1
 -2 575 l 1,22,-1
 -2 668 l 1,23,-1
 60 668 l 1,24,-1
 60 725 l 1,25,-1
 259 725 l 1,26,-1
 259 668 l 1,27,-1
 329 668 l 1,0,-1
EndSplineSet
EndChar

StartChar: hcircumflex
Encoding: 293 293 171
Width: 666
Flags: MW
LayerCount: 2
UndoRedoHistory
Layer: 0
Undoes
EndUndoes
Redoes
EndRedoes
EndUndoRedoHistory
UndoRedoHistory
Layer: 1
Undoes
EndUndoes
Redoes
EndRedoes
EndUndoRedoHistory
Fore
SplineSet
259 473 m 1,0,1
 291 505 291 505 334 522.5 c 128,-1,2
 377 540 377 540 424 540 c 0,3,4
 516 540 516 540 562 489 c 128,-1,5
 608 438 608 438 608 342 c 2,6,-1
 608 0 l 1,7,-1
 409 0 l 1,8,-1
 409 318 l 2,9,10
 409 352 409 352 391.5 372.5 c 128,-1,11
 374 393 374 393 342 393 c 0,12,13
 305 393 305 393 282 369 c 128,-1,14
 259 345 259 345 259 310 c 2,15,-1
 259 0 l 1,16,-1
 60 0 l 1,17,-1
 60 725 l 1,18,-1
 259 725 l 1,19,-1
 259 473 l 1,0,1
233 740 m 1,20,-1
 159 817 l 1,21,-1
 84 740 l 1,22,-1
 -43 740 l 1,23,-1
 96 885 l 1,24,-1
 224 885 l 1,25,-1
 363 740 l 1,26,-1
 233 740 l 1,20,-1
EndSplineSet
EndChar

StartChar: i
Encoding: 105 105 172
Width: 332
Flags: MW
LayerCount: 2
UndoRedoHistory
Layer: 0
Undoes
EndUndoes
Redoes
EndRedoes
EndUndoRedoHistory
UndoRedoHistory
Layer: 1
Undoes
EndUndoes
Redoes
EndRedoes
EndUndoRedoHistory
Fore
SplineSet
67 0 m 1,0,-1
 67 528 l 1,1,-1
 266 528 l 1,2,-1
 266 0 l 1,3,-1
 67 0 l 1,0,-1
67 590 m 1,4,-1
 67 725 l 1,5,-1
 266 725 l 1,6,-1
 266 590 l 1,7,-1
 67 590 l 1,4,-1
EndSplineSet
EndChar

StartChar: dotlessi
Encoding: 305 305 173
Width: 332
Flags: MW
LayerCount: 2
UndoRedoHistory
Layer: 0
Undoes
EndUndoes
Redoes
EndRedoes
EndUndoRedoHistory
UndoRedoHistory
Layer: 1
Undoes
EndUndoes
Redoes
EndRedoes
EndUndoRedoHistory
Fore
SplineSet
67 0 m 1,0,-1
 67 528 l 1,1,-1
 266 528 l 1,2,-1
 266 0 l 1,3,-1
 67 0 l 1,0,-1
EndSplineSet
EndChar

StartChar: iacute
Encoding: 237 237 174
Width: 332
Flags: MW
LayerCount: 2
UndoRedoHistory
Layer: 0
Undoes
EndUndoes
Redoes
EndRedoes
EndUndoRedoHistory
UndoRedoHistory
Layer: 1
Undoes
EndUndoes
Redoes
EndRedoes
EndUndoRedoHistory
Fore
SplineSet
67 528 m 1,0,-1
 266 528 l 1,1,-1
 266 0 l 1,2,-1
 67 0 l 1,3,-1
 67 528 l 1,0,-1
70 592 m 1,4,-1
 163 725 l 1,5,-1
 355 725 l 1,6,-1
 357 721 l 1,7,-1
 198 592 l 1,8,-1
 70 592 l 1,4,-1
EndSplineSet
EndChar

StartChar: ibreve
Encoding: 301 301 175
Width: 332
Flags: MW
LayerCount: 2
UndoRedoHistory
Layer: 0
Undoes
EndUndoes
Redoes
EndRedoes
EndUndoRedoHistory
UndoRedoHistory
Layer: 1
Undoes
EndUndoes
Redoes
EndRedoes
EndUndoRedoHistory
Fore
SplineSet
67 0 m 1,0,-1
 67 528 l 1,1,-1
 266 528 l 1,2,-1
 266 0 l 1,3,-1
 67 0 l 1,0,-1
351 725 m 1,4,5
 351 671 351 671 299 626 c 128,-1,6
 247 581 247 581 166 581 c 0,7,8
 84 581 84 581 33 626 c 128,-1,9
 -18 671 -18 671 -18 725 c 1,10,-1
 78 725 l 1,11,12
 81 707 81 707 105 692 c 1,13,14
 133 675 133 675 166 675 c 0,15,16
 201 675 201 675 226.5 691.5 c 128,-1,17
 252 708 252 708 256 725 c 1,18,-1
 351 725 l 1,4,5
EndSplineSet
EndChar

StartChar: icircumflex
Encoding: 238 238 176
Width: 332
Flags: MW
LayerCount: 2
UndoRedoHistory
Layer: 0
Undoes
EndUndoes
Redoes
EndRedoes
EndUndoRedoHistory
UndoRedoHistory
Layer: 1
Undoes
EndUndoes
Redoes
EndRedoes
EndUndoRedoHistory
Fore
SplineSet
67 0 m 1,0,-1
 67 528 l 1,1,-1
 266 528 l 1,2,-1
 266 0 l 1,3,-1
 67 0 l 1,0,-1
240 580 m 1,4,-1
 166 657 l 1,5,-1
 91 580 l 1,6,-1
 -37 580 l 1,7,-1
 103 725 l 1,8,-1
 230 725 l 1,9,-1
 370 580 l 1,10,-1
 240 580 l 1,4,-1
EndSplineSet
EndChar

StartChar: idieresis
Encoding: 239 239 177
Width: 332
Flags: MW
LayerCount: 2
UndoRedoHistory
Layer: 0
Undoes
EndUndoes
Redoes
EndRedoes
EndUndoRedoHistory
UndoRedoHistory
Layer: 1
Undoes
EndUndoes
Redoes
EndRedoes
EndUndoRedoHistory
Fore
SplineSet
67 0 m 1,0,-1
 67 528 l 1,1,-1
 266 528 l 1,2,-1
 266 0 l 1,3,-1
 67 0 l 1,0,-1
201 586 m 1,4,-1
 201 725 l 1,5,-1
 353 725 l 1,6,-1
 353 586 l 1,7,-1
 201 586 l 1,4,-1
-20 586 m 1,8,-1
 -20 725 l 1,9,-1
 132 725 l 1,10,-1
 132 586 l 1,11,-1
 -20 586 l 1,8,-1
EndSplineSet
EndChar

StartChar: igrave
Encoding: 236 236 178
Width: 332
Flags: MW
LayerCount: 2
UndoRedoHistory
Layer: 0
Undoes
EndUndoes
Redoes
EndRedoes
EndUndoRedoHistory
UndoRedoHistory
Layer: 1
Undoes
EndUndoes
Redoes
EndRedoes
EndUndoRedoHistory
Fore
SplineSet
67 528 m 1,0,-1
 266 528 l 1,1,-1
 266 0 l 1,2,-1
 67 0 l 1,3,-1
 67 528 l 1,0,-1
-24 721 m 1,4,-1
 -22 725 l 1,5,-1
 170 725 l 1,6,-1
 263 592 l 1,7,-1
 136 592 l 1,8,-1
 -24 721 l 1,4,-1
EndSplineSet
EndChar

StartChar: ij
Encoding: 307 307 179
Width: 667
Flags: MW
LayerCount: 2
UndoRedoHistory
Layer: 0
Undoes
EndUndoes
Redoes
EndRedoes
EndUndoRedoHistory
UndoRedoHistory
Layer: 1
Undoes
EndUndoes
Redoes
EndRedoes
EndUndoRedoHistory
Fore
SplineSet
601 -29 m 2,0,1
 601 -125 601 -125 557.5 -167.5 c 128,-1,2
 514 -210 514 -210 418 -210 c 0,3,4
 391 -210 391 -210 353 -205 c 128,-1,5
 315 -200 315 -200 294 -192 c 1,6,-1
 294 -73 l 1,7,-1
 346 -73 l 2,8,9
 402 -73 402 -73 402 -9 c 2,10,-1
 402 528 l 1,11,-1
 601 528 l 1,12,-1
 601 -29 l 2,0,1
67 0 m 1,13,-1
 67 528 l 1,14,-1
 266 528 l 1,15,-1
 266 0 l 1,16,-1
 67 0 l 1,13,-1
402 590 m 1,17,-1
 402 725 l 1,18,-1
 601 725 l 1,19,-1
 601 590 l 1,20,-1
 402 590 l 1,17,-1
67 590 m 1,21,-1
 67 725 l 1,22,-1
 266 725 l 1,23,-1
 266 590 l 1,24,-1
 67 590 l 1,21,-1
EndSplineSet
EndChar

StartChar: imacron
Encoding: 299 299 180
Width: 332
Flags: MW
LayerCount: 2
UndoRedoHistory
Layer: 0
Undoes
EndUndoes
Redoes
EndRedoes
EndUndoRedoHistory
UndoRedoHistory
Layer: 1
Undoes
EndUndoes
Redoes
EndRedoes
EndUndoRedoHistory
Fore
SplineSet
67 0 m 1,0,-1
 67 528 l 1,1,-1
 266 528 l 1,2,-1
 266 0 l 1,3,-1
 67 0 l 1,0,-1
8 605 m 1,4,-1
 8 705 l 1,5,-1
 325 705 l 1,6,-1
 325 605 l 1,7,-1
 8 605 l 1,4,-1
EndSplineSet
EndChar

StartChar: iogonek
Encoding: 303 303 181
Width: 332
Flags: MW
LayerCount: 2
UndoRedoHistory
Layer: 0
Undoes
EndUndoes
Redoes
EndRedoes
EndUndoRedoHistory
UndoRedoHistory
Layer: 1
Undoes
EndUndoes
Redoes
EndRedoes
EndUndoRedoHistory
Fore
SplineSet
243 0 m 1,0,1
 227 -33 227 -33 227 -69 c 0,2,3
 227 -91 227 -91 241.5 -105.5 c 128,-1,4
 256 -120 256 -120 287 -120 c 2,5,-1
 329 -120 l 1,6,-1
 329 -196 l 1,7,8
 281 -211 281 -211 233 -211 c 0,9,10
 179 -211 179 -211 142.5 -183 c 128,-1,11
 106 -155 106 -155 106 -97 c 0,12,13
 106 -50 106 -50 146 0 c 1,14,-1
 67 0 l 1,15,-1
 67 528 l 1,16,-1
 266 528 l 1,17,-1
 266 0 l 1,18,-1
 243 0 l 1,0,1
90 586 m 1,19,-1
 90 725 l 1,20,-1
 243 725 l 1,21,-1
 243 586 l 1,22,-1
 90 586 l 1,19,-1
EndSplineSet
EndChar

StartChar: itilde
Encoding: 297 297 182
Width: 332
Flags: MW
LayerCount: 2
UndoRedoHistory
Layer: 0
Undoes
EndUndoes
Redoes
EndRedoes
EndUndoRedoHistory
UndoRedoHistory
Layer: 1
Undoes
EndUndoes
Redoes
EndRedoes
EndUndoRedoHistory
Fore
SplineSet
67 0 m 1,0,-1
 67 528 l 1,1,-1
 266 528 l 1,2,-1
 266 0 l 1,3,-1
 67 0 l 1,0,-1
389 725 m 1,4,5
 389 669 389 669 349.5 625.5 c 128,-1,6
 310 582 310 582 249 582 c 0,7,8
 216 582 216 582 159 602 c 128,-1,9
 102 622 102 622 76 622 c 0,10,11
 57 622 57 622 44 611 c 128,-1,12
 31 600 31 600 25 582 c 1,13,-1
 -56 582 l 1,14,15
 -56 638 -56 638 -16.5 681.5 c 128,-1,16
 23 725 23 725 84 725 c 0,17,18
 117 725 117 725 174 705 c 128,-1,19
 231 685 231 685 257 685 c 0,20,21
 276 685 276 685 289 696 c 128,-1,22
 302 707 302 707 308 725 c 1,23,-1
 389 725 l 1,4,5
EndSplineSet
EndChar

StartChar: j
Encoding: 106 106 183
Width: 332
Flags: MW
LayerCount: 2
UndoRedoHistory
Layer: 0
Undoes
EndUndoes
Redoes
EndRedoes
EndUndoRedoHistory
UndoRedoHistory
Layer: 1
Undoes
EndUndoes
Redoes
EndRedoes
EndUndoRedoHistory
Fore
SplineSet
266 -29 m 2,0,1
 266 -125 266 -125 222.5 -167.5 c 128,-1,2
 179 -210 179 -210 83 -210 c 0,3,4
 56 -210 56 -210 18 -205 c 128,-1,5
 -20 -200 -20 -200 -41 -192 c 1,6,-1
 -41 -73 l 1,7,-1
 11 -73 l 2,8,9
 67 -73 67 -73 67 -9 c 2,10,-1
 67 528 l 1,11,-1
 266 528 l 1,12,-1
 266 -29 l 2,0,1
67 590 m 1,13,-1
 67 725 l 1,14,-1
 266 725 l 1,15,-1
 266 590 l 1,16,-1
 67 590 l 1,13,-1
EndSplineSet
EndChar

StartChar: jcircumflex
Encoding: 309 309 184
Width: 332
Flags: MW
LayerCount: 2
UndoRedoHistory
Layer: 0
Undoes
EndUndoes
Redoes
EndRedoes
EndUndoRedoHistory
UndoRedoHistory
Layer: 1
Undoes
EndUndoes
Redoes
EndRedoes
EndUndoRedoHistory
Fore
SplineSet
266 -29 m 2,0,1
 266 -125 266 -125 222.5 -167.5 c 128,-1,2
 179 -210 179 -210 83 -210 c 0,3,4
 56 -210 56 -210 18 -205 c 128,-1,5
 -20 -200 -20 -200 -41 -192 c 1,6,-1
 -41 -73 l 1,7,-1
 11 -73 l 2,8,9
 67 -73 67 -73 67 -9 c 2,10,-1
 67 528 l 1,11,-1
 266 528 l 1,12,-1
 266 -29 l 2,0,1
241 580 m 1,13,-1
 167 657 l 1,14,-1
 93 580 l 1,15,-1
 -35 580 l 1,16,-1
 104 725 l 1,17,-1
 232 725 l 1,18,-1
 371 580 l 1,19,-1
 241 580 l 1,13,-1
EndSplineSet
EndChar

StartChar: k
Encoding: 107 107 185
Width: 666
Flags: MW
LayerCount: 2
UndoRedoHistory
Layer: 0
Undoes
EndUndoes
Redoes
EndRedoes
EndUndoRedoHistory
UndoRedoHistory
Layer: 1
Undoes
EndUndoes
Redoes
EndRedoes
EndUndoRedoHistory
Fore
SplineSet
428 528 m 1,0,-1
 660 528 l 1,1,-1
 465 315 l 1,2,-1
 665 0 l 1,3,-1
 439 0 l 1,4,-1
 328 181 l 1,5,-1
 259 114 l 1,6,-1
 259 0 l 1,7,-1
 60 0 l 1,8,-1
 60 726 l 1,9,-1
 259 726 l 1,10,-1
 259 326 l 1,11,-1
 428 528 l 1,0,-1
EndSplineSet
EndChar

StartChar: kcommaaccent
Encoding: 311 311 186
Width: 666
Flags: MW
LayerCount: 2
UndoRedoHistory
Layer: 0
Undoes
EndUndoes
Redoes
EndRedoes
EndUndoRedoHistory
UndoRedoHistory
Layer: 1
Undoes
EndUndoes
Redoes
EndRedoes
EndUndoRedoHistory
Fore
SplineSet
344 -267 m 1,0,-1
 277 -267 l 1,1,-1
 318 -175 l 1,2,-1
 269 -175 l 1,3,-1
 269 -59 l 1,4,-1
 398 -59 l 1,5,-1
 398 -168 l 1,6,-1
 344 -267 l 1,0,-1
428 528 m 1,7,-1
 660 528 l 1,8,-1
 465 315 l 1,9,-1
 665 0 l 1,10,-1
 439 0 l 1,11,-1
 328 181 l 1,12,-1
 259 114 l 1,13,-1
 259 0 l 1,14,-1
 60 0 l 1,15,-1
 60 726 l 1,16,-1
 259 726 l 1,17,-1
 259 326 l 1,18,-1
 428 528 l 1,7,-1
EndSplineSet
EndChar

StartChar: kgreenlandic
Encoding: 312 312 187
Width: 666
Flags: MW
LayerCount: 2
UndoRedoHistory
Layer: 0
Undoes
EndUndoes
Redoes
EndRedoes
EndUndoRedoHistory
UndoRedoHistory
Layer: 1
Undoes
EndUndoes
Redoes
EndRedoes
EndUndoRedoHistory
Fore
SplineSet
665 0 m 1,0,-1
 439 0 l 1,1,-1
 328 181 l 1,2,-1
 259 114 l 1,3,-1
 259 0 l 1,4,-1
 60 0 l 1,5,-1
 60 528 l 1,6,-1
 259 528 l 1,7,-1
 259 326 l 1,8,-1
 428 528 l 1,9,-1
 660 528 l 1,10,-1
 465 315 l 1,11,-1
 665 0 l 1,0,-1
EndSplineSet
EndChar

StartChar: l
Encoding: 108 108 188
Width: 332
Flags: MW
LayerCount: 2
UndoRedoHistory
Layer: 0
Undoes
EndUndoes
Redoes
EndRedoes
EndUndoRedoHistory
UndoRedoHistory
Layer: 1
Undoes
EndUndoes
Redoes
EndRedoes
EndUndoRedoHistory
Fore
SplineSet
67 0 m 1,0,-1
 67 725 l 1,1,-1
 266 725 l 1,2,-1
 266 0 l 1,3,-1
 67 0 l 1,0,-1
EndSplineSet
EndChar

StartChar: lacute
Encoding: 314 314 189
Width: 332
Flags: MW
LayerCount: 2
UndoRedoHistory
Layer: 0
Undoes
EndUndoes
Redoes
EndRedoes
EndUndoRedoHistory
UndoRedoHistory
Layer: 1
Undoes
EndUndoes
Redoes
EndRedoes
EndUndoRedoHistory
Fore
SplineSet
67 725 m 1,0,-1
 266 725 l 1,1,-1
 266 0 l 1,2,-1
 67 0 l 1,3,-1
 67 725 l 1,0,-1
70 752 m 1,4,-1
 163 885 l 1,5,-1
 355 885 l 1,6,-1
 357 881 l 1,7,-1
 198 752 l 1,8,-1
 70 752 l 1,4,-1
EndSplineSet
EndChar

StartChar: lcaron
Encoding: 318 318 190
Width: 500
Flags: MW
LayerCount: 2
UndoRedoHistory
Layer: 0
Undoes
EndUndoes
Redoes
EndRedoes
EndUndoRedoHistory
UndoRedoHistory
Layer: 1
Undoes
EndUndoes
Redoes
EndRedoes
EndUndoRedoHistory
Fore
SplineSet
398 331 m 1,0,-1
 303 331 l 1,1,-1
 374 513 l 1,2,-1
 303 513 l 1,3,-1
 303 688 l 1,4,-1
 489 688 l 1,5,-1
 489 523 l 1,6,-1
 398 331 l 1,0,-1
67 0 m 1,7,-1
 67 725 l 1,8,-1
 266 725 l 1,9,-1
 266 0 l 1,10,-1
 67 0 l 1,7,-1
EndSplineSet
EndChar

StartChar: lcommaaccent
Encoding: 316 316 191
Width: 332
Flags: MW
LayerCount: 2
UndoRedoHistory
Layer: 0
Undoes
EndUndoes
Redoes
EndRedoes
EndUndoRedoHistory
UndoRedoHistory
Layer: 1
Undoes
EndUndoes
Redoes
EndRedoes
EndUndoRedoHistory
Fore
SplineSet
177 -267 m 1,0,-1
 110 -267 l 1,1,-1
 151 -175 l 1,2,-1
 102 -175 l 1,3,-1
 102 -59 l 1,4,-1
 231 -59 l 1,5,-1
 231 -168 l 1,6,-1
 177 -267 l 1,0,-1
67 0 m 1,7,-1
 67 725 l 1,8,-1
 266 725 l 1,9,-1
 266 0 l 1,10,-1
 67 0 l 1,7,-1
EndSplineSet
EndChar

StartChar: ldot
Encoding: 320 320 192
Width: 533
Flags: MW
LayerCount: 2
UndoRedoHistory
Layer: 0
Undoes
EndUndoes
Redoes
EndRedoes
EndUndoRedoHistory
UndoRedoHistory
Layer: 1
Undoes
EndUndoes
Redoes
EndRedoes
EndUndoRedoHistory
Fore
SplineSet
359 389 m 1,0,-1
 359 528 l 1,1,-1
 512 528 l 1,2,-1
 512 389 l 1,3,-1
 359 389 l 1,0,-1
67 0 m 1,4,-1
 67 725 l 1,5,-1
 266 725 l 1,6,-1
 266 0 l 1,7,-1
 67 0 l 1,4,-1
EndSplineSet
EndChar

StartChar: lslash
Encoding: 322 322 193
Width: 332
Flags: MW
LayerCount: 2
UndoRedoHistory
Layer: 0
Undoes
EndUndoes
Redoes
EndRedoes
EndUndoRedoHistory
UndoRedoHistory
Layer: 1
Undoes
EndUndoes
Redoes
EndRedoes
EndUndoRedoHistory
Fore
SplineSet
362 509 m 1,0,-1
 362 409 l 1,1,-1
 266 351 l 1,2,-1
 266 0 l 1,3,-1
 67 0 l 1,4,-1
 67 234 l 1,5,-1
 -15 185 l 1,6,-1
 -15 283 l 1,7,-1
 67 333 l 1,8,-1
 67 725 l 1,9,-1
 266 725 l 1,10,-1
 266 450 l 1,11,-1
 362 509 l 1,0,-1
EndSplineSet
EndChar

StartChar: m
Encoding: 109 109 194
Width: 1000
Flags: MW
LayerCount: 2
UndoRedoHistory
Layer: 0
Undoes
EndUndoes
Redoes
EndRedoes
EndUndoRedoHistory
UndoRedoHistory
Layer: 1
Undoes
EndUndoes
Redoes
EndRedoes
EndUndoRedoHistory
Fore
SplineSet
236 449 m 1,0,1
 266 491 266 491 315.5 515.5 c 128,-1,2
 365 540 365 540 420 540 c 0,3,4
 540 540 540 540 580 449 c 1,5,6
 611 491 611 491 659.5 515.5 c 128,-1,7
 708 540 708 540 761 540 c 0,8,9
 851 540 851 540 896 489 c 128,-1,10
 941 438 941 438 941 342 c 2,11,-1
 941 0 l 1,12,-1
 742 0 l 1,13,-1
 742 318 l 2,14,15
 742 352 742 352 725.5 372.5 c 128,-1,16
 709 393 709 393 679 393 c 0,17,18
 644 393 644 393 622 369 c 128,-1,19
 600 345 600 345 600 310 c 2,20,-1
 600 0 l 1,21,-1
 401 0 l 1,22,-1
 401 318 l 2,23,24
 401 352 401 352 384.5 372.5 c 128,-1,25
 368 393 368 393 338 393 c 0,26,27
 303 393 303 393 281 369 c 128,-1,28
 259 345 259 345 259 310 c 2,29,-1
 259 0 l 1,30,-1
 60 0 l 1,31,-1
 60 528 l 1,32,-1
 223 528 l 1,33,-1
 236 449 l 1,0,1
EndSplineSet
EndChar

StartChar: n
Encoding: 110 110 195
Width: 666
Flags: MW
LayerCount: 2
UndoRedoHistory
Layer: 0
Undoes
EndUndoes
Redoes
EndRedoes
EndUndoRedoHistory
UndoRedoHistory
Layer: 1
Undoes
EndUndoes
Redoes
EndRedoes
EndUndoRedoHistory
Fore
SplineSet
236 448 m 1,0,1
 267 490 267 490 317.5 515 c 128,-1,2
 368 540 368 540 424 540 c 0,3,4
 516 540 516 540 562 489 c 128,-1,5
 608 438 608 438 608 342 c 2,6,-1
 608 0 l 1,7,-1
 409 0 l 1,8,-1
 409 318 l 2,9,10
 409 352 409 352 391.5 372.5 c 128,-1,11
 374 393 374 393 342 393 c 0,12,13
 305 393 305 393 282 369 c 128,-1,14
 259 345 259 345 259 310 c 2,15,-1
 259 0 l 1,16,-1
 60 0 l 1,17,-1
 60 528 l 1,18,-1
 223 528 l 1,19,-1
 236 448 l 1,0,1
EndSplineSet
EndChar

StartChar: nacute
Encoding: 324 324 196
Width: 666
Flags: MW
LayerCount: 2
UndoRedoHistory
Layer: 0
Undoes
EndUndoes
Redoes
EndRedoes
EndUndoRedoHistory
UndoRedoHistory
Layer: 1
Undoes
EndUndoes
Redoes
EndRedoes
EndUndoRedoHistory
Fore
SplineSet
236 448 m 1,0,1
 267 490 267 490 317.5 515 c 128,-1,2
 368 540 368 540 424 540 c 0,3,4
 516 540 516 540 562 489 c 128,-1,5
 608 438 608 438 608 342 c 2,6,-1
 608 0 l 1,7,-1
 409 0 l 1,8,-1
 409 318 l 2,9,10
 409 352 409 352 391.5 372.5 c 128,-1,11
 374 393 374 393 342 393 c 0,12,13
 305 393 305 393 282 369 c 128,-1,14
 259 345 259 345 259 310 c 2,15,-1
 259 0 l 1,16,-1
 60 0 l 1,17,-1
 60 528 l 1,18,-1
 223 528 l 1,19,-1
 236 448 l 1,0,1
237 592 m 1,20,-1
 330 725 l 1,21,-1
 522 725 l 1,22,-1
 524 721 l 1,23,-1
 365 592 l 1,24,-1
 237 592 l 1,20,-1
EndSplineSet
EndChar

StartChar: napostrophe
Encoding: 329 329 197
Width: 857
Flags: MW
LayerCount: 2
UndoRedoHistory
Layer: 0
Undoes
EndUndoes
Redoes
EndRedoes
EndUndoRedoHistory
UndoRedoHistory
Layer: 1
Undoes
EndUndoes
Redoes
EndRedoes
EndUndoRedoHistory
Fore
SplineSet
427 448 m 1,0,1
 458 490 458 490 508.5 515 c 128,-1,2
 559 540 559 540 615 540 c 0,3,4
 707 540 707 540 753 489 c 128,-1,5
 799 438 799 438 799 342 c 2,6,-1
 799 0 l 1,7,-1
 600 0 l 1,8,-1
 600 318 l 2,9,10
 600 352 600 352 582.5 372.5 c 128,-1,11
 565 393 565 393 533 393 c 0,12,13
 496 393 496 393 473 369 c 128,-1,14
 450 345 450 345 450 310 c 2,15,-1
 450 0 l 1,16,-1
 251 0 l 1,17,-1
 251 528 l 1,18,-1
 414 528 l 1,19,-1
 427 448 l 1,0,1
156 480 m 1,20,-1
 89 480 l 1,21,-1
 130 572 l 1,22,-1
 81 572 l 1,23,-1
 81 688 l 1,24,-1
 210 688 l 1,25,-1
 210 579 l 1,26,-1
 156 480 l 1,20,-1
EndSplineSet
EndChar

StartChar: ncaron
Encoding: 328 328 198
Width: 666
Flags: MW
LayerCount: 2
UndoRedoHistory
Layer: 0
Undoes
EndUndoes
Redoes
EndRedoes
EndUndoRedoHistory
UndoRedoHistory
Layer: 1
Undoes
EndUndoes
Redoes
EndRedoes
EndUndoRedoHistory
Fore
SplineSet
236 448 m 1,0,1
 267 490 267 490 317.5 515 c 128,-1,2
 368 540 368 540 424 540 c 0,3,4
 516 540 516 540 562 489 c 128,-1,5
 608 438 608 438 608 342 c 2,6,-1
 608 0 l 1,7,-1
 409 0 l 1,8,-1
 409 318 l 2,9,10
 409 352 409 352 391.5 372.5 c 128,-1,11
 374 393 374 393 342 393 c 0,12,13
 305 393 305 393 282 369 c 128,-1,14
 259 345 259 345 259 310 c 2,15,-1
 259 0 l 1,16,-1
 60 0 l 1,17,-1
 60 528 l 1,18,-1
 223 528 l 1,19,-1
 236 448 l 1,0,1
270 580 m 1,20,-1
 130 725 l 1,21,-1
 258 725 l 1,22,-1
 333 648 l 1,23,-1
 407 725 l 1,24,-1
 537 725 l 1,25,-1
 397 580 l 1,26,-1
 270 580 l 1,20,-1
EndSplineSet
EndChar

StartChar: ncommaaccent
Encoding: 326 326 199
Width: 666
Flags: MW
LayerCount: 2
UndoRedoHistory
Layer: 0
Undoes
EndUndoes
Redoes
EndRedoes
EndUndoRedoHistory
UndoRedoHistory
Layer: 1
Undoes
EndUndoes
Redoes
EndRedoes
EndUndoRedoHistory
Fore
SplineSet
344 -267 m 1,0,-1
 277 -267 l 1,1,-1
 318 -175 l 1,2,-1
 269 -175 l 1,3,-1
 269 -59 l 1,4,-1
 398 -59 l 1,5,-1
 398 -168 l 1,6,-1
 344 -267 l 1,0,-1
236 448 m 1,7,8
 267 490 267 490 317.5 515 c 128,-1,9
 368 540 368 540 424 540 c 0,10,11
 516 540 516 540 562 489 c 128,-1,12
 608 438 608 438 608 342 c 2,13,-1
 608 0 l 1,14,-1
 409 0 l 1,15,-1
 409 318 l 2,16,17
 409 352 409 352 391.5 372.5 c 128,-1,18
 374 393 374 393 342 393 c 0,19,20
 305 393 305 393 282 369 c 128,-1,21
 259 345 259 345 259 310 c 2,22,-1
 259 0 l 1,23,-1
 60 0 l 1,24,-1
 60 528 l 1,25,-1
 223 528 l 1,26,-1
 236 448 l 1,7,8
EndSplineSet
EndChar

StartChar: eng
Encoding: 331 331 200
Width: 680
Flags: MW
LayerCount: 2
UndoRedoHistory
Layer: 0
Undoes
EndUndoes
Redoes
EndRedoes
EndUndoRedoHistory
UndoRedoHistory
Layer: 1
Undoes
EndUndoes
Redoes
EndRedoes
EndUndoRedoHistory
Fore
SplineSet
243 448 m 1,0,1
 274 490 274 490 324.5 515 c 128,-1,2
 375 540 375 540 431 540 c 0,3,4
 523 540 523 540 569 489 c 128,-1,5
 615 438 615 438 615 342 c 2,6,-1
 615 -29 l 2,7,8
 615 -125 615 -125 571.5 -167.5 c 128,-1,9
 528 -210 528 -210 432 -210 c 0,10,11
 405 -210 405 -210 367.5 -205 c 128,-1,12
 330 -200 330 -200 308 -192 c 1,13,-1
 308 -73 l 1,14,-1
 360 -73 l 2,15,16
 416 -73 416 -73 416 -9 c 2,17,-1
 416 318 l 2,18,19
 416 352 416 352 398.5 372.5 c 128,-1,20
 381 393 381 393 349 393 c 0,21,22
 312 393 312 393 289 369 c 128,-1,23
 266 345 266 345 266 310 c 2,24,-1
 266 0 l 1,25,-1
 67 0 l 1,26,-1
 67 528 l 1,27,-1
 230 528 l 1,28,-1
 243 448 l 1,0,1
EndSplineSet
EndChar

StartChar: ntilde
Encoding: 241 241 201
Width: 666
Flags: MW
LayerCount: 2
UndoRedoHistory
Layer: 0
Undoes
EndUndoes
Redoes
EndRedoes
EndUndoRedoHistory
UndoRedoHistory
Layer: 1
Undoes
EndUndoes
Redoes
EndRedoes
EndUndoRedoHistory
Fore
SplineSet
236 448 m 1,0,1
 267 490 267 490 317.5 515 c 128,-1,2
 368 540 368 540 424 540 c 0,3,4
 516 540 516 540 562 489 c 128,-1,5
 608 438 608 438 608 342 c 2,6,-1
 608 0 l 1,7,-1
 409 0 l 1,8,-1
 409 318 l 2,9,10
 409 352 409 352 391.5 372.5 c 128,-1,11
 374 393 374 393 342 393 c 0,12,13
 305 393 305 393 282 369 c 128,-1,14
 259 345 259 345 259 310 c 2,15,-1
 259 0 l 1,16,-1
 60 0 l 1,17,-1
 60 528 l 1,18,-1
 223 528 l 1,19,-1
 236 448 l 1,0,1
556 725 m 1,20,21
 556 669 556 669 516.5 625.5 c 128,-1,22
 477 582 477 582 416 582 c 0,23,24
 383 582 383 582 326 602 c 128,-1,25
 269 622 269 622 243 622 c 0,26,27
 224 622 224 622 211 611 c 128,-1,28
 198 600 198 600 192 582 c 1,29,-1
 111 582 l 1,30,31
 111 638 111 638 150.5 681.5 c 128,-1,32
 190 725 190 725 251 725 c 0,33,34
 284 725 284 725 341 705 c 128,-1,35
 398 685 398 685 424 685 c 0,36,37
 443 685 443 685 456 696 c 128,-1,38
 469 707 469 707 475 725 c 1,39,-1
 556 725 l 1,20,21
EndSplineSet
EndChar

StartChar: o
Encoding: 111 111 202
Width: 666
Flags: MW
LayerCount: 2
UndoRedoHistory
Layer: 0
Undoes
EndUndoes
Redoes
EndRedoes
EndUndoRedoHistory
UndoRedoHistory
Layer: 1
Undoes
EndUndoes
Redoes
EndRedoes
EndUndoRedoHistory
Fore
SplineSet
432 292 m 2,0,1
 432 405 432 405 333 405 c 0,2,3
 235 405 235 405 235 292 c 2,4,-1
 235 235 l 2,5,6
 235 123 235 123 333 123 c 0,7,8
 432 123 432 123 432 235 c 2,9,-1
 432 292 l 2,0,1
333 540 m 128,-1,11
 472 540 472 540 551.5 470 c 128,-1,12
 631 400 631 400 631 264 c 128,-1,13
 631 128 631 128 551.5 58 c 128,-1,14
 472 -12 472 -12 333 -12 c 128,-1,15
 194 -12 194 -12 115 58 c 128,-1,16
 36 128 36 128 36 264 c 128,-1,17
 36 400 36 400 115 470 c 128,-1,10
 194 540 194 540 333 540 c 128,-1,11
EndSplineSet
EndChar

StartChar: oacute
Encoding: 243 243 203
Width: 666
Flags: MW
LayerCount: 2
UndoRedoHistory
Layer: 0
Undoes
EndUndoes
Redoes
EndRedoes
EndUndoRedoHistory
UndoRedoHistory
Layer: 1
Undoes
EndUndoes
Redoes
EndRedoes
EndUndoRedoHistory
Fore
SplineSet
432 292 m 2,0,1
 432 405 432 405 333 405 c 0,2,3
 235 405 235 405 235 292 c 2,4,-1
 235 235 l 2,5,6
 235 123 235 123 333 123 c 0,7,8
 432 123 432 123 432 235 c 2,9,-1
 432 292 l 2,0,1
333 540 m 128,-1,11
 472 540 472 540 551.5 470 c 128,-1,12
 631 400 631 400 631 264 c 128,-1,13
 631 128 631 128 551.5 58 c 128,-1,14
 472 -12 472 -12 333 -12 c 128,-1,15
 194 -12 194 -12 115 58 c 128,-1,16
 36 128 36 128 36 264 c 128,-1,17
 36 400 36 400 115 470 c 128,-1,10
 194 540 194 540 333 540 c 128,-1,11
237 592 m 1,18,-1
 330 725 l 1,19,-1
 522 725 l 1,20,-1
 524 721 l 1,21,-1
 365 592 l 1,22,-1
 237 592 l 1,18,-1
EndSplineSet
EndChar

StartChar: obreve
Encoding: 335 335 204
Width: 666
Flags: MW
LayerCount: 2
UndoRedoHistory
Layer: 0
Undoes
EndUndoes
Redoes
EndRedoes
EndUndoRedoHistory
UndoRedoHistory
Layer: 1
Undoes
EndUndoes
Redoes
EndRedoes
EndUndoRedoHistory
Fore
SplineSet
432 292 m 2,0,1
 432 405 432 405 333 405 c 0,2,3
 235 405 235 405 235 292 c 2,4,-1
 235 235 l 2,5,6
 235 123 235 123 333 123 c 0,7,8
 432 123 432 123 432 235 c 2,9,-1
 432 292 l 2,0,1
333 540 m 128,-1,11
 472 540 472 540 551.5 470 c 128,-1,12
 631 400 631 400 631 264 c 128,-1,13
 631 128 631 128 551.5 58 c 128,-1,14
 472 -12 472 -12 333 -12 c 128,-1,15
 194 -12 194 -12 115 58 c 128,-1,16
 36 128 36 128 36 264 c 128,-1,17
 36 400 36 400 115 470 c 128,-1,10
 194 540 194 540 333 540 c 128,-1,11
518 725 m 1,18,19
 518 671 518 671 466 626 c 128,-1,20
 414 581 414 581 333 581 c 0,21,22
 251 581 251 581 200 626 c 128,-1,23
 149 671 149 671 149 725 c 1,24,-1
 245 725 l 1,25,26
 248 707 248 707 272 692 c 1,27,28
 300 675 300 675 333 675 c 0,29,30
 368 675 368 675 393.5 691.5 c 128,-1,31
 419 708 419 708 423 725 c 1,32,-1
 518 725 l 1,18,19
EndSplineSet
EndChar

StartChar: ocircumflex
Encoding: 244 244 205
Width: 666
Flags: MW
LayerCount: 2
UndoRedoHistory
Layer: 0
Undoes
EndUndoes
Redoes
EndRedoes
EndUndoRedoHistory
UndoRedoHistory
Layer: 1
Undoes
EndUndoes
Redoes
EndRedoes
EndUndoRedoHistory
Fore
SplineSet
432 292 m 2,0,1
 432 405 432 405 333 405 c 0,2,3
 235 405 235 405 235 292 c 2,4,-1
 235 235 l 2,5,6
 235 123 235 123 333 123 c 0,7,8
 432 123 432 123 432 235 c 2,9,-1
 432 292 l 2,0,1
333 540 m 128,-1,11
 472 540 472 540 551.5 470 c 128,-1,12
 631 400 631 400 631 264 c 128,-1,13
 631 128 631 128 551.5 58 c 128,-1,14
 472 -12 472 -12 333 -12 c 128,-1,15
 194 -12 194 -12 115 58 c 128,-1,16
 36 128 36 128 36 264 c 128,-1,17
 36 400 36 400 115 470 c 128,-1,10
 194 540 194 540 333 540 c 128,-1,11
407 580 m 1,18,-1
 333 657 l 1,19,-1
 258 580 l 1,20,-1
 130 580 l 1,21,-1
 270 725 l 1,22,-1
 397 725 l 1,23,-1
 537 580 l 1,24,-1
 407 580 l 1,18,-1
EndSplineSet
EndChar

StartChar: odieresis
Encoding: 246 246 206
Width: 666
Flags: MW
LayerCount: 2
UndoRedoHistory
Layer: 0
Undoes
EndUndoes
Redoes
EndRedoes
EndUndoRedoHistory
UndoRedoHistory
Layer: 1
Undoes
EndUndoes
Redoes
EndRedoes
EndUndoRedoHistory
Fore
SplineSet
432 292 m 2,0,1
 432 405 432 405 333 405 c 0,2,3
 235 405 235 405 235 292 c 2,4,-1
 235 235 l 2,5,6
 235 123 235 123 333 123 c 0,7,8
 432 123 432 123 432 235 c 2,9,-1
 432 292 l 2,0,1
333 540 m 128,-1,11
 472 540 472 540 551.5 470 c 128,-1,12
 631 400 631 400 631 264 c 128,-1,13
 631 128 631 128 551.5 58 c 128,-1,14
 472 -12 472 -12 333 -12 c 128,-1,15
 194 -12 194 -12 115 58 c 128,-1,16
 36 128 36 128 36 264 c 128,-1,17
 36 400 36 400 115 470 c 128,-1,10
 194 540 194 540 333 540 c 128,-1,11
368 586 m 1,18,-1
 368 725 l 1,19,-1
 520 725 l 1,20,-1
 520 586 l 1,21,-1
 368 586 l 1,18,-1
147 586 m 1,22,-1
 147 725 l 1,23,-1
 299 725 l 1,24,-1
 299 586 l 1,25,-1
 147 586 l 1,22,-1
EndSplineSet
EndChar

StartChar: ograve
Encoding: 242 242 207
Width: 666
Flags: MW
LayerCount: 2
UndoRedoHistory
Layer: 0
Undoes
EndUndoes
Redoes
EndRedoes
EndUndoRedoHistory
UndoRedoHistory
Layer: 1
Undoes
EndUndoes
Redoes
EndRedoes
EndUndoRedoHistory
Fore
SplineSet
432 292 m 2,0,1
 432 405 432 405 333 405 c 0,2,3
 235 405 235 405 235 292 c 2,4,-1
 235 235 l 2,5,6
 235 123 235 123 333 123 c 0,7,8
 432 123 432 123 432 235 c 2,9,-1
 432 292 l 2,0,1
333 540 m 128,-1,11
 472 540 472 540 551.5 470 c 128,-1,12
 631 400 631 400 631 264 c 128,-1,13
 631 128 631 128 551.5 58 c 128,-1,14
 472 -12 472 -12 333 -12 c 128,-1,15
 194 -12 194 -12 115 58 c 128,-1,16
 36 128 36 128 36 264 c 128,-1,17
 36 400 36 400 115 470 c 128,-1,10
 194 540 194 540 333 540 c 128,-1,11
143 721 m 1,18,-1
 145 725 l 1,19,-1
 337 725 l 1,20,-1
 430 592 l 1,21,-1
 303 592 l 1,22,-1
 143 721 l 1,18,-1
EndSplineSet
EndChar

StartChar: ohungarumlaut
Encoding: 337 337 208
Width: 666
Flags: MW
LayerCount: 2
UndoRedoHistory
Layer: 0
Undoes
EndUndoes
Redoes
EndRedoes
EndUndoRedoHistory
UndoRedoHistory
Layer: 1
Undoes
EndUndoes
Redoes
EndRedoes
EndUndoRedoHistory
Fore
SplineSet
432 292 m 2,0,1
 432 405 432 405 333 405 c 0,2,3
 235 405 235 405 235 292 c 2,4,-1
 235 235 l 2,5,6
 235 123 235 123 333 123 c 0,7,8
 432 123 432 123 432 235 c 2,9,-1
 432 292 l 2,0,1
333 540 m 128,-1,11
 472 540 472 540 551.5 470 c 128,-1,12
 631 400 631 400 631 264 c 128,-1,13
 631 128 631 128 551.5 58 c 128,-1,14
 472 -12 472 -12 333 -12 c 128,-1,15
 194 -12 194 -12 115 58 c 128,-1,16
 36 128 36 128 36 264 c 128,-1,17
 36 400 36 400 115 470 c 128,-1,10
 194 540 194 540 333 540 c 128,-1,11
488 591 m 1,18,-1
 371 591 l 1,19,-1
 447 725 l 1,20,-1
 625 725 l 1,21,-1
 627 721 l 1,22,-1
 488 591 l 1,18,-1
277 591 m 1,23,-1
 160 591 l 1,24,-1
 236 725 l 1,25,-1
 414 725 l 1,26,-1
 416 721 l 1,27,-1
 277 591 l 1,23,-1
EndSplineSet
EndChar

StartChar: omacron
Encoding: 333 333 209
Width: 666
Flags: MW
LayerCount: 2
UndoRedoHistory
Layer: 0
Undoes
EndUndoes
Redoes
EndRedoes
EndUndoRedoHistory
UndoRedoHistory
Layer: 1
Undoes
EndUndoes
Redoes
EndRedoes
EndUndoRedoHistory
Fore
SplineSet
432 292 m 2,0,1
 432 405 432 405 333 405 c 0,2,3
 235 405 235 405 235 292 c 2,4,-1
 235 235 l 2,5,6
 235 123 235 123 333 123 c 0,7,8
 432 123 432 123 432 235 c 2,9,-1
 432 292 l 2,0,1
333 540 m 128,-1,11
 472 540 472 540 551.5 470 c 128,-1,12
 631 400 631 400 631 264 c 128,-1,13
 631 128 631 128 551.5 58 c 128,-1,14
 472 -12 472 -12 333 -12 c 128,-1,15
 194 -12 194 -12 115 58 c 128,-1,16
 36 128 36 128 36 264 c 128,-1,17
 36 400 36 400 115 470 c 128,-1,10
 194 540 194 540 333 540 c 128,-1,11
175 605 m 1,18,-1
 175 705 l 1,19,-1
 492 705 l 1,20,-1
 492 605 l 1,21,-1
 175 605 l 1,18,-1
EndSplineSet
EndChar

StartChar: oslash
Encoding: 248 248 210
Width: 666
Flags: MW
LayerCount: 2
UndoRedoHistory
Layer: 0
Undoes
EndUndoes
Redoes
EndRedoes
EndUndoRedoHistory
UndoRedoHistory
Layer: 1
Undoes
EndUndoes
Redoes
EndRedoes
EndUndoRedoHistory
Fore
SplineSet
281 134 m 1,0,1
 303 123 303 123 333 123 c 0,2,3
 432 123 432 123 432 235 c 2,4,-1
 432 292 l 2,5,6
 432 302 432 302 430 320 c 1,7,-1
 281 134 l 1,0,1
393 389 m 1,8,9
 369 405 369 405 333 405 c 0,10,11
 235 405 235 405 235 292 c 2,12,-1
 235 235 l 2,13,14
 235 213 235 213 238 195 c 1,15,-1
 393 389 l 1,8,9
551 470 m 1,16,17
 631 398 631 398 631 264 c 0,18,19
 631 128 631 128 551.5 58 c 128,-1,20
 472 -12 472 -12 333 -12 c 0,21,22
 250 -12 250 -12 185 14 c 1,23,-1
 138 -45 l 1,24,-1
 46 -45 l 1,25,-1
 123 51 l 1,26,27
 36 123 36 123 36 264 c 0,28,29
 36 400 36 400 115 470 c 128,-1,30
 194 540 194 540 333 540 c 0,31,32
 425 540 425 540 490 509 c 1,33,-1
 530 559 l 1,34,-1
 622 559 l 1,35,-1
 551 470 l 1,16,17
EndSplineSet
EndChar

StartChar: oslashacute
Encoding: 511 511 211
Width: 666
Flags: MW
LayerCount: 2
UndoRedoHistory
Layer: 0
Undoes
EndUndoes
Redoes
EndRedoes
EndUndoRedoHistory
UndoRedoHistory
Layer: 1
Undoes
EndUndoes
Redoes
EndRedoes
EndUndoRedoHistory
Fore
SplineSet
281 134 m 1,0,1
 303 123 303 123 333 123 c 0,2,3
 432 123 432 123 432 235 c 2,4,-1
 432 292 l 2,5,6
 432 302 432 302 430 320 c 1,7,-1
 281 134 l 1,0,1
393 389 m 1,8,9
 369 405 369 405 333 405 c 0,10,11
 235 405 235 405 235 292 c 2,12,-1
 235 235 l 2,13,14
 235 213 235 213 238 195 c 1,15,-1
 393 389 l 1,8,9
551 470 m 1,16,17
 631 398 631 398 631 264 c 0,18,19
 631 128 631 128 551.5 58 c 128,-1,20
 472 -12 472 -12 333 -12 c 0,21,22
 250 -12 250 -12 185 14 c 1,23,-1
 138 -45 l 1,24,-1
 46 -45 l 1,25,-1
 123 51 l 1,26,27
 36 123 36 123 36 264 c 0,28,29
 36 400 36 400 115 470 c 128,-1,30
 194 540 194 540 333 540 c 0,31,32
 425 540 425 540 490 509 c 1,33,-1
 530 559 l 1,34,-1
 622 559 l 1,35,-1
 551 470 l 1,16,17
238 592 m 1,36,-1
 330 725 l 1,37,-1
 523 725 l 1,38,-1
 525 721 l 1,39,-1
 365 592 l 1,40,-1
 238 592 l 1,36,-1
EndSplineSet
EndChar

